<?xml version="1.0" encoding="utf-8"?>
<!-- Generator: Adobe Illustrator 27.9.0, SVG Export Plug-In . SVG Version: 6.00 Build 0)  -->
<svg version="1.1" id="Layer_1" xmlns="http://www.w3.org/2000/svg" xmlns:xlink="http://www.w3.org/1999/xlink" x="0px" y="0px"
	 viewBox="0 0 570 138" style="enable-background:new 0 0 570 138;" xml:space="preserve">
<style type="text/css">
	.st0{fill:#66FF33;}
</style>
<g>
	<g>
		<g>
			<path class="st0" d="M492.6,99.2c0-0.1-0.1-0.1-0.1,0v0C492.5,99.1,492.6,99.1,492.6,99.2C492.6,99.2,492.6,99.2,492.6,99.2
				C492.6,99.3,492.6,99.3,492.6,99.2C492.6,99.3,492.6,99.3,492.6,99.2C492.6,99.2,492.6,99.2,492.6,99.2z"/>
			<path class="st0" d="M490.9,103.7C490.9,103.7,490.9,103.7,490.9,103.7L490.9,103.7C490.9,103.7,490.9,103.7,490.9,103.7z"/>
			<path class="st0" d="M490.2,103.3c0.1,0.1,0.2,0.1,0.3,0.2C490.4,103.4,490.3,103.4,490.2,103.3c0,0.1-0.1,0.1-0.1,0.1
				c0.2,0.1,0.5,0.2,0.8,0.3c-0.3-0.1-0.5-0.2-0.8-0.3C490.2,103.4,490.2,103.3,490.2,103.3z"/>
			<path class="st0" d="M493.8,101.7c0.1-0.3,0.1-0.6,0-0.9c0-0.1,0-0.1,0-0.2c0,0.1,0,0.1,0,0.2
				C493.9,101.1,493.9,101.4,493.8,101.7z"/>
			<path class="st0" d="M490.9,98.9C490.9,98.9,490.9,98.9,490.9,98.9C490.9,98.9,490.9,98.9,490.9,98.9L490.9,98.9
				C490.9,98.9,490.9,98.8,490.9,98.9C490.9,98.8,490.9,98.9,490.9,98.9L490.9,98.9z"/>
			<path class="st0" d="M493.5,100.1C493.5,100,493.5,100,493.5,100.1L493.5,100.1C493.5,100,493.5,100,493.5,100.1z"/>
			<path class="st0" d="M489.7,103C489.8,103,489.8,103,489.7,103c0,0.1,0,0.1,0.1,0.1C489.8,103.1,489.8,103.1,489.7,103
				C489.8,103,489.8,103,489.7,103C489.7,103,489.7,102.9,489.7,103c-0.1-0.2-0.3-0.3-0.3-0.5C489.5,102.7,489.6,102.8,489.7,103
				C489.7,102.9,489.7,103,489.7,103z"/>
			<path class="st0" d="M490.4,99.2c-0.2,0.1-0.4,0.2-0.5,0.3C490,99.4,490.2,99.2,490.4,99.2z"/>
			<path class="st0" d="M489.8,103.2C489.8,103.2,489.8,103.2,489.8,103.2C489.8,103.1,489.8,103.1,489.8,103.2
				C489.8,103.1,489.8,103.2,489.8,103.2C489.8,103.2,489.8,103.2,489.8,103.2z"/>
			<path class="st0" d="M490.4,99.2c0.1-0.1,0.3-0.1,0.4-0.1c0,0,0,0,0,0c0,0,0,0,0,0C490.7,99,490.5,99.1,490.4,99.2z"/>
			<path class="st0" d="M492.1,103.7L492.1,103.7c0.8-0.3,1.4-0.9,1.7-1.7C493.6,102.7,492.9,103.4,492.1,103.7z"/>
			<path class="st0" d="M489.4,100c-0.1,0.2-0.2,0.4-0.3,0.6C489.2,100.4,489.3,100.1,489.4,100c0.1-0.2,0.3-0.3,0.4-0.5
				C489.7,99.6,489.6,99.8,489.4,100z"/>
			<path class="st0" d="M491,103.8c-0.3-0.1-0.6-0.2-0.8-0.4c0,0,0,0,0,0c-0.1,0.1-0.3,0-0.3-0.2c-0.5-0.4-0.8-0.9-0.9-1.5
				c-0.3-1.4,0.6-2.7,2-2.9c0,0,0,0,0,0c0,0,0,0,0,0c0.1-0.2,0.1-0.4,0.2-0.6c-0.4,0.1-0.7,0.2-0.9,0.2c-1.7,0.6-2.7,2-2.3,3.8
				c0.3,1.4,1.7,3,3.9,4c0,0-0.2-0.4,0.1-0.9c-0.1-0.1-0.1-0.2-0.2-0.3C491.5,105.1,491.2,104.6,491,103.8z"/>
			<path class="st0" d="M493.1,99.5C493.1,99.5,493.1,99.5,493.1,99.5c-0.1-0.1-0.2-0.1-0.3-0.1C492.9,99.4,493,99.4,493.1,99.5z"/>
			<polygon class="st0" points="495.2,98.6 495.2,100.3 495.8,100.2 495.4,98.6 			"/>
			<polygon class="st0" points="492.6,103.3 492.6,103.3 492.6,103.3 			"/>
			<path class="st0" d="M492.3,99C492.3,99,492.3,99,492.3,99C492.3,99,492.3,99,492.3,99z"/>
			<path class="st0" d="M498.4,98.6c-0.2,0-0.4,0.1-0.4,0.1l0.2,0.9l0.4-0.1c0.2,0,0.3-0.2,0.3-0.5
				C498.8,98.7,498.6,98.6,498.4,98.6z"/>
			<path class="st0" d="M512.7,99.9c2.7-0.6,3.2-2.7,2.9-4.1c-0.1-0.5-0.3-0.9-0.6-1.4c-0.2-0.3-0.9-1-1.7-1.3c0,0,0.2,0.3,0,0.6
				c-0.3,0.4-1.1,0.7-3,1.2c-1.9,0.4-4.4,0.8-8.8,1.5c-3.1,0.5-6.6,1-8.9,1.5c0.1,0.1,0.2,0.4,0.1,0.5c0.2,0.1,0.2,0.5,0,0.7
				c-0.1,0-0.1-0.1-0.2-0.1l0,0c0.1,0,0.1,0.1,0.2,0.1c0.1,0,0.2,0.1,0.2,0.1c0,0,0.1,0,0.1,0.1c0,0-0.1,0-0.1-0.1
				c0.1,0.1,0.3,0.2,0.4,0.3c0,0,0,0,0,0c0,0,0,0,0,0c0.2,0.1,0.2,0.1,0.3,0.2c0.1,0.1,0.1,0.2,0.1,0.2c0,0,0,0.1,0,0.1
				s0,0.1,0.1,0.1c0.1,0.2,0.2,0.5,0.3,0.7c0.2,1.2-0.5,2.5-1.7,2.8c0.1,0.2,0.2,0.3,0.3,0.4c0.1,0.1,0.1,0.3,0.1,0.4
				c1.8-1.3,5.6-2.2,9.7-2.9C506.5,100.9,511.3,100.2,512.7,99.9z M512.2,95.2c0.2,0,0.3,0,0.5,0l0,0c0.3,0,0.3,0,0.3,0l0.1-0.1
				l0.2,1c0,0-0.1-0.1-0.3-0.1c-0.2-0.1-0.4-0.2-0.8-0.1l0,0c-0.3,0.1-0.4,0.2-0.4,0.3c0,0.2,0.2,0.2,0.5,0.3l0.2,0l0,0
				c0.4,0.1,1,0.2,1.1,1c0.1,0.5-0.3,1.1-1.1,1.3c-0.3,0.1-0.5,0-0.6,0c-0.1,0-0.3,0.1-0.3,0.1c-0.1,0-0.1,0.1-0.1,0.1l-0.2-1.2
				c0,0,0.1,0,0.2,0.1c0.3,0.2,0.5,0.3,0.9,0.2c0.2,0,0.5-0.2,0.5-0.4c0-0.2-0.1-0.3-0.8-0.4c-0.7-0.1-1.1-0.3-1.1-0.9
				C511.1,95.9,511.4,95.4,512.2,95.2z M510.8,95c0.2,0,0.3,0.1,0.4,0.3c0,0.3-0.1,0.5-0.4,0.7c0.1-0.1,0.1-0.2,0.1-0.3
				c0-0.2-0.3-0.2-0.3-0.4C510.5,95.2,510.6,95.1,510.8,95z M510.4,95.6l0.1,0.7c-0.1-0.1-0.2-0.1-0.3-0.1l-0.5,0.1l0.5,2.6
				c0,0.1,0.1,0.2,0.2,0.2l-1,0.2c0.1-0.1,0.1-0.1,0.1-0.2l-0.5-2.6l-1.1,0.2l0.5,2.6c0,0.1,0.1,0.2,0.2,0.2c-0.2,0-0.9,0.2-1.1,0.2
				c0.1-0.1,0.1-0.1,0.1-0.3l-0.5-2.6c0,0-0.5,0.1-0.6,0.1c-0.1,0-0.2,0-0.2,0.2l-0.1-0.7L510.4,95.6z M504.6,96.7
				c0.9-0.2,1.7,0.5,1.9,1.5c0.2,1-0.2,1.9-1.2,2.1c-0.5,0.1-0.9,0-1.2-0.3c-0.3-0.3-0.5-0.7-0.6-1.2
				C503.2,97.7,503.7,96.9,504.6,96.7z M496.2,102c0.1-0.1,0.1-0.2,0.1-0.4c0-0.1-0.2-0.9-0.2-0.9l-0.8,0.2c0,0,0,0.9,0,0.9
				c0,0,0,0.2,0.2,0.3l-1.2,0.2c0.1-0.2,0.2-0.2,0.2-0.5c0-0.2,0.1-3.1,0.1-3.3c0-0.2-0.1-0.3-0.2-0.3l2-0.4c-0.1,0.1-0.1,0.3,0,0.4
				c0,0.1,0.9,3.1,0.9,3.2c0,0.1,0.1,0.2,0.3,0.3L496.2,102z M499.3,101.3l-0.7-1.2l-0.3,0.1l0.2,1c0,0.1,0.1,0.2,0.2,0.3l-1.1,0.2
				l0,0c0.1-0.1,0.1-0.2,0.1-0.3l-0.5-2.8c0-0.1-0.1-0.2-0.2-0.2c0,0,1.5-0.3,1.6-0.3c0.6-0.1,1.1,0.1,1.2,0.9
				c0.1,0.4-0.1,0.9-0.4,1.1c0,0,0.6,0.9,0.7,1c0.1,0.1,0.2,0.2,0.3,0.2C500.4,101.1,499.3,101.3,499.3,101.3z M500.6,101.1
				c0,0,0.1-0.2,0.1-0.4c0-0.2-0.5-2.7-0.5-2.7c0-0.2-0.1-0.3-0.2-0.4l1.1-0.2l1.4,1.7l-0.3-1.5c0-0.2-0.1-0.3-0.2-0.4l0.8-0.2
				c-0.1,0.1-0.1,0.3,0,0.4l0.6,3l-0.8,0.2l-1.6-1.9c0,0,0.3,1.6,0.4,1.8c0,0.2,0.1,0.3,0.2,0.3
				C501.5,100.9,500.6,101.1,500.6,101.1z"/>
			<path class="st0" d="M505.2,99.6c0.4-0.1,0.6-0.7,0.5-1.3c-0.1-0.6-0.5-1.1-0.9-1c-0.4,0.1-0.6,0.7-0.5,1.3
				C504.4,99.2,504.7,99.7,505.2,99.6z"/>
			<path class="st0" d="M492,103.5C492,103.5,492.1,103.6,492,103.5C492.1,103.6,492,103.5,492,103.5C492,103.5,492,103.5,492,103.5
				z"/>
			<path class="st0" d="M492.3,99.1C492.3,99.1,492.3,99.1,492.3,99.1c0,0,0.1,0,0.1,0c0,0,0,0,0,0c0,0,0,0,0,0
				C492.4,99.2,492.4,99.2,492.3,99.1z"/>
			<path class="st0" d="M493.3,102.6c0.3-0.5,0.5-1.1,0.4-1.8c0-0.1-0.1-0.3-0.1-0.4c0,0.1,0.1,0.3,0.1,0.4
				C493.8,101.5,493.7,102.1,493.3,102.6c-0.2,0.2-0.4,0.4-0.6,0.6h0C493,103,493.2,102.8,493.3,102.6z"/>
			<path class="st0" d="M511.8,100.3c0.4-0.1,0.7-0.1,0.9-0.2C512.7,100.1,512.4,100.2,511.8,100.3z"/>
			<path class="st0" d="M492.7,105.1c0,0.1-0.1,0.2-0.2,0.1c0,0,0.2,0.4,0,0.5c0,0-0.1,0-0.1,0c0,0,0,0,0,0c-0.1,0-0.2,0-0.3-0.2
				c-0.2,0.4-0.1,0.7-0.1,0.9l0.6,0.2c0,0-0.4-0.7,0.6-1.6c0.8-0.6,2.7-1.6,8.6-2.8c2.9-0.6,7.9-1.5,10-1.9c-2,0.3-5.9,0.9-9.4,1.5
				c-4.2,0.7-8,1.7-9.7,3C492.7,104.9,492.7,105,492.7,105.1z"/>
			<path class="st0" d="M509.9,94.8c1.8-0.4,2.8-0.7,3.1-1.1c0.3-0.3-0.1-0.6-0.1-0.6c-0.2-0.1-0.5-0.1-0.5-0.1s0.3,0.3,0,0.6
				c-0.2,0.3-0.7,0.6-2.6,1.1c-1.9,0.5-11.5,2.2-11.5,2.2c1-0.2,1.9-0.3,2.9-0.5C505.5,95.6,508,95.2,509.9,94.8z"/>
			<path class="st0" d="M491.4,98.1C491.4,98.1,491.4,98.1,491.4,98.1C491.4,98.2,491.4,98.1,491.4,98.1
				C491.4,98.1,491.4,98.1,491.4,98.1c0.2-0.2,0.4-0.2,0.5-0.1c0,0,0,0,0.1,0c0,0,0.1,0,0.1,0c-0.1-0.1-0.1-0.1-0.2-0.1
				C491.5,97.9,491.3,98.1,491.4,98.1c0.3-0.5,0.5-0.3,0.6-0.3c0,0,0-0.1,0-0.1s0.2,0,0.3,0.2c0,0,0,0,0-0.1c0,0,0.1,0.1,0.1,0.1
				c0,0,0.1,0,0.1,0c0,0,0,0-0.1-0.1c0,0,0,0-0.1-0.1c0,0,0,0,0,0c0,0,0,0,0,0c0,0,0,0,0,0c0,0,0,0,0,0c0,0,0,0,0,0c0,0,0,0,0,0
				c0,0,0,0,0,0c0,0,0,0.1,0,0.1c-0.1-0.1-0.3-0.1-0.3-0.1c0,0,0,0.1,0,0.1c-0.3,0-0.4,0.1-0.4,0.1c0,0,0.1,0,0.1,0
				c-0.2,0.1-0.3,0.3-0.4,0.4C491.2,98.2,491.3,98.2,491.4,98.1C491.3,98.1,491.3,98.1,491.4,98.1z"/>
			<path class="st0" d="M492.2,105.3c0-0.1-0.1-0.1-0.1-0.2c0,0,0,0,0,0C492.1,105.1,492.2,105.2,492.2,105.3
				C492.2,105.3,492.2,105.3,492.2,105.3z"/>
			<path class="st0" d="M492.5,104.8c0,0,0,0.1,0,0.1c0.1,0,0.1-0.1,0.2-0.1c0-0.1-0.1-0.1-0.1-0.1c0.1,0,0.1-0.1,0.1-0.2
				C492.6,104.6,492.5,104.7,492.5,104.8C492.5,104.8,492.5,104.8,492.5,104.8z"/>
			<path class="st0" d="M492.4,105.1c0-0.1,0-0.1-0.1-0.2c0,0,0,0,0,0C492.3,105,492.3,105.1,492.4,105.1
				C492.4,105.1,492.4,105.1,492.4,105.1z"/>
			<path class="st0" d="M492,105.2C492,105.3,492,105.3,492,105.2c0,0.1,0.1,0.2,0.1,0.3c0,0,0,0,0-0.1
				C492.1,105.4,492,105.3,492,105.2z"/>
			<path class="st0" d="M491.9,101.1C491.9,101.1,491.9,101.2,491.9,101.1c0,0.1,0,0.2,0.1,0.2c0.1,0,0.1-0.1,0.1-0.1c0,0,0,0,0,0
				c0,0.1-0.1,0.1-0.1,0.1C492,101.3,491.9,101.2,491.9,101.1z"/>
			<path class="st0" d="M491.2,101.8c0,0-0.1-0.1-0.1-0.1C491.1,101.6,491.1,101.7,491.2,101.8C491.1,101.7,491.1,101.8,491.2,101.8
				c0,0,0.1,0,0.1-0.1c0,0,0,0,0,0C491.3,101.7,491.2,101.8,491.2,101.8z"/>
			<path class="st0" d="M491.7,101.3c0,0-0.1-0.1-0.1-0.1C491.6,101.2,491.6,101.2,491.7,101.3C491.6,101.3,491.6,101.4,491.7,101.3
				c0,0,0.1,0,0.1-0.1c0,0,0,0,0,0C491.8,101.3,491.7,101.3,491.7,101.3z"/>
			<path class="st0" d="M491.9,100.1c0,0-0.1-0.1-0.1-0.1C491.8,100,491.8,100,491.9,100.1C491.8,100.1,491.8,100.2,491.9,100.1
				c0,0,0.1,0,0.1-0.1c0,0,0,0,0,0C492,100.1,492,100.1,491.9,100.1z"/>
			<path class="st0" d="M491.8,100.8C491.8,100.8,491.8,100.8,491.8,100.8c0,0.1,0,0.2,0.1,0.2c0.1,0,0.1-0.1,0.1-0.1c0,0,0,0,0,0
				c0,0.1-0.1,0.1-0.1,0.1C491.8,100.9,491.8,100.9,491.8,100.8z"/>
			<path class="st0" d="M489.8,103.1C489.8,103.1,489.8,103.1,489.8,103.1C489.9,103.1,489.8,103.1,489.8,103.1z"/>
			<path class="st0" d="M492.3,103.7c1.2-0.4,1.9-1.6,1.7-2.8c-0.1-0.3-0.1-0.5-0.3-0.7c0-0.1-0.1-0.1-0.1-0.1s0,0,0-0.1
				c0,0,0.1-0.1-0.1-0.2c-0.1,0-0.1-0.1-0.3-0.2c0,0,0,0,0,0c0,0,0,0,0,0c-0.1-0.1-0.3-0.2-0.4-0.3c0,0,0.1,0,0.1,0.1
				c0.1,0.1,0.1,0.1,0.2,0.2c0,0,0,0,0,0c0,0,0,0,0,0c-0.1-0.1-0.2-0.1-0.3-0.1c-0.1,0-0.2-0.1-0.2-0.1c0,0,0,0,0,0c0,0,0,0,0,0
				c0,0,0,0,0,0c0,0,0,0,0,0c0-0.1-0.1-0.1-0.1,0c0,0,0,0,0,0c0,0,0,0,0,0c0,0-0.1,0-0.1,0c0,0,0,0,0,0l0,0c0,0,0,0,0,0c0,0,0,0,0,0
				c0,0,0,0,0-0.1c0,0,0,0,0,0c0,0,0.1,0,0.1,0.1c0,0,0,0,0,0l0,0l0,0c0.1,0,0.1,0.1,0.2,0.1c0.2-0.2,0.1-0.5,0-0.7
				c0.1-0.1,0-0.4-0.1-0.5c0,0-0.1,0-0.1,0c0.1,0.1,0.1,0.3,0,0.4c-0.2,0.1-0.2-0.1-0.3-0.3c0,0-0.1,0-0.1,0
				c0.1,0.1,0.1,0.2,0.2,0.3c0,0-0.1,0.1-0.1,0.2c0,0.1-0.1,0.1-0.2,0.2c-0.1-0.2-0.4-0.2-0.5-0.6c0,0,0,0,0,0
				c0,0.2,0.1,0.3,0.2,0.4c0,0,0.1,0.1,0.1,0.1c0,0,0,0.1,0,0.1c0,0,0-0.1,0-0.1c0,0,0.1,0.1,0.1,0.1c0.1,0.1,0.1,0.4,0.4,0.5
				c0,0.1,0.1,0.1,0.1,0.2c0,0-0.1,0-0.1,0c0,0-0.1,0.1-0.1,0.1c0,0,0,0,0,0c0,0.1,0.2,0.2,0.3,0.2c0,0,0,0,0.1,0c0,0.1,0,0.1,0,0.2
				c0,0-0.1,0-0.1,0c-0.1,0.1-0.1,0.1-0.1,0.1c0.1,0,0.1,0,0.2-0.1c0,0.2-0.1,0.3-0.1,0.3c0,0-0.1,0.1-0.2,0.1c0,0,0,0.2-0.2,0.2
				c0,0-0.1,0.2-0.1,0.2c0,0,0.1,0.1,0.2,0.1c0.1,0.1,0.3,0.1,0.3,0.1c0,0,0,0,0,0c0,0,0,0.2-0.1,0.2c0,0-0.1-0.1-0.1-0.1
				c0,0,0,0,0,0c0,0.1,0,0.1,0.1,0.1c0,0,0.1,0,0.1,0c0,0.1-0.1,0.2-0.3,0.4c0,0,0,0,0,0.1c0,0,0,0,0,0c0,0.1-0.1,0.1-0.1,0.1
				c0,0-0.1-0.1-0.1-0.1c0,0,0,0,0,0c0,0.1,0,0.1,0.1,0.1c0,0,0,0,0,0c-0.1,0.1-0.1,0.2-0.2,0.1c0,0-0.1,0.2-0.2,0
				c0,0-0.1,0.2-0.2,0c0,0-0.1,0.2-0.2,0.1c0,0-0.2,0.1-0.2,0c0,0,0.1-0.1,0.1-0.2c0-0.1,0.1-0.1,0.1-0.2c0.1-0.1,0.1-0.2,0.2-0.3
				c0,0.1,0,0.1,0.1,0.1c0.1,0,0.1-0.1,0.1-0.1c0,0,0,0,0,0c0,0.1-0.1,0.1-0.1,0.1c0,0-0.1,0-0.1-0.1c0.1-0.1,0.1-0.3,0.2-0.4
				c0,0.1,0,0.1,0.1,0.1c0.1,0,0.1-0.1,0.1-0.1c0,0,0,0,0,0c0,0.1-0.1,0.1-0.1,0.1c0,0-0.1,0-0.1-0.1c0-0.1,0.1-0.3,0.1-0.4
				c0,0,0,0,0-0.1c0-0.1,0-0.2,0-0.2l0,0c0,0,0.1,0,0.1-0.1c0.1-0.1,0.1-0.1,0.2-0.2c0,0,0-0.1,0-0.1c0,0,0,0,0,0
				c0.1,0,0.1-0.1,0.1-0.1c0,0,0,0,0,0c0,0.1-0.1,0.1-0.1,0.1c0,0,0,0,0,0c0-0.1,0-0.1,0-0.2c0-0.1-0.1-0.2-0.2-0.3
				c-0.1-0.1-0.2-0.1-0.4-0.2c-0.1,0-0.3,0-0.4,0c-0.1,0-0.2,0-0.2,0.1c0.1-0.1,0.2-0.3,0.3-0.4c0.1-0.2,0.1-0.3,0.2-0.4
				c0,0,0,0,0,0.1c0,0,0,0,0-0.1c0-0.1,0.1-0.2,0.1-0.3c0,0-0.1,0-0.1,0c-0.1,0.2-0.1,0.5-0.2,0.6c0,0,0,0,0,0l0,0c0,0,0,0,0,0
				c0,0,0,0,0,0l0,0c0,0,0,0,0,0c0,0,0,0,0,0c0,0,0,0,0,0l0,0c0,0,0,0.1-0.1,0.1c0,0,0,0,0,0c-0.1,0-0.3,0.1-0.4,0.1
				c-0.2,0.1-0.4,0.2-0.5,0.3c-0.2,0.1-0.3,0.3-0.4,0.5c-0.1,0.2-0.2,0.4-0.3,0.6c-0.1,0.4-0.1,0.8-0.1,1.1c0.1,0.3,0.2,0.6,0.3,0.8
				c0.1,0.2,0.2,0.3,0.3,0.4c0,0,0,0,0,0.1c0,0,0,0.1,0,0.1c0,0,0,0,0,0c0,0,0,0,0,0c0,0,0,0,0,0c0,0,0,0,0,0c0,0,0,0,0,0
				c0,0,0,0,0,0c0,0,0,0.1,0,0.1c0,0,0,0,0,0c0,0,0,0,0,0c0,0.2,0.2,0.3,0.3,0.2c0,0,0,0,0,0c0.3,0.2,0.5,0.3,0.8,0.4
				c0.3,0.8,0.5,1.4,0.8,1.2c0.1,0.1,0.1,0.2,0.2,0.3c0,0,0,0,0-0.1c-0.4-0.6-0.9-1.8-0.9-1.8s0-0.1,0-0.2c0,0,0.1,0,0.1,0
				c0.1,0.2,0.5,0.9,1,1.9c0,0,0,0,0,0c-0.4-1-0.9-1.8-1-2c0,0,0-0.1,0-0.1c0,0,0,0,0.1,0c0,0,0.7,1.2,1.1,2c0,0,0,0,0,0
				c-0.3-0.6-1.1-2-1.1-2c0,0,0-0.1,0.1-0.1c0,0,0,0,0,0c0.1,0.2,0.9,1.4,1.1,1.9c0.1-0.1,0.2-0.1,0.3-0.2c0-0.1-0.1-0.3-0.1-0.4
				C492.5,104,492.4,103.9,492.3,103.7z M492.3,99.9C492.3,99.9,492.3,99.9,492.3,99.9C492.3,99.9,492.3,99.9,492.3,99.9
				C492.3,99.9,492.3,99.9,492.3,99.9C492.3,99.9,492.3,99.9,492.3,99.9C492.4,99.9,492.4,99.9,492.3,99.9
				C492.4,99.9,492.3,99.9,492.3,99.9z M493.5,100c0.1,0.2,0.2,0.4,0.3,0.6c0,0.1,0,0.1,0,0.2c0.1,0.3,0.1,0.6,0,0.9
				c0,0.1,0,0.2-0.1,0.2c-0.2,0.8-0.8,1.5-1.7,1.7v0l0,0c0,0,0,0,0-0.1c0,0,0-0.1-0.1-0.1c0,0,0,0,0,0v0c0.2-0.1,0.4-0.1,0.5-0.2
				l-0.2-1.2c0,0,0,0,0,0l0,0l0.2,1.2c0,0,0,0,0,0c0,0,0,0,0,0l-0.2-1.2c0,0,0.1-0.1,0.1-0.1l0.2,1.1c0.2-0.2,0.4-0.4,0.6-0.6
				c0.3-0.5,0.5-1.1,0.4-1.8c0-0.1-0.1-0.3-0.1-0.4c0-0.1-0.1-0.2-0.1-0.3C493.5,100.1,493.5,100.1,493.5,100
				C493.5,100,493.5,100,493.5,100L493.5,100L493.5,100z M492.5,101c0,0,0-0.1,0-0.1c0,0,0,0,0,0c0,0,0,0,0-0.1c0,0,0-0.1,0-0.1
				c0,0,0,0,0,0c0,0,0,0,0-0.1c0-0.1,0.1,0,0.1,0c0,0.1,0,0.1,0,0.2c0,0,0.1,0.1,0,0.2c0,0.1,0,0.1-0.1,0.1
				C492.4,101.1,492.5,101,492.5,101C492.5,101,492.5,101,492.5,101C492.5,101,492.5,101,492.5,101z M493.2,101.3
				c0.1,0,0.2,0.1,0,0.3c0,0-0.5,0.3-1,0.5c0,0,0,0,0,0c0,0,0-0.1,0-0.1c0,0,0,0,0,0L493.2,101.3L493.2,101.3l-1,0.6
				c0,0,0,0-0.1-0.1L493.2,101.3z M492.8,100.8C492.8,100.8,492.7,100.8,492.8,100.8C492.8,100.7,492.8,100.7,492.8,100.8
				c0.1-0.1,0.1-0.1,0.1-0.1c0,0,0.1-0.1,0.1-0.1C492.8,100.7,492.9,100.8,492.8,100.8c0.1,0,0.2,0.1,0.1,0.2c0,0,0,0.1-0.1,0.1
				c-0.1,0,0-0.1,0-0.1s0,0,0.1,0c0,0,0,0-0.1,0C492.8,101,492.7,100.9,492.8,100.8C492.8,100.9,492.8,100.9,492.8,100.8
				C492.8,100.9,492.8,100.9,492.8,100.8z M492.5,99.2C492.5,99.2,492.5,99.2,492.5,99.2C492.5,99.2,492.5,99.2,492.5,99.2
				C492.5,99.2,492.5,99.2,492.5,99.2C492.5,99.2,492.5,99.3,492.5,99.2L492.5,99.2C492.5,99.3,492.5,99.3,492.5,99.2
				C492.5,99.2,492.5,99.2,492.5,99.2z M492.4,98.3c0.2,0.1,0.2,0.4,0,0.6c-0.1-0.3-0.3-0.1-0.4-0.3
				C492.2,98.5,492.2,98.4,492.4,98.3z M492.3,99c0,0-0.1,0-0.1-0.2C492.2,98.9,492.3,98.9,492.3,99z M491.9,98.9
				c0-0.1,0.1-0.2,0.1-0.1c0,0.1,0,0.3,0.2,0.3C492.1,99.1,492,99,491.9,98.9z M492.3,99.7c0,0-0.2-0.1-0.2-0.1c0,0,0,0,0,0
				c0,0,0.1-0.1,0.1-0.1c0,0,0,0,0,0c0.1,0,0.1,0,0.2,0c0,0.1,0,0.1,0,0.1C492.4,99.6,492.4,99.7,492.3,99.7z M491.9,100.6
				c0-0.1,0-0.2,0-0.2s0.2,0,0.3-0.2c0.2,0,0.2-0.1,0.3-0.1c0,0,0.1,0,0.1-0.2c0,0,0.1-0.1,0-0.3c0,0,0.1,0,0-0.2c0,0,0-0.1,0.1-0.1
				c0,0,0.6,0.2,0.8,0.4c0.1,0,0.1,0.1,0,0.2c0,0.1-0.3,0.8-0.5,1.1c0,0,0,0-0.1,0c0,0,0,0,0,0c0-0.1,0-0.2,0-0.2c0-0.1,0-0.1,0-0.1
				c0,0,0,0,0,0l0,0l0,0c0,0,0-0.1,0-0.1c-0.1,0-0.1,0.1-0.1,0.1c-0.1,0-0.1,0.1-0.1,0.1c0,0.1,0,0.1,0,0.1c0,0,0,0-0.1,0
				c0-0.1,0-0.2,0-0.2c0.1-0.1,0-0.2,0-0.2c0-0.1,0-0.1,0-0.1c-0.1,0-0.1,0.1-0.1,0.1c-0.1,0-0.1,0.2-0.1,0.2c0,0.1,0,0.1,0,0.1
				C492,100.7,491.9,100.7,491.9,100.6z M492.4,100.9C492.4,100.9,492.4,100.9,492.4,100.9C492.4,100.9,492.4,100.9,492.4,100.9
				C492.4,100.9,492.4,100.9,492.4,100.9c0,0,0,0.2,0.1,0.2c0,0,0,0,0,0c0,0-0.1,0.1-0.2,0.2c-0.1,0-0.1,0-0.2,0.1
				C492.3,101.1,492.4,100.9,492.4,100.9z M491.9,101.9C491.9,101.9,491.9,101.9,491.9,101.9C492,101.9,492,101.9,491.9,101.9
				C492,101.9,492,101.9,491.9,101.9c0.1,0.1,0.1,0.1,0.2,0.1c0,0,0,0,0,0c0,0,0,0.1,0,0.1c0,0,0,0,0,0.1c0,0,0,0,0,0.1
				c0,0.1,0,0.1-0.1,0.1c0,0,0,0,0-0.1c0,0,0,0,0-0.1c0,0,0,0,0,0c0,0,0-0.1,0-0.2c0,0,0,0,0,0c0,0,0,0,0,0
				C491.9,102,491.9,102,491.9,101.9C491.9,101.9,491.9,101.9,491.9,101.9C491.8,101.9,491.9,101.9,491.9,101.9z M491.6,102
				c0,0,0-0.1,0.2-0.1c0,0,0,0.1,0,0.1c0,0,0.1-0.1,0.2,0c0,0,0,0,0,0c0,0-0.1,0-0.1,0.1c0,0,0,0,0.1,0c0,0,0,0,0,0c0,0,0,0,0,0
				c0,0,0,0.1,0,0.2c0,0,0,0,0,0c0,0-0.1,0-0.1,0s0,0,0.1,0c0,0,0,0,0,0c0,0.1-0.1,0.2-0.2,0.1c0,0,0,0,0,0c0,0,0,0,0-0.1
				c0-0.1,0-0.1,0-0.2c0,0,0,0,0,0c0,0,0,0,0,0c0,0-0.1,0-0.1,0C491.6,102.1,491.6,102.1,491.6,102c0,0.1-0.1,0.1-0.2,0.1
				C491.4,102.1,491.4,102,491.6,102z M491.8,102.2C491.8,102.2,491.7,102.3,491.8,102.2c0,0.1,0,0.1,0,0.1c0,0,0,0,0,0
				c-0.1,0.1-0.2,0.1-0.3,0.1c0,0,0-0.1,0-0.1c0,0,0,0,0-0.1L491.8,102.2C491.7,102.2,491.7,102.2,491.8,102.2
				C491.7,102.2,491.7,102.2,491.8,102.2z M491.1,102c0,0,0.1,0.1,0.2,0c0,0,0.1,0.1,0.2-0.1c0,0,0,0,0,0c-0.2,0.1-0.2,0.2-0.2,0.2
				s-0.1-0.1-0.3,0.1l0,0L491.1,102C491,102,491,102,491.1,102z M490.9,102l0.1,0.2l0,0c-0.1,0.1-0.1,0.3,0,0.5c0,0-0.1,0-0.1,0
				c0,0,0,0,0,0l-0.1-0.2l-0.1-0.1c0,0,0-0.1,0.1-0.1l0.1-0.1c0,0,0,0,0,0C490.9,102,490.9,102,490.9,102z M490.7,102.8l-0.1-0.2
				l0,0c0-0.1,0.1-0.2,0.1-0.3l0.1,0.1l0.1,0.2l0,0C490.8,102.8,490.7,102.9,490.7,102.8z M491,103.2c0,0,0.1,0.3,0,0.3
				c-0.2,0-0.5-0.7-0.5-0.7c0,0,0,0,0-0.1c0,0.1,0.1,0.2,0.1,0.2c0,0,0,0,0.1,0C490.8,102.9,490.9,103.1,491,103.2z M490.3,99.7
				c0,0,0.1,0.1,0.4-0.1c0,0,0.1,0.2,0.4,0c0,0,0.1,0.2,0.3,0c0,0,0.1,0.2,0.3-0.1c0,0-0.2,0.2-0.2,0c0,0-0.3,0.3-0.4,0.1
				c0,0-0.3,0.3-0.4,0c-0.1,0.2-0.4,0.2-0.4,0c0-0.1,0.5-0.5,1-0.4c0.5,0.1,0.6,0.4,0.5,0.6c-0.1,0.2-0.3,0.4-0.3,0.3
				c-0.1,0,0-0.1,0.1-0.2c0.1-0.2,0.1-0.3,0.1-0.3s-0.1,0.2-0.1,0.3c-0.1,0.1-0.2,0.3-0.3,0.3c-0.1,0,0-0.1,0-0.2
				c0.1-0.2,0.1-0.3,0.1-0.3s-0.1,0.3-0.2,0.3c-0.1,0.1-0.2,0.3-0.4,0.3c-0.1,0,0-0.1,0-0.2c0.2-0.3,0.2-0.4,0.2-0.4
				s-0.1,0.3-0.2,0.4c-0.1,0.1-0.3,0.4-0.4,0.3c-0.2-0.1,0.2-0.4,0.2-0.7c-0.3,0.4-0.4,0.7-0.6,0.7C489.8,100.5,490,100,490.3,99.7z
				 M489.8,101.5c0.2,0,0.5-0.7,0.5-0.9C490.2,100.9,489.9,101.4,489.8,101.5c-0.1-0.1,0-0.7,0.1-0.9c0,0,0.2,0.1,0.4-0.1
				c0,0,0.1,0.2,0.4-0.1c0,0,0.1,0.2,0.4-0.1c0,0,0.1,0.2,0.3-0.1c0,0,0.1,0.1,0.2,0c0,0-0.1,0.7-0.5,1.3c-0.1,0.1-0.2,0.3-0.3,0.3
				c-0.1,0,0-0.1,0.1-0.3c0.4-0.6,0.4-1.1,0.4-1.1s-0.1,0.7-0.5,1.3c0,0.1-0.2,0.2-0.3,0.2c-0.1,0,0-0.2,0.1-0.3
				c0.4-0.6,0.4-1.1,0.4-1.1s-0.2,0.6-0.5,1.1c0,0.1-0.2,0.3-0.4,0.3c-0.1,0,0-0.3,0.1-0.3c0.4-0.5,0.4-1.1,0.4-1.1
				s-0.2,0.7-0.5,1.1c-0.1,0.1-0.3,0.3-0.3,0.2C489.7,101.8,489.8,101.5,489.8,101.5z M490,103.4c-0.1,0-0.1-0.3-0.1-0.3
				c0.2-0.1,0.4-0.7,0.4-0.9c0,0-0.4,0.9-0.5,0.9c-0.1,0-0.1-0.4-0.1-0.4s0.2,0,0.3-0.6c0,0-0.1,0.4-0.3,0.5c-0.2,0,0-0.6,0-0.6
				s0.1,0,0.1-0.1c0,0.2,0.2,0.2,0.4,0c0,0.1,0.2,0.1,0.4-0.1c0,0,0,0.1,0.1,0C490.5,102.5,490.2,103.4,490,103.4z M490.9,103.7
				C490.9,103.7,490.9,103.7,490.9,103.7c-0.3-0.1-0.6-0.2-0.8-0.3c0,0,0.1-0.1,0.1-0.1c0.1,0.1,0.2,0.1,0.3,0.2
				c0.1,0,0.1,0,0.2,0.1c0.1,0,0.1,0,0.2,0C490.9,103.6,490.9,103.6,490.9,103.7C490.9,103.7,490.9,103.7,490.9,103.7L490.9,103.7
				L490.9,103.7z M491,103.5c0,0,0.5,1.2,0.7,1.4c0,0.1-0.3,0.1-0.5-0.5c-0.2-0.6-0.3-0.9-0.3-0.9S491,103.6,491,103.5z
				 M491.1,103.1c-0.1,0.1-0.3-0.3-0.3-0.3s0.1-0.1,0.1-0.2c0,0,0,0.1,0.1,0C491,102.7,491.2,103.1,491.1,103.1z M491.1,102.9
				c0,0-0.1-0.1-0.1-0.1c0.1,0.1,0.2,0.1,0.2,0.1C491.2,102.9,491.1,102.9,491.1,102.9z M491.3,102.8c-0.1,0-0.2-0.1-0.2-0.2
				c0-0.2,0-0.3,0.1-0.3c0.1,0,0.2,0.1,0.2,0.2C491.4,102.6,491.3,102.7,491.3,102.8z M491.5,102.2
				C491.5,102.1,491.5,102.1,491.5,102.2C491.6,102.1,491.6,102.1,491.5,102.2c0.1,0,0.1,0,0.1,0l-0.2,0.1c0,0,0,0-0.1-0.1
				L491.5,102.2z M492.5,104.6c-0.5-1-1.1-1.8-1.1-1.8s0.1,0,0.1-0.1C491.9,103.4,492.7,104.5,492.5,104.6z"/>
			<path class="st0" d="M492.4,105.1C492.4,105.1,492.4,105.1,492.4,105.1C492.4,105.1,492.4,105.1,492.4,105.1c0,0.3,0.1,0.5,0,0.5
				c-0.1,0-0.1,0-0.2-0.2c0,0,0,0,0,0.1c0.1,0.1,0.2,0.2,0.3,0.2c0,0,0,0,0,0c0,0,0.1,0,0.1,0c0.2-0.1,0-0.5,0-0.5
				c0,0.1,0.1,0,0.2-0.1c0-0.1,0-0.2,0-0.2c-0.1,0-0.1,0.1-0.2,0.1C492.6,105.1,492.4,105.2,492.4,105.1z"/>
			<path class="st0" d="M492.2,105.3C492.2,105.3,492.2,105.3,492.2,105.3c0,0.1,0.1,0.2,0.1,0.3
				C492.3,105.5,492.3,105.4,492.2,105.3z"/>
			<path class="st0" d="M491.9,98.5C491.9,98.5,491.9,98.5,491.9,98.5c0-0.1,0.1-0.1,0.1-0.2c0,0,0,0,0-0.1c0,0-0.1-0.1-0.1,0
				c0,0,0,0.1,0,0.1c0,0,0-0.1-0.1,0c0,0,0,0.1,0,0.1c0,0,0,0,0,0c0,0,0,0,0,0c0,0,0,0,0,0c0,0,0,0,0,0c0,0,0,0,0,0c0,0,0,0,0,0
				c0,0,0,0,0,0c0.1-0.1,0.1,0,0.2,0c-0.1-0.2-0.2-0.1-0.2,0c0,0,0-0.1,0-0.1C491.6,98.4,491.9,98.5,491.9,98.5z"/>
			<polygon class="st0" points="491.9,98.3 491.9,98.3 491.9,98.3 			"/>
			<path class="st0" d="M492.5,98.6c0,0.1,0,0.2,0,0.3C492.5,98.8,492.5,98.7,492.5,98.6c0-0.1,0-0.2-0.1-0.2c0,0-0.1,0-0.1,0
				C492.4,98.4,492.5,98.5,492.5,98.6z"/>
			<path class="st0" d="M491.1,102.3c0,0-0.1,0.1,0,0.2c0,0.1,0.1,0.2,0.1,0.1c0,0,0.1-0.1,0-0.2
				C491.2,102.3,491.2,102.3,491.1,102.3z"/>
			<path class="st0" d="M492.4,100.3L492.4,100.3l0,0.1l0,0l0,0L492.4,100.3L492.4,100.3l0.1,0.1l0,0l0,0l0,0L492.4,100.3
				C492.5,100.4,492.5,100.3,492.4,100.3C492.5,100.3,492.5,100.3,492.4,100.3C492.5,100.3,492.5,100.3,492.4,100.3
				C492.5,100.3,492.5,100.3,492.4,100.3C492.5,100.3,492.5,100.3,492.4,100.3C492.5,100.3,492.5,100.3,492.4,100.3
				C492.5,100.3,492.5,100.3,492.4,100.3C492.5,100.3,492.5,100.3,492.4,100.3z M492.5,100.3L492.5,100.3
				C492.5,100.3,492.5,100.3,492.5,100.3C492.5,100.3,492.5,100.3,492.5,100.3C492.5,100.3,492.5,100.3,492.5,100.3L492.5,100.3
				L492.5,100.3C492.5,100.3,492.5,100.3,492.5,100.3C492.5,100.3,492.5,100.3,492.5,100.3C492.5,100.4,492.5,100.4,492.5,100.3
				C492.5,100.4,492.5,100.4,492.5,100.3L492.5,100.3L492.5,100.3L492.5,100.3C492.5,100.3,492.5,100.3,492.5,100.3
				C492.5,100.3,492.5,100.3,492.5,100.3z"/>
			<polygon class="st0" points="493,99.9 493,99.9 493,99.9 492.9,100 492.9,100 492.9,100 493,100 493,100.1 493,100 493,100 
				493,99.9 493,99.9 			"/>
			<path class="st0" d="M493,99.9C493,99.9,493,99.9,493,99.9C493.1,99.9,493.1,99.9,493,99.9C493.1,99.9,493.1,99.9,493,99.9
				C493.1,99.9,493.1,99.9,493,99.9C493.1,99.9,493.1,99.9,493,99.9C493.1,99.9,493.1,99.9,493,99.9C493.1,99.9,493.1,99.9,493,99.9
				c0.1,0,0.1,0,0.1,0c0,0,0,0,0,0c0,0,0,0,0,0c0,0,0,0,0,0C493.2,99.9,493.1,99.9,493,99.9C493.1,100,493.1,100,493,99.9
				C493.1,100,493.1,100,493,99.9C493.1,100,493.1,100,493,99.9L493,99.9L493,99.9L493,99.9L493,99.9L493,99.9L493,99.9
				C493.1,100,493.1,100,493,99.9c0.1,0.1,0.1,0.1,0.1,0.1c0,0,0,0,0,0c0,0,0,0,0,0c0,0,0,0,0,0l0,0c0,0,0,0,0,0l0,0l0,0
				c0,0,0,0,0,0C493.1,99.9,493.1,99.9,493,99.9C493.1,99.9,493.1,99.9,493,99.9C493.1,99.9,493.1,99.9,493,99.9
				C493.1,99.9,493.1,99.9,493,99.9C493.1,99.9,493.1,99.9,493,99.9C493.1,99.9,493.1,99.9,493,99.9C493.1,99.9,493.1,99.9,493,99.9
				C493.1,99.9,493.1,99.9,493,99.9C493.1,99.9,493.1,99.9,493,99.9C493.1,99.9,493.1,99.9,493,99.9C493.1,99.9,493.1,99.9,493,99.9
				C493.1,99.9,493.1,99.9,493,99.9C493.1,99.9,493.1,99.9,493,99.9L493,99.9L493,99.9L493,99.9L493,99.9L493,99.9
				C493.1,99.8,493.1,99.8,493,99.9C493.1,99.8,493.1,99.8,493,99.9C493.1,99.9,493,99.9,493,99.9C493,99.9,493,99.9,493,99.9z"/>
			<polygon class="st0" points="492.9,100.1 492.9,100.1 492.9,100 492.9,100 492.9,100 492.9,100 492.9,100 492.8,100.1 
				492.8,100.1 492.8,100.1 492.8,100 492.9,100.1 			"/>
			<path class="st0" d="M492.8,100.2C492.8,100.1,492.8,100.1,492.8,100.2C492.8,100.1,492.8,100.1,492.8,100.2
				C492.8,100.1,492.8,100.1,492.8,100.2L492.8,100.2L492.8,100.2C492.8,100.1,492.8,100.1,492.8,100.2
				C492.7,100.1,492.7,100.1,492.8,100.2c-0.1-0.1-0.1,0-0.1,0c0,0,0,0,0,0c0,0,0,0,0,0c0,0,0,0,0,0l0,0c0,0,0,0,0,0c0,0,0,0,0,0
				C492.7,100.2,492.7,100.2,492.8,100.2C492.8,100.2,492.8,100.2,492.8,100.2C492.8,100.2,492.8,100.2,492.8,100.2
				C492.8,100.2,492.8,100.2,492.8,100.2C492.8,100.2,492.8,100.2,492.8,100.2C492.8,100.2,492.8,100.2,492.8,100.2
				C492.8,100.2,492.8,100.2,492.8,100.2L492.8,100.2z M492.8,100.2C492.8,100.2,492.8,100.2,492.8,100.2
				C492.8,100.2,492.8,100.2,492.8,100.2C492.7,100.2,492.7,100.2,492.8,100.2C492.7,100.2,492.7,100.2,492.8,100.2
				C492.7,100.2,492.7,100.2,492.8,100.2C492.7,100.1,492.7,100.1,492.8,100.2C492.7,100.1,492.7,100.1,492.8,100.2
				C492.8,100.1,492.8,100.1,492.8,100.2C492.8,100.1,492.8,100.1,492.8,100.2L492.8,100.2L492.8,100.2
				C492.8,100.2,492.8,100.2,492.8,100.2C492.8,100.2,492.8,100.2,492.8,100.2C492.8,100.2,492.8,100.2,492.8,100.2z"/>
			<path class="st0" d="M492.4,100.5L492.4,100.5L492.4,100.5L492.4,100.5L492.4,100.5L492.4,100.5L492.4,100.5L492.4,100.5
				L492.4,100.5L492.4,100.5L492.4,100.5L492.4,100.5L492.4,100.5z M492.3,100.4L492.3,100.4L492.3,100.4L492.3,100.4z"/>
			<polygon class="st0" points="492.6,100.3 492.6,100.3 492.6,100.3 492.7,100.3 492.7,100.3 492.7,100.3 492.7,100.3 492.6,100.2 
				492.6,100.2 492.6,100.2 492.7,100.3 492.6,100.2 492.5,100.2 492.6,100.4 			"/>
			<path class="st0" d="M492.7,99.4L492.7,99.4C492.7,99.4,492.7,99.5,492.7,99.4L492.7,99.4L492.7,99.4L492.7,99.4
				C492.8,99.4,492.8,99.4,492.7,99.4C492.8,99.4,492.8,99.4,492.7,99.4C492.7,99.4,492.7,99.4,492.7,99.4
				C492.7,99.4,492.7,99.4,492.7,99.4C492.7,99.4,492.7,99.4,492.7,99.4L492.7,99.4C492.7,99.4,492.7,99.4,492.7,99.4z"/>
			<path class="st0" d="M492.7,99.5C492.7,99.5,492.7,99.5,492.7,99.5L492.7,99.5L492.7,99.5L492.7,99.5
				C492.7,99.5,492.7,99.5,492.7,99.5L492.7,99.5L492.7,99.5L492.7,99.5L492.7,99.5C492.7,99.5,492.6,99.5,492.7,99.5
				C492.7,99.5,492.7,99.5,492.7,99.5C492.7,99.5,492.7,99.5,492.7,99.5z"/>
			<path class="st0" d="M492.8,99.8L492.8,99.8C492.8,99.8,492.8,99.8,492.8,99.8L492.8,99.8L492.8,99.8L492.8,99.8
				C492.8,99.8,492.8,99.8,492.8,99.8C492.8,99.7,492.8,99.7,492.8,99.8C492.8,99.7,492.8,99.7,492.8,99.8
				C492.8,99.7,492.8,99.7,492.8,99.8C492.8,99.7,492.8,99.7,492.8,99.8L492.8,99.8C492.8,99.8,492.8,99.8,492.8,99.8z"/>
			<path class="st0" d="M493,99.7C493,99.7,493,99.7,493,99.7L493,99.7L493,99.7L493,99.7C493,99.7,493,99.7,493,99.7L493,99.7
				L493,99.7L493,99.7L493,99.7L493,99.7L493,99.7C493,99.7,493,99.7,493,99.7C493,99.7,493,99.7,493,99.7
				C493,99.7,493,99.7,493,99.7z"/>
			<path class="st0" d="M493,99.6L493,99.6C493,99.6,493,99.6,493,99.6L493,99.6L493,99.6L493,99.6C493.1,99.6,493.1,99.6,493,99.6
				C493.1,99.6,493.1,99.6,493,99.6C493,99.6,493,99.6,493,99.6C493,99.6,493,99.6,493,99.6C493,99.6,493,99.6,493,99.6L493,99.6
				C493,99.6,493,99.6,493,99.6z"/>
			<path class="st0" d="M492.9,99.6C492.9,99.6,492.9,99.6,492.9,99.6L492.9,99.6L492.9,99.6L492.9,99.6
				C492.8,99.6,492.8,99.6,492.9,99.6L492.9,99.6L492.9,99.6L492.9,99.6L492.9,99.6C492.8,99.6,492.8,99.6,492.9,99.6
				C492.8,99.6,492.8,99.6,492.9,99.6C492.8,99.6,492.8,99.6,492.9,99.6z"/>
			<path class="st0" d="M492.9,99.8L492.9,99.8C492.9,99.8,493,99.8,492.9,99.8L492.9,99.8L492.9,99.8L492.9,99.8
				C493,99.8,493,99.8,492.9,99.8C493,99.8,493,99.8,492.9,99.8C493,99.8,492.9,99.8,492.9,99.8C492.9,99.8,492.9,99.8,492.9,99.8
				C492.9,99.8,492.9,99.8,492.9,99.8L492.9,99.8C492.9,99.8,492.9,99.8,492.9,99.8z"/>
			<path class="st0" d="M492.9,99.5L492.9,99.5C492.9,99.5,492.9,99.6,492.9,99.5L492.9,99.5L492.9,99.5L492.9,99.5
				C492.9,99.5,492.9,99.5,492.9,99.5C492.9,99.5,492.9,99.5,492.9,99.5C492.9,99.5,492.9,99.5,492.9,99.5
				C492.9,99.5,492.9,99.5,492.9,99.5C492.9,99.5,492.9,99.5,492.9,99.5L492.9,99.5C492.9,99.5,492.9,99.5,492.9,99.5z"/>
			<path class="st0" d="M492,100.5L492,100.5L492,100.5L492,100.5L492,100.5C492,100.5,492,100.5,492,100.5
				C492,100.6,492,100.6,492,100.5C492.1,100.6,492.1,100.6,492,100.5L492,100.5C492.1,100.6,492.1,100.6,492,100.5L492,100.5
				L492,100.5L492,100.5C492.1,100.6,492.1,100.5,492,100.5z"/>
			<path class="st0" d="M492.2,100.6L492.2,100.6L492.2,100.6L492.2,100.6L492.2,100.6C492.2,100.6,492.2,100.6,492.2,100.6
				C492.2,100.6,492.2,100.6,492.2,100.6C492.2,100.7,492.2,100.7,492.2,100.6C492.3,100.7,492.3,100.6,492.2,100.6L492.2,100.6
				L492.2,100.6L492.2,100.6C492.2,100.6,492.2,100.6,492.2,100.6z"/>
			<path class="st0" d="M492.2,100.4L492.2,100.4L492.2,100.4L492.2,100.4C492.2,100.4,492.2,100.4,492.2,100.4L492.2,100.4
				L492.2,100.4L492.2,100.4L492.2,100.4L492.2,100.4L492.2,100.4C492.2,100.3,492.2,100.4,492.2,100.4
				C492.2,100.4,492.2,100.4,492.2,100.4C492.2,100.4,492.2,100.4,492.2,100.4C492.2,100.4,492.2,100.4,492.2,100.4z"/>
			<path class="st0" d="M492.3,100.5C492.3,100.5,492.3,100.5,492.3,100.5C492.3,100.5,492.2,100.5,492.3,100.5L492.3,100.5
				C492.3,100.6,492.3,100.6,492.3,100.5L492.3,100.5C492.3,100.6,492.3,100.6,492.3,100.5L492.3,100.5L492.3,100.5L492.3,100.5
				C492.3,100.6,492.3,100.6,492.3,100.5C492.3,100.5,492.3,100.5,492.3,100.5C492.3,100.5,492.3,100.5,492.3,100.5z"/>
			<path class="st0" d="M492.1,100.5C492.1,100.5,492.1,100.5,492.1,100.5C492.1,100.5,492.1,100.5,492.1,100.5L492.1,100.5
				C492.1,100.5,492.1,100.5,492.1,100.5L492.1,100.5C492.1,100.5,492.1,100.5,492.1,100.5L492.1,100.5L492.1,100.5L492.1,100.5
				C492.1,100.5,492.1,100.5,492.1,100.5C492.1,100.5,492.1,100.5,492.1,100.5C492.1,100.5,492.1,100.5,492.1,100.5z"/>
			<path class="st0" d="M492.4,100.3C492.4,100.3,492.4,100.3,492.4,100.3L492.4,100.3L492.4,100.3L492.4,100.3
				C492.4,100.3,492.4,100.2,492.4,100.3L492.4,100.3L492.4,100.3L492.4,100.3L492.4,100.3C492.4,100.2,492.4,100.2,492.4,100.3
				C492.4,100.3,492.4,100.3,492.4,100.3C492.4,100.3,492.4,100.3,492.4,100.3z"/>
			<path class="st0" d="M492.2,100.3L492.2,100.3C492.2,100.3,492.2,100.3,492.2,100.3L492.2,100.3L492.2,100.3L492.2,100.3
				C492.3,100.3,492.3,100.3,492.2,100.3C492.3,100.3,492.3,100.3,492.2,100.3C492.2,100.3,492.2,100.3,492.2,100.3
				C492.2,100.3,492.2,100.3,492.2,100.3C492.2,100.3,492.2,100.3,492.2,100.3L492.2,100.3C492.2,100.3,492.2,100.3,492.2,100.3z"/>
			<path class="st0" d="M492.4,100.2L492.4,100.2C492.4,100.2,492.4,100.2,492.4,100.2C492.4,100.2,492.4,100.2,492.4,100.2
				L492.4,100.2L492.4,100.2L492.4,100.2C492.5,100.2,492.5,100.2,492.4,100.2C492.5,100.2,492.5,100.2,492.4,100.2
				C492.5,100.2,492.4,100.2,492.4,100.2C492.4,100.2,492.4,100.2,492.4,100.2C492.4,100.2,492.4,100.2,492.4,100.2L492.4,100.2
				C492.4,100.2,492.4,100.2,492.4,100.2z"/>
			<path class="st0" d="M492.7,100.1L492.7,100.1C492.7,100.1,492.7,100.1,492.7,100.1L492.7,100.1L492.7,100.1L492.7,100.1
				C492.7,100,492.7,100,492.7,100.1L492.7,100.1L492.7,100.1L492.7,100.1L492.7,100.1L492.7,100.1L492.7,100.1
				C492.6,100,492.6,100,492.7,100.1C492.6,100,492.6,100.1,492.7,100.1C492.7,100.1,492.7,100.1,492.7,100.1z"/>
			<path class="st0" d="M492.9,99.9L492.9,99.9L492.9,99.9L492.9,99.9L492.9,99.9C492.9,99.9,492.9,99.9,492.9,99.9
				C492.9,99.9,492.9,99.9,492.9,99.9C492.9,99.9,492.9,99.9,492.9,99.9C492.9,99.9,492.9,99.9,492.9,99.9L492.9,99.9L492.9,99.9
				L492.9,99.9C492.9,99.9,492.9,99.9,492.9,99.9z"/>
			<path class="st0" d="M493.2,99.8L493.2,99.8C493.2,99.8,493.2,99.8,493.2,99.8L493.2,99.8L493.2,99.8L493.2,99.8
				C493.2,99.8,493.2,99.8,493.2,99.8L493.2,99.8L493.2,99.8L493.2,99.8L493.2,99.8L493.2,99.8L493.2,99.8
				C493.2,99.8,493.1,99.8,493.2,99.8C493.2,99.8,493.2,99.8,493.2,99.8C493.2,99.8,493.2,99.8,493.2,99.8z"/>
			<path class="st0" d="M493,100.3C493,100.3,493,100.3,493,100.3C493,100.3,492.9,100.4,493,100.3L493,100.3
				C493,100.4,493,100.4,493,100.3L493,100.3C493,100.4,493,100.4,493,100.3L493,100.3L493,100.3L493,100.3
				C493,100.4,493,100.4,493,100.3C493,100.4,493,100.4,493,100.3L493,100.3L493,100.3C493,100.3,493,100.3,493,100.3z"/>
			<path class="st0" d="M493,100.7L493,100.7L493,100.7L493,100.7L493,100.7C493,100.7,493,100.8,493,100.7
				C493,100.8,493,100.8,493,100.7C493,100.8,493,100.8,493,100.7L493,100.7C493,100.8,493,100.8,493,100.7L493,100.7L493,100.7
				L493,100.7C493,100.8,493,100.8,493,100.7z"/>
			<path class="st0" d="M493.1,100.2L493.1,100.2C493.1,100.2,493.1,100.2,493.1,100.2C493.1,100.1,493.1,100.1,493.1,100.2
				C493.1,100.1,493.1,100.1,493.1,100.2C493,100.1,493,100.1,493.1,100.2C493,100.1,493,100.1,493.1,100.2L493.1,100.2
				C493,100.2,493,100.2,493.1,100.2L493.1,100.2C493.1,100.2,493.1,100.2,493.1,100.2L493.1,100.2L493.1,100.2z"/>
			<path class="st0" d="M493,100.4L493,100.4L493,100.4C492.9,100.4,492.9,100.4,493,100.4L493,100.4L493,100.4L493,100.4L493,100.4
				C492.9,100.4,492.9,100.4,493,100.4C492.9,100.4,492.9,100.5,493,100.4C492.9,100.5,492.9,100.5,493,100.4L493,100.4
				C493,100.5,493,100.5,493,100.4L493,100.4z"/>
			<path class="st0" d="M492.9,100.6C492.9,100.6,492.9,100.6,492.9,100.6C492.9,100.6,492.9,100.6,492.9,100.6L492.9,100.6
				C492.9,100.6,492.9,100.6,492.9,100.6C492.9,100.6,492.9,100.6,492.9,100.6C492.9,100.6,492.9,100.6,492.9,100.6
				C492.9,100.6,492.9,100.6,492.9,100.6L492.9,100.6L492.9,100.6L492.9,100.6C492.9,100.6,492.9,100.6,492.9,100.6
				C492.9,100.6,492.9,100.6,492.9,100.6C492.9,100.6,492.9,100.6,492.9,100.6z"/>
			<path class="st0" d="M493,100.2C493,100.2,493,100.2,493,100.2L493,100.2L493,100.2L493,100.2C493,100.2,493,100.2,493,100.2
				L493,100.2L493,100.2L493,100.2L493,100.2C493,100.2,493,100.2,493,100.2C493,100.2,493,100.2,493,100.2
				C493,100.2,493,100.3,493,100.2L493,100.2z"/>
			<path class="st0" d="M492.7,100.3L492.7,100.3L492.7,100.3L492.7,100.3L492.7,100.3C492.7,100.3,492.7,100.4,492.7,100.3
				C492.7,100.4,492.7,100.4,492.7,100.3C492.7,100.4,492.7,100.4,492.7,100.3C492.8,100.4,492.8,100.4,492.7,100.3L492.7,100.3
				L492.7,100.3L492.7,100.3C492.7,100.4,492.7,100.4,492.7,100.3z"/>
			<path class="st0" d="M492.7,100.5C492.7,100.5,492.7,100.5,492.7,100.5C492.7,100.5,492.7,100.5,492.7,100.5L492.7,100.5
				C492.7,100.5,492.7,100.5,492.7,100.5L492.7,100.5C492.7,100.5,492.7,100.5,492.7,100.5L492.7,100.5L492.7,100.5L492.7,100.5
				C492.7,100.5,492.7,100.5,492.7,100.5C492.7,100.5,492.7,100.5,492.7,100.5C492.7,100.5,492.7,100.5,492.7,100.5z"/>
			<path class="st0" d="M492.8,99.8L492.8,99.8C492.8,99.8,492.8,99.8,492.8,99.8L492.8,99.8L492.8,99.8L492.8,99.8
				C492.8,99.8,492.7,99.8,492.8,99.8L492.8,99.8L492.8,99.8L492.8,99.8L492.8,99.8C492.7,99.8,492.7,99.8,492.8,99.8
				C492.7,99.8,492.7,99.8,492.8,99.8C492.7,99.9,492.8,99.9,492.8,99.8z"/>
			<path class="st0" d="M492.7,100L492.7,100L492.7,100L492.7,100C492.7,100,492.7,100,492.7,100C492.7,100,492.7,100,492.7,100
				C492.7,99.9,492.7,99.9,492.7,100C492.7,99.9,492.7,99.9,492.7,100C492.7,99.9,492.7,100,492.7,100L492.7,100
				C492.7,100,492.7,100,492.7,100L492.7,100L492.7,100C492.7,100,492.7,100,492.7,100z"/>
			<path class="st0" d="M492.8,100.3L492.8,100.3C492.8,100.3,492.8,100.3,492.8,100.3C492.8,100.3,492.8,100.3,492.8,100.3
				C492.8,100.3,492.8,100.3,492.8,100.3L492.8,100.3C492.8,100.3,492.8,100.3,492.8,100.3C492.8,100.3,492.8,100.3,492.8,100.3
				L492.8,100.3L492.8,100.3C492.8,100.3,492.8,100.3,492.8,100.3L492.8,100.3L492.8,100.3C492.8,100.3,492.8,100.3,492.8,100.3
				C492.8,100.3,492.8,100.3,492.8,100.3C492.8,100.3,492.8,100.3,492.8,100.3L492.8,100.3L492.8,100.3L492.8,100.3
				C492.8,100.3,492.8,100.3,492.8,100.3C492.8,100.3,492.8,100.3,492.8,100.3L492.8,100.3z M492.8,100.3
				C492.8,100.3,492.8,100.3,492.8,100.3L492.8,100.3C492.8,100.3,492.8,100.3,492.8,100.3L492.8,100.3
				C492.8,100.3,492.8,100.3,492.8,100.3z"/>
			<path class="st0" d="M493.3,100L493.3,100C493.3,100.1,493.3,100.1,493.3,100L493.3,100L493.3,100L493.3,100
				C493.3,100.1,493.3,100,493.3,100C493.3,100,493.3,100,493.3,100C493.3,100,493.3,100,493.3,100C493.3,100,493.3,100,493.3,100
				C493.3,100,493.3,100,493.3,100L493.3,100C493.3,100,493.3,100,493.3,100z"/>
			<path class="st0" d="M493,100.7C493,100.7,493,100.7,493,100.7C493,100.7,493,100.7,493,100.7L493,100.7
				C493,100.7,493,100.7,493,100.7L493,100.7C493,100.7,493,100.7,493,100.7L493,100.7L493,100.7L493,100.7
				C493.1,100.7,493.1,100.7,493,100.7C493.1,100.7,493.1,100.7,493,100.7C493.1,100.7,493,100.7,493,100.7z"/>
			<path class="st0" d="M493.4,99.9C493.4,99.9,493.4,99.9,493.4,99.9L493.4,99.9L493.4,99.9L493.4,99.9
				C493.3,99.9,493.3,99.9,493.4,99.9L493.4,99.9L493.4,99.9L493.4,99.9L493.4,99.9C493.3,99.9,493.3,99.9,493.4,99.9
				C493.3,99.9,493.3,99.9,493.4,99.9C493.3,99.9,493.3,99.9,493.4,99.9z"/>
			<path class="st0" d="M493.2,100.1L493.2,100.1L493.2,100.1L493.2,100.1L493.2,100.1C493.2,100.1,493.2,100.1,493.2,100.1
				C493.2,100.1,493.2,100.1,493.2,100.1C493.2,100.1,493.3,100.1,493.2,100.1C493.3,100.1,493.3,100.1,493.2,100.1L493.2,100.1
				L493.2,100.1L493.2,100.1C493.3,100.1,493.2,100.1,493.2,100.1z"/>
			<path class="st0" d="M493.2,99.7L493.2,99.7C493.2,99.7,493.2,99.7,493.2,99.7L493.2,99.7L493.2,99.7L493.2,99.7
				C493.3,99.7,493.3,99.7,493.2,99.7C493.3,99.7,493.3,99.7,493.2,99.7C493.2,99.7,493.2,99.7,493.2,99.7
				C493.2,99.7,493.2,99.7,493.2,99.7C493.2,99.7,493.2,99.7,493.2,99.7L493.2,99.7C493.2,99.7,493.2,99.7,493.2,99.7z"/>
			<path class="st0" d="M493.4,99.8L493.4,99.8C493.4,99.8,493.4,99.8,493.4,99.8L493.4,99.8L493.4,99.8L493.4,99.8
				C493.4,99.8,493.4,99.8,493.4,99.8C493.4,99.8,493.4,99.8,493.4,99.8L493.4,99.8L493.4,99.8C493.4,99.8,493.4,99.8,493.4,99.8
				C493.4,99.8,493.4,99.8,493.4,99.8C493.4,99.8,493.4,99.8,493.4,99.8L493.4,99.8C493.4,99.8,493.4,99.8,493.4,99.8z"/>
			<path class="st0" d="M493.1,100.5L493.1,100.5L493.1,100.5L493.1,100.5L493.1,100.5C493.1,100.5,493,100.5,493.1,100.5
				C493.1,100.6,493.1,100.6,493.1,100.5C493.1,100.6,493.1,100.6,493.1,100.5C493.1,100.6,493.1,100.6,493.1,100.5L493.1,100.5
				L493.1,100.5L493.1,100.5C493.1,100.5,493.1,100.5,493.1,100.5z"/>
			<path class="st0" d="M493.1,100.4C493.1,100.4,493.1,100.4,493.1,100.4C493.1,100.5,493.1,100.5,493.1,100.4L493.1,100.4
				C493.1,100.5,493.1,100.5,493.1,100.4C493.1,100.5,493.1,100.5,493.1,100.4C493.1,100.5,493.1,100.5,493.1,100.4L493.1,100.4
				L493.1,100.4L493.1,100.4C493.2,100.5,493.2,100.5,493.1,100.4C493.2,100.5,493.2,100.5,493.1,100.4
				C493.1,100.4,493.1,100.4,493.1,100.4z M493.1,100.5L493.1,100.5C493.1,100.5,493.1,100.5,493.1,100.5
				C493.1,100.5,493.1,100.5,493.1,100.5z"/>
			<path class="st0" d="M493.2,100.2L493.2,100.2C493.2,100.2,493.2,100.2,493.2,100.2C493.2,100.2,493.2,100.2,493.2,100.2
				C493.2,100.2,493.2,100.2,493.2,100.2L493.2,100.2C493.2,100.3,493.2,100.3,493.2,100.2L493.2,100.2
				C493.2,100.3,493.2,100.3,493.2,100.2C493.2,100.3,493.2,100.3,493.2,100.2L493.2,100.2L493.2,100.2L493.2,100.2
				C493.2,100.3,493.2,100.3,493.2,100.2C493.2,100.2,493.2,100.2,493.2,100.2L493.2,100.2z"/>
			<path class="st0" d="M493.2,100.3L493.2,100.3L493.2,100.3L493.2,100.3L493.2,100.3C493.1,100.3,493.1,100.3,493.2,100.3
				C493.1,100.3,493.1,100.3,493.2,100.3C493.2,100.4,493.2,100.4,493.2,100.3C493.2,100.4,493.2,100.4,493.2,100.3L493.2,100.3
				L493.2,100.3L493.2,100.3C493.2,100.3,493.2,100.3,493.2,100.3z"/>
			<path class="st0" d="M491.5,101.7c0,0-0.1-0.1-0.1-0.1C491.4,101.6,491.4,101.6,491.5,101.7C491.4,101.7,491.5,101.8,491.5,101.7
				c0,0,0.1,0,0.1-0.1c0,0,0,0,0,0C491.6,101.7,491.6,101.7,491.5,101.7z"/>
		</g>
		<g>
			<g>
				<g>
					<g>
						<g>
							<path class="st0" d="M505.2,99.7c-0.4,0.1-0.8-0.4-0.9-1c-0.1-0.6,0-1.2,0.5-1.3c0.4-0.1,0.8,0.4,0.9,1
								C505.8,99.1,505.6,99.7,505.2,99.7z"/>
						</g>
					</g>
				</g>
			</g>
			<g>
				<g>
					<path class="st0" d="M526,104.5c2.8-0.5,5.7,1.6,7.5,6.4c0.4,1.1,0.3,1.3-0.5,1.4c-1.5,0.2-4.3,0.6-5.9,0.9
						c0.9,5.8,2.2,8,4.4,7.1c1.7-0.7,2-3.6,2-5.1c0-1.2,0.9,0.2,0.9,0.2c0.2,2.7-1.3,7.5-4.3,8c-3.5,0.6-6.1-2.9-7.2-9.3
						C521.9,109.1,522.9,105,526,104.5z M526.6,111.2l3.4-0.5c0,0-1.5-5.1-3.2-4.8C525.6,106.1,526.5,110.9,526.6,111.2z"/>
					<path class="st0" d="M489.7,131.4l0.9-0.1l-0.1-0.2l-0.1-0.3l-0.1-0.1l-0.1,0c-1.4-0.7-2.3-2.6-3.3-6.8c0-0.1-0.4-1.9-0.5-2.4
						c0.2-0.1,2.7-0.7,3.2-0.8c0,0.3,1.3,6,1.5,6.6c0.3,1.6,0.4,2.6-0.1,3.3l0,0.1l0.1,0.3l0.1,0.3l0.1,0c1.1-0.1,5-0.7,6.5-1l0.2,0
						l-0.1-0.3l-0.1-0.4l-0.1,0c-1.7-0.8-2.5-3.3-3.4-7.6c0,0-0.1-0.7-0.1-0.7l-0.1-0.3c-0.6-3.1-1.1-6.2-1.4-9.4
						c-0.1-1.3-0.1-1.9,0.5-2.5l0.1,0l0-0.2l0-0.5l-0.2,0c-1.1,0.2-3.8,1-5.2,1.4l-0.1,0l0,0.6l0.1,0c0.3,0.1,0.5,0.3,0.6,0.7
						c0.1,0.3,0.2,2.1,0.2,2.1c0.1,1.5,0.1,2.3,0.6,5.1c-0.8,0.3-2.9,0.9-3.2,0.9c-0.4-2.7-0.5-5.7-0.5-5.7c0-1.2,0-1.9,0.6-2.5l0,0
						l0-0.7l-0.2,0c-1,0.2-3.4,1.1-4.4,1.5l-0.1,0l0,0.6l0.1,0c0.4,0.2,0.5,0.6,0.5,1.7l0,0.2c0.1,3,0.4,5.9,1,8.8l0.3,1.3
						c0.2,1,0.5,1.9,0.7,2.7c0.6,2.1,1,3.5,0.6,4.3l0,0.1l0,0.1l0.2,0.4C486.5,132,489.1,131.5,489.7,131.4z"/>
					<path class="st0" d="M510.6,125.9l-0.1-0.7l-0.1,0c-1-0.8-1.2-1.8-1.4-3.2c-0.5-2.9-0.9-5.5-1.4-8c-0.7-3.6-1.6-5.6-3-6.6
						c-1.1-0.8-2.4-0.9-4.3-0.5c-2,0.5-3.8,1.5-5.4,3l-0.1,0.1l0,0.1c0.5,2,1,3.8,1.6,5.6l0,0.1l0.4-0.1l0.3-0.1l0-0.1
						c-0.1-4.2,0.9-6.8,2.7-7.2c0.5-0.1,0.9,0,1.2,0.2c0.6,0.5,1.1,1.5,1.4,3.1c0,0.1,0,0.2,0.1,0.3l0.2,1.3c0,0,0.1,0.5,0.1,0.7
						c-0.3,0-0.6,0.1-0.8,0.1l-0.1,0c-5,1.1-7.3,4.4-6.3,8.9c0.8,3.7,3.4,5.9,6.4,5.4c1.7-0.3,2.7-1.4,3.2-3.4
						c0.2,0.5,0.5,1.4,0.5,1.4l0.2,0.5l0.1,0C507.3,126.9,509.8,126.3,510.6,125.9L510.6,125.9z M503.4,116.5l0.4,2.3
						c0.8,4.3,0.5,7-0.8,7.3c-0.3,0.1-0.6,0-0.9-0.2c-0.7-0.5-1.3-1.7-1.6-3.3l0,0c0,0,0-0.1,0-0.1c-0.8-3.9,0.2-6.3,2.7-6.9
						C503.2,115.8,503.4,116.5,503.4,116.5z"/>
					<path class="st0" d="M477.9,120.3c-2.7-1.4-3.2-2.8-3.5-3.8l0,0c-0.3-1-0.1-2.5,0.6-3.4c0.3-0.4,0.8-0.8,1.5-0.8
						c1.4,0.1,2.1,3.6,2.2,4.9l0,0.2l0.8-0.1l0-0.1c0-1,0.4-4.8,0.7-6l0-0.1l-0.1-0.1c0,0-1.2-0.5-2.1-0.5c-1.8-0.1-3.4,0.5-4.6,1.8
						c-1.4,1.4-2.1,3.6-2,5.8c0.1,3.1,1.9,5.9,4.5,7.1c2.2,1,3.5,3.1,3.9,4.6c0.2,0.9,0.2,2.2-0.3,2.8c-0.2,0.3-0.5,0.4-0.9,0.4
						c-2.8-0.1-4.8-5.9-4.8-5.9l0-0.1l-0.6-0.1l1.4,6.1l0,0c0.1,0.1,2.8,2.1,5.4,1.3c2.5-0.8,3.4-3.4,2.7-7.7
						C482.3,124.6,481.2,121.9,477.9,120.3z"/>
					<path class="st0" d="M535.2,102.7c-1.2,0.2-2.6,1.6-2.2,3.9c1,6.3,6.6,7.3,7.2,10.6c0.2,1.6-0.3,3-1.4,3.2
						c-0.9,0.1-2-0.5-2.7-5.2c-0.4-0.1-0.5-0.1-0.5-0.1s-0.1,3.3-0.8,5.6c0.7,1.1,2.4,1.4,3.4,1.3c1.7-0.3,4.6-2.1,3.8-7.2
						c-0.8-5.1-5.9-5.9-6.5-9.3c-0.2-1,0.4-1.7,0.8-1.8c1.2-0.2,2.4,1.7,3.1,4.3c0.4,0,0.8-0.1,0.8-0.1s-0.7-3-1.3-4.2
						C537.5,102.5,536,102.5,535.2,102.7z"/>
					<path class="st0" d="M522.8,113.7c0.5-2.1,0-4.3-0.3-5c-1.6-4.2-4.3-5.8-9.5-5.2l-1.7,0.2c-1.6,0.2-3.7,0.5-5.2,0.7l-0.2,0
						l0,0.2l0,0.2l0.1,0.4l0.1,0c1,0.4,1.2,1.1,1.6,2.8c1,4,1.8,8.2,2.6,12.5l0.2,1.1l0.1,0.7c0.9,5.6,1,7.7-0.4,9.3l-0.1,0.1
						l0.1,0.5l0,0.3l0.1,0c1.6-0.2,6.2-1.2,7.7-1.9l0.1,0l0-0.7l-0.1,0c-1.2-0.7-1.4-2.3-2-6.2l-0.4-2.5c0,0-0.2-1.2-0.2-1.2l-0.2-1
						c0,0,0-0.3-0.1-0.5c0.8,0,1.5-0.1,2.1-0.2c2.2-0.4,3.8-1.6,4.7-3.3C522.5,114.5,522.7,114.1,522.8,113.7 M517.8,115.3
						c-0.3,0.6-0.8,1-1.4,1.1c-0.3,0.1-0.7,0-1.3-0.1c-0.7-3.8-1.7-7.5-2.8-11c0.3-0.1,0.5-0.1,0.8-0.2c2.3-0.3,3.7,1.1,4.7,4.6
						c0.1,0.4,0.2,0.7,0.3,1.1C518.5,112.7,518.4,114.3,517.8,115.3z"/>
				</g>
				<g>
					<path class="st0" d="M541.6,106.6l-0.2,0l0-0.2l0.6-0.1l0,0.2l-0.2,0l0.1,0.7l-0.2,0L541.6,106.6z M542.9,106.5L542.9,106.5
						l-0.1,0.7l-0.2,0l-0.3-0.6h0l0.1,0.7l-0.2,0l-0.2-1l0.3-0.1l0.3,0.5h0l0-0.6l0.3-0.1l0.2,1l-0.2,0L542.9,106.5z"/>
				</g>
			</g>
		</g>
		<path class="st0" d="M505.2,99.6c-0.4,0.1-0.8-0.4-0.9-1c-0.1-0.6,0-1.2,0.5-1.3c0.4-0.1,0.8,0.4,0.9,1
			C505.8,99,505.7,99.6,505.2,99.6"/>
		<path class="st0" d="M505.2,99.8c-0.5,0.1-0.9-0.4-1-1.1c-0.1-0.8,0.1-1.4,0.5-1.4c0.5-0.1,0.9,0.4,1,1.1
			C505.9,99.1,505.7,99.7,505.2,99.8"/>
	</g>
	<path class="st0" d="M4.9,12.3v74.2c0,11,6.4,16.8,10.7,19.3l32.1,18.6l32.1-18.6c4.3-2.5,10.7-8.3,10.7-19.3V23h474.6V12.3H79.8
		v74.2c0,5.7-2.9,8.6-5.4,10L47.7,112L20.9,96.5c-2.5-1.4-5.4-4.3-5.4-10V23h14.3V12.3H4.9z M204.9,83v2.1h-12.1l-2.4-7.9H181l3-9.6
		h3.4L183,53.5l-9.8,31.6h-12v-2l16.2-44.1h11.1L204.9,83z M251.7,38.9h11.9v46.2h-11.9V38.9z M499.1,38.9v46.2h-11.9L461,38.9h11.2
		l15.1,26.6V38.9H499.1z M460.1,47.8l12,21v16.3h-12V47.8z M133.1,67.2l-22.3-12.9V38.7l22.3,12.9l22.3-12.9v15.7L133.1,67.2z
		 M155.4,85.1h-13.1V67.9l13.1-7.7V85.1z M124,85.1h-13.1v-25l13.1,7.7V85.1z M342.5,85.1h-12V38.9h12L342.5,85.1z M367.3,83v2.1
		h-12l-7.7-15.8l0,0v-9.6h1c4,0,5.9-1.9,5.9-5.6c0-3.5-1.8-5.6-5.7-5.6h-1.3v-9.6h1.3c10.9,0,17.7,4.9,17.7,14.1
		c0,7.2-3,10.8-7.8,13.1L367.3,83z M291.9,38.4c10.4,1.1,15.8,8,16.5,16.8h-11.9c-0.1-3.8-1.3-6.1-4.6-6.8L291.9,38.4z M291.9,75.7
		c3-0.7,4.4-2.8,4.5-6.4h11.9c-0.4,8.8-6.5,15.3-16.5,16.4L291.9,75.7 M286.8,85.6c-11.1-1-17.5-9.4-17.5-22.7v-1.9
		c0-13.3,6.9-21.7,17.5-22.8v9.9c-3.7,0.9-5.4,4.6-5.4,12.8V63c0,8.2,1.3,11.9,5.4,12.8L286.8,85.6z M205.9,59.8
		c0.5-13.9,8.5-21.6,19.9-21.6c12.9,0,18.1,6.6,19.1,16.1h-11.6c-0.6-4.4-2.5-6.5-7.2-6.5c-4.9,0-7.9,3.8-8.2,12H205.9z M245,60.9
		v18.4c-2.5,2.7-8.4,6.5-18.5,6.5c-11.9,0-19.8-7.3-20.5-20.8H218c0.4,7.6,3.2,11.2,9.2,11.2c3.3,0,4.8-0.8,5.7-1.5v-6.3h-7.1v-8.5
		h17.3L245,60.9z M370.1,59.6c0.8-13.2,8.9-21.2,20.4-21.2s19.6,7.9,20.4,21.2h-12.1c-0.4-7.6-3.3-11.4-8.2-11.4
		c-5.1,0-7.9,3.8-8.2,11.4H370.1z M410.8,64.7c-0.7,13.3-9,21.2-20.3,21.2s-19.7-7.9-20.4-21.2h12.2c0.4,7.5,3.2,11.4,8.3,11.4
		c4.9,0,7.7-4,8.2-11.4L410.8,64.7z M517.8,85.1h-11.9V38.9h11.9V85.1z M522.5,39c11.8,0.8,19.9,9.7,19.9,22.4v1.4
		c0,12.7-8.2,21.6-19.9,22.3v-9.6c5.2-0.7,7.8-4.9,7.8-12.7v-1.4c0-7.8-2.5-11.9-7.8-12.6V39 M432,85.6c-9.5-0.9-15.8-6.7-15.8-16.7
		v-30h12v30c0,4,1.3,6.1,3.8,6.9V85.6z M452.9,38.9v30c0,10-6.2,15.9-15.8,16.7v-9.8c2.6-0.7,3.9-2.9,3.9-6.9v-30L452.9,38.9z
		 M307.8,107.2v-4h-14.3v20.8h14.3v-4h-9.3v-4.2l0.8-0.5h7.1v-4h-7.1l-0.8-0.5v-3.8L307.8,107.2z M246.6,103.3H242l-7.4,20v0.9h5
		l1.2-3.8h7l1.2,3.8h5v-0.9L246.6,103.3z M242.1,116.3l2.2-7l2.2,7H242.1z M264.1,124.1h4.9v-8.6l-0.4-4.9l7.9,13.5h4.9v-20.8h-4.9
		v8.7l0.4,4.8l-7.9-13.5h-4.9L264.1,124.1z M221.6,113.5c1.8-0.7,3-2.5,2.9-4.4c0-3.9-3-5.8-8.1-5.8h-7.5v20.8h8.3
		c5.1,0,7.8-2.1,7.8-6.2C225,115.8,223.6,113.9,221.6,113.5L221.6,113.5z M213.8,107.2h2.6c2.2,0,3.2,0.7,3.2,2.4
		c0,1.5-0.9,2.2-3.2,2.2h-1.8l-0.8-0.5L213.8,107.2z M217.1,120.1h-3.3v-4.4l0.8-0.5h2.7c1.9,0,2.6,1,2.6,2.6
		C220,119.1,219.2,120.1,217.1,120.1L217.1,120.1z M189.1,115.6c3.2,1,3.7,1.8,3.7,3c0,1.1-0.8,2-2.7,2c-2.4,0-3.7-0.8-3.7-3.2h-4.9
		c0,5,4.4,7.1,8.7,7.1c4.7,0,7.7-2.1,7.7-5.9c0-3.5-2.5-5.5-7-6.9c-2.4-0.8-3.9-1.5-3.9-2.7s1-2,2.9-2c2,0,3,1.1,3,2.6h4.9
		c0-3.9-3.2-6.5-7.8-6.5c-4.6,0-7.9,2.3-7.9,5.9C182,112.6,185.4,114.3,189.1,115.6L189.1,115.6z M170.5,124.1v-20.8h-4.9v20.8
		H170.5z M150.4,115.5c2.2-1,3.6-2.7,3.6-5.9c0-4.1-3-6.3-7.9-6.3H138v20.8h4.9v-7.3h2.8l3.7,7.3h5v-0.9L150.4,115.5z M143,112.3
		v-5.1h3.2c1.9,0,2.9,1.1,2.9,2.8c0,1.8-1,2.8-3,2.8h-2.3L143,112.3z M123.5,113.5c1.8-0.7,3-2.5,2.9-4.4c0-3.9-3-5.8-8.1-5.8h-7.5
		v20.8h8.3c5.1,0,7.8-2.1,7.8-6.2C127,115.8,125.5,113.9,123.5,113.5L123.5,113.5z M115.7,107.2h2.6c2.2,0,3.2,0.7,3.2,2.4
		c0,1.5-0.9,2.2-3.2,2.2h-1.8l-0.8-0.5L115.7,107.2z M119.1,120.1h-3.3v-4.4l0.8-0.5h2.7c1.9,0,2.6,1,2.6,2.6
		C121.9,119.1,121.1,120.1,119.1,120.1L119.1,120.1z M29.9,54.1V41.6l17.8,10.3l17.8-10.3v12.5L47.7,64.4L29.9,54.1z M47.7,87.3
		L65.5,77V64.4L47.7,74.7L29.9,64.4V77L47.7,87.3z"/>
	<g>
		<path class="st0" d="M63.7,3.6L63,7.5c-0.2,0.9-0.9,1.4-1.7,1.4h-4.6l-2.4,13.7c-0.1,0.9-0.9,1.5-1.7,1.5h-5.1l2.8-15.2h-6.5
			L44.6,5c0.2-0.9,0.9-1.4,1.7-1.4L63.7,3.6z"/>
		<path class="st0" d="M57.1,17.8L56.3,23c-0.3,1.8-1.8,3.2-3.7,3.2h-7.5l2.6-14.7c-0.5-0.2-1.2-0.4-1.8-0.5
			c-0.8-0.3-1.6-0.4-2.4-0.4c-0.7,0-1.4,0.1-2.1,0.3s-1.3,0.6-1.8,1.2c-0.6,0.8-1,1.8-1,2.8c0,3.4,2.6,8.1,7.2,11.9
			c4,3.4,8.5,5.3,11.8,5.3c1.4,0.1,2.8-0.5,3.8-1.5c0.6-0.8,1-1.8,1-2.9C62.4,24.9,60.5,21.2,57.1,17.8z"/>
	</g>
	<g>
		<path class="st0" d="M381.8,108.6v2.7l0.4,0.2h4.1v1.5h-4.1l-0.4,0.2v4.4H380v-10.5h6.8v1.5H381.8z"/>
		<path class="st0" d="M388.1,117.6v-11h1.7v11H388.1z"/>
		<path class="st0" d="M397.8,112.4v5.2h-1.5l-0.2-0.9c-0.4,0.6-1.1,1-2.2,1c-1.5,0-2.6-0.9-2.6-2.3c0-1.5,1.2-2.5,3.6-2.5h1.1v-0.6
			c0-0.8-0.5-1.4-1.4-1.4c-0.8,0-1.4,0.4-1.4,1.2h-1.7c0-1.4,1.3-2.5,3.2-2.5C396.5,109.7,397.8,110.6,397.8,112.4z M396,115.5V114
			h-1.1c-1.3,0-1.9,0.6-1.9,1.4c0,0.6,0.5,1,1.2,1C395.1,116.5,395.8,116,396,115.5z"/>
		<path class="st0" d="M405.7,110.2l-2.6,7.5h-1.7l-2.6-7.5v-0.3h1.7l1.7,5.7l1.7-5.7h1.7L405.7,110.2z"/>
		<path class="st0" d="M409.9,109.7c2.3,0,3.6,1.7,3.6,3.9v0.2c0,2.3-1.3,3.9-3.6,3.9c-2.3,0-3.6-1.7-3.6-3.9v-0.2
			C406.3,111.4,407.6,109.7,409.9,109.7z M409.9,116.4c1.3,0,1.9-1.1,1.9-2.5v-0.2c0-1.3-0.6-2.5-1.9-2.5c-1.3,0-1.9,1.2-1.9,2.5
			v0.2C408,115.2,408.6,116.4,409.9,116.4z"/>
		<path class="st0" d="M421.4,109.9v7.8h-1.6l-0.1-0.9c-0.5,0.7-1.2,1.1-2.3,1.1c-1.5,0-2.6-0.8-2.6-2.9v-5h1.7v5
			c0,1,0.5,1.5,1.4,1.5c0.9,0,1.5-0.4,1.7-1v-5.5H421.4z"/>
		<path class="st0" d="M427.4,109.8l0,1.7c-0.2,0-0.5-0.1-0.7-0.1c-1,0-1.6,0.4-1.8,1.2v5h-1.7v-7.8h1.6l0.1,1.1
			c0.4-0.8,1.1-1.3,1.9-1.3C427,109.7,427.3,109.7,427.4,109.8z"/>
		<path class="st0" d="M435,114.2h-5.2c0.1,1.3,0.9,2.2,2.2,2.2c0.8,0,1.5-0.2,2-0.9l0.8,1c-0.5,0.7-1.5,1.3-2.9,1.3
			c-2.3,0-3.8-1.7-3.8-3.8v-0.3c0-2.3,1.4-4,3.6-4c2.1,0,3.3,1.4,3.3,3.7V114.2z M433.3,112.9c0-1-0.6-1.7-1.6-1.7
			c-1.1,0-1.6,0.8-1.8,1.9h3.4V112.9z"/>
		<path class="st0" d="M442.8,106.6v11h-1.6l-0.1-1c-0.5,0.7-1.2,1.1-2.1,1.1c-1.9,0-3-1.6-3-3.9v-0.2c0-2.4,1.1-4,3-4
			c0.9,0,1.6,0.4,2,1.1v-4.2H442.8z M441,115.3v-3.1c-0.3-0.7-0.8-1.1-1.6-1.1c-1.2,0-1.7,1.1-1.7,2.5v0.2c0,1.4,0.5,2.5,1.7,2.5
			C440.2,116.4,440.8,116,441,115.3z"/>
		<path class="st0" d="M454.9,113.7v0.2c0,2.4-1,4-3,4c-1,0-1.7-0.4-2.1-1.1l-0.1,1h-1.6v-11h1.7v4.1c0.5-0.6,1.1-1,2-1
			C453.9,109.7,454.9,111.3,454.9,113.7z M453.2,113.7c0-1.4-0.4-2.5-1.7-2.5c-0.9,0-1.4,0.4-1.6,1.1v3.1c0.3,0.7,0.8,1,1.7,1
			c1.3,0,1.7-1.1,1.7-2.6V113.7z"/>
		<path class="st0" d="M462.7,109.9v0.3l-3.1,8.7c-0.3,0.7-0.8,1.9-2.4,1.9c-0.4,0-0.5,0-0.9-0.1v-1.3c0.1,0,0.3,0,0.4,0
			c0.8,0,1.2-0.4,1.4-0.9l0.3-0.7l-2.7-7.5v-0.3h1.8l1.8,5.4l1.7-5.4H462.7z"/>
	</g>
</g>
</svg>
