<svg viewBox="0 0 100 100" xmlns="http://www.w3.org/2000/svg" fill-rule="evenodd" clip-rule="evenodd" stroke-linejoin="round" stroke-miterlimit="2"><path d="M76.687 31.996c1.595 0 3.313 1.056 3.313 3.375v21.32c0 .552-.162 3.313-3.313 3.313H54.8v-.027a3.232 3.232 0 0 1-2.854-3.2 3.238 3.238 0 0 1 3.188-3.226c.023 0 .043-.003.065-.003h18.345v-4.362H58.181l-3.074-.031c-1.549 0-3.115-1.025-3.115-3.315V35.187c0-2 1.559-3.191 3.062-3.191h21.633zM30.331 56.004c.001-2.184 1.798-3.98 3.982-3.982 2.184.002 3.981 1.798 3.982 3.982-.001 2.185-1.798 3.982-3.982 3.983-2.184-.001-3.981-1.798-3.982-3.983zm-10.331 0c.001-2.184 1.798-3.98 3.982-3.982 2.185.002 3.981 1.798 3.982 3.982-.001 2.185-1.797 3.982-3.982 3.983-2.184-.001-3.981-1.798-3.982-3.983zm20.673 0c.001-2.184 1.798-3.98 3.982-3.982 2.184.002 3.981 1.798 3.982 3.982-.001 2.185-1.798 3.982-3.982 3.983-2.184-.001-3.981-1.798-3.982-3.983zm-10.342-10.04c.001-2.184 1.798-3.981 3.982-3.982 2.184.001 3.981 1.798 3.982 3.982-.001 2.184-1.798 3.982-3.982 3.983-2.184-.001-3.981-1.799-3.982-3.983zm-10.331 0c.001-2.185 1.798-3.981 3.982-3.982 2.185.001 3.981 1.798 3.982 3.982-.001 2.184-1.797 3.982-3.982 3.983-2.184-.001-3.981-1.798-3.982-3.983zm20.673 0c.001-2.185 1.798-3.981 3.982-3.982 2.184.001 3.981 1.798 3.982 3.982-.001 2.184-1.798 3.982-3.982 3.983-2.184-.001-3.981-1.798-3.982-3.983zm32.868-2.991v-4.519H58.45v4.519h15.091zM20 35.978c.001-2.184 1.798-3.981 3.982-3.982 2.185.001 3.981 1.798 3.982 3.983-.001 2.184-1.798 3.981-3.982 3.982-2.184-.001-3.981-1.798-3.982-3.982v-.001zm10.331 0c.001-2.184 1.798-3.981 3.982-3.982 2.184.001 3.981 1.798 3.982 3.982-.001 2.184-1.798 3.981-3.982 3.982-2.184-.001-3.981-1.798-3.982-3.982zm10.342 0c.001-2.184 1.798-3.981 3.982-3.982 2.184.001 3.981 1.798 3.982 3.982-.001 2.184-1.798 3.981-3.982 3.982-2.184-.001-3.981-1.798-3.982-3.982z" fill="#245f9f"/></svg>