<svg id="baaa93a6-d70e-4022-8839-ad4032bf08f2" data-name="Layer 1" xmlns="http://www.w3.org/2000/svg" viewBox="0 0 100 100"><rect x="22.05" y="40.83" width="3.86" height="18.34" fill="#18249c"/><path d="M89.59,52V45.18H86.15v9.64H95V52Zm-10.93.33A2.34,2.34,0,0,1,76.08,50a2.6,2.6,0,0,1,5.16,0,2.35,2.35,0,0,1-2.58,2.37m0,2.79c3.84,0,6.28-2.31,6.28-5.19s-2.44-5.07-6.26-5.07S72.39,47,72.39,49.94s2.42,5.19,6.27,5.19m-12.29-5H64.58V47.55h2c1,0,1.55.48,1.55,1.27s-.61,1.3-1.74,1.3m1.43-4.95H61.14v9.65h3.44V52.31h2.69c2.89,0,4.36-1.5,4.36-3.59s-1.28-3.55-3.83-3.55m-8.2,9.65-.94-9.64H53.54L52,50.48l-1.48-5.3H45.37l-.94,9.64h3.4l.48-6.6,1.84,6.6H53.6l1.95-6.64.57,6.64ZM37.4,51.18l2.11-3.41v3.41Zm.33-6-6.51,9.64h4l1-1.57h3.38v1.57h3.38V45.18ZM5,59.17,17.39,40.83h4.66L9.66,59.17Z" fill="#ed0c06"/></svg>