<?xml version="1.0" encoding="UTF-8"?>
<svg id="LOGO" xmlns="http://www.w3.org/2000/svg" viewBox="0 0 287.52 222.76">
  <defs>
    <style>
      .cls-1 {
        fill: #ffcd28;
      }

      .cls-2 {
        fill: #fff;
      }

      .cls-3 {
        fill: #be2819;
      }
    </style>
  </defs>
  <g>
    <g>
      <polygon points="262.56 133.67 263.2 133.67 263.2 131.36 264.09 131.36 264.09 130.77 261.68 130.77 261.68 131.36 262.56 131.36 262.56 133.67"/>
      <polygon points="265.19 131.79 266 133.01 266.02 133.01 266.83 131.77 266.83 133.67 267.47 133.67 267.47 130.77 266.78 130.77 266.02 131.99 265.25 130.77 264.56 130.77 264.56 133.67 265.19 133.67 265.19 131.79"/>
    </g>
    <path d="M85.43,155.69v-13.07c0-.62-.01-1.2-.02-1.73-.06-2.93-.09-4.27,1.82-4.59l.21-.04v-1.78h-8.31v1.77l.63.04c2.44.49,2,1.98,1.95,5.59,0,.54-.02,1.11-.02,1.73v12.53c0,4.34-2.14,6.02-4.29,6.02-2.68,0-4.25-1.4-4.25-5.54v-17.46c0-2.13,1.6-2.85,1.66-2.88l.16-.07v-1.73h-10.26v1.74s.17.06.17.06c.07.03,1.78.71,1.78,2.87v17.23c0,6.03,3.73,8.76,9.53,8.76,5.25,0,9.23-3.6,9.23-9.46"/>
    <path d="M110.22,142.63c0-3.07-.13-5.86,2.07-6.33l.21-.04v-1.77h-8.38v1.78l.21.04c2.18.43,2.46,1.29,2.54,7.72v9.89l-8.88-19.42h-8.7v1.73l.15.07c1.4.64,1.99,1.64,1.99,6.21v13.21c0,5.51-1.02,6.34-1.97,6.68l-.17.06v1.75h8.35v-1.8l-.23-.02c-.72-.07-2.4-.9-2.4-7.15v-13.03l10.29,22h4.92v-21.57Z"/>
    <path d="M137.65,149.12c0-8.9-4.76-14.64-12.14-14.64h-10.83v1.74s.17.06.17.06c.08.03,2.05.79,2.05,2.87v20.32c0,2.16-2,2.88-2.08,2.91l-.17.06v1.75h10.6c7.77,0,12.41-5.64,12.41-15.08M124.54,136.3c3.64,0,5.59,1.57,5.59,10.83v3.12c0,9.97-1.53,12.13-5.52,12.13-.94,0-1.17-.06-1.17-1.64v-23.04c-.01-1.27.37-1.39,1.1-1.39"/>
    <path d="M160.74,162.43s-1.23-1.02-1.81-2.99l-7.56-25.26h-4.49l-7.22,23.09c-1.5,4.72-2.04,5-2.95,5.11l-.23.03v1.8h8.47v-1.81h-.24c-.85-.05-1.42-.32-1.77-.82-.54-.8-.52-2.28.05-4.51h8.65l1.05,3.58c.1.29.14.56.14.87,0,.36-.88.73-1.48.87l-.2.05v1.77h9.69v-1.69l-.1-.08ZM147.43,142.81l3.44,11.65h-7.1l3.66-11.65Z"/>
    <path d="M183.86,156.31c0-4.57-3.01-7.02-6.48-7.69,2.42-.71,5.34-2.67,5.34-6.6,0-4.44-3.55-7.54-8.64-7.54h-12.33v1.75l.18.06s1.99.7,1.99,2.87v20.36c0,2.31-1.96,2.84-2.04,2.87l-.19.05v1.77h12.51c5.87,0,9.67-3.1,9.67-7.88M170.45,138c0-1.43.3-1.69,2.03-1.69,1.17,0,3.13,0,3.13,5.8,0,3.49-1,5.67-3.17,5.67h-1.99v-9.78ZM170.45,149.6h2.32c2.11,0,3.69,2.11,3.69,6.28,0,5.54-2.15,6.49-4.05,6.49-1.57,0-1.95-.14-1.95-1.39v-11.39Z"/>
    <path d="M204.78,157.28h-1.69s-1.32,5.09-5.21,5.09h-2.1c-1.06,0-1.5-.52-1.5-1.77v-10.85h1.55c2.52,0,3.52,3.59,3.52,3.59h1.66v-8.79h-1.65s-.99,3.33-3.53,3.33h-1.55v-9.54c0-1.71.36-2.04,2.3-2.04,4.47,0,5.99,4.46,5.99,4.46h1.72v-6.28h-19.01l.05,1.76.18.06s2.25.71,2.25,2.87v20.36c0,2.31-2.21,2.84-2.3,2.86l-.2.04v1.77h19.53v-6.92Z"/>
    <path d="M226.9,156.34c-1.49-5.18-2.22-6.89-5.63-7.29,1.48-.19,6.78-1.28,6.78-7.08,0-4.62-3.15-7.5-8.9-7.5h-12.02v1.74l.17.06s1.73.7,1.73,2.87v20.36c0,2.32-1.64,2.85-1.71,2.87l-.19.05v1.76h10.59v-1.79l-.22-.03c-.08-.01-1.94-.34-1.94-2.86v-9.92h.58c3.62,0,4.05,5.3,6.56,14.52h7.34v-1.7c-1.41-.89-2.59-4.18-3.13-6.07M216.67,147.78h-1.11v-9.96c0-.89.54-1.52,1.3-1.52h.83c2.5,0,4.3,2.43,4.3,5.97,0,4.61-2.47,5.5-5.32,5.5"/>
    <path d="M63.54,158.4c0-9.75-7.18-13.5-14.79-14.41,7.43-1.05,12.89-5.22,12.89-13.37s-7.03-13.35-17.67-13.35c-11.81,0-23.28,7.18-25.02,21.37-1.47,12.02,9.26,19.17,10.52,19.73.79.35,1.85.33.78-.45-2.09-1.54-5.23-6.09-5.23-16.06s3.61-23.07,19.06-23.07c8.9,0,10.4,6.27,10.4,11.59s0,12.32-8.39,12.99v-15.66c0-2.17.09-5.73,1.06-7.83.17-.36-.16-.33-.48-.09-4.44,3.35-6.17,5.65-6.17,13.44v22.19c0,2.31-.03,6.46-1.1,8.71-.3.62.14.24.86-.48,4.28-4.27,5.84-5.19,5.84-14.05v-5.28c9.33.82,9.62,10.03,9.62,14.09s-.48,13.27-7.49,13.27c-3.79,0-8.19-2.62-11.89-4.64,2.04-2.04,2.63-5.3,2.63-9.99v-24.38c0-6.05,1.16-7.73,2.63-9.83.23-.32-.17-.2-.48.05-4.1,3.48-7.74,6.29-7.74,13.64v23.98c0,2.98.03,4.21-.32,5.34-5.89-2.29-11.14,1.13-11.14,4.83,0,1.98,1.52,3.32,3.56,3.32,2.83,0,4.36-.84,6.56-2.69,2.8,1.55,5.62,3.07,10.49,3.07,9.71,0,21-4.29,21-15.99M25.71,172.75c-1.64,0-2.44-.69-2.44-1.9s2.34-3.08,7.04-.38c-.9.91-2.53,2.28-4.6,2.28"/>
    <path d="M260.93,147.82h-9.74v2.31c2.42.1,2.69,3.01,2.69,4.72v9.02s-2.31,5.17-7.14,5.17c-5.75,0-7.8-5.59-7.8-10.21v-18.36c0-6.24,3.28-11.49,8.97-11.49,8.28,0,10.16,11.91,10.16,11.91h2.52v-10.35c-3.75-1.32-5.23-3.42-12.87-3.42-11.58,0-15.73,9.86-15.73,17.03v12.19c0,13.64,11.25,14.93,14.75,14.93,7,0,8.54-4.42,12.32-.79h1.86v-22.66Z"/>
    <path d="M246.45,133.11c0-2.41,1.15-2.83,1.15-2.83-2.12,0-6.71,2.73-6.71,9.52,0,4.59.03,14.97.03,17.78,0,4.41,1.31,9.99,6.22,9.99,0,0-.68-.73-.68-2.15v-32.31Z"/>
    <g>
      <path d="M86.82,177.62h4.16v1.08h-2.95v1.12h2.6v1.08h-2.6v1.16h2.99v1.08h-4.2v-5.51Z"/>
      <path d="M93.45,182.33l.72-.86c.5.41,1.02.67,1.65.67.5,0,.79-.2.79-.52v-.02c0-.31-.19-.46-1.11-.7-1.11-.28-1.83-.59-1.83-1.68v-.02c0-1,.8-1.66,1.93-1.66.8,0,1.49.25,2.05.7l-.63.91c-.49-.34-.97-.54-1.43-.54s-.71.21-.71.48v.02c0,.36.24.48,1.19.72,1.12.29,1.75.69,1.75,1.65v.02c0,1.09-.83,1.71-2.02,1.71-.83,0-1.68-.29-2.34-.88Z"/>
      <path d="M101.76,178.74h-1.68v-1.12h4.57v1.12h-1.68v4.39h-1.21v-4.39Z"/>
      <path d="M107.32,177.62h2.15c1.73,0,2.93,1.19,2.93,2.74v.02c0,1.55-1.2,2.76-2.93,2.76h-2.15v-5.51ZM108.53,178.72v3.32h.94c.99,0,1.66-.67,1.66-1.65v-.02c0-.98-.67-1.66-1.66-1.66h-.94Z"/>
    </g>
    <g>
      <path d="M177.85,178.8l-.98.24-.26-1.01,1.61-.48h.84v5.64h-1.22v-4.39Z"/>
      <path d="M181.92,181.65v-.02c0-.68.31-1.08.9-1.35-.43-.26-.71-.62-.71-1.22v-.02c0-.86.78-1.54,1.97-1.54s1.97.67,1.97,1.54v.02c0,.6-.28.96-.71,1.22.57.3.9.66.9,1.32v.02c0,1.04-.92,1.65-2.16,1.65s-2.16-.64-2.16-1.62ZM185.04,181.56v-.02c0-.43-.41-.69-.97-.69s-.97.26-.97.69v.02c0,.38.36.7.97.7s.97-.3.97-.7ZM184.88,179.2v-.02c0-.34-.3-.66-.8-.66s-.8.3-.8.65v.02c0,.39.31.69.8.69s.8-.29.8-.68Z"/>
      <path d="M188.71,181.65v-.02c0-.68.31-1.08.9-1.35-.43-.26-.71-.62-.71-1.22v-.02c0-.86.78-1.54,1.97-1.54s1.97.67,1.97,1.54v.02c0,.6-.28.96-.71,1.22.57.3.9.66.9,1.32v.02c0,1.04-.92,1.65-2.16,1.65s-2.16-.64-2.16-1.62ZM191.84,181.56v-.02c0-.43-.41-.69-.97-.69s-.97.26-.97.69v.02c0,.38.36.7.97.7s.97-.3.97-.7ZM191.67,179.2v-.02c0-.34-.3-.66-.8-.66s-.8.3-.8.65v.02c0,.39.31.69.8.69s.8-.29.8-.68Z"/>
      <path d="M195.51,181.65v-.02c0-.68.31-1.08.9-1.35-.43-.26-.71-.62-.71-1.22v-.02c0-.86.78-1.54,1.97-1.54s1.97.67,1.97,1.54v.02c0,.6-.28.96-.71,1.22.57.3.9.66.9,1.32v.02c0,1.04-.92,1.65-2.16,1.65s-2.16-.64-2.16-1.62ZM198.64,181.56v-.02c0-.43-.41-.69-.97-.69s-.97.26-.97.69v.02c0,.38.36.7.97.7s.97-.3.97-.7ZM198.47,179.2v-.02c0-.34-.3-.66-.8-.66s-.8.3-.8.65v.02c0,.39.31.69.8.69s.8-.29.8-.68Z"/>
    </g>
  </g>
  <g>
    <path class="cls-3" d="M131.59,178.03c0-1.54-.47-2.76-1.42-3.71-1.12-1.12-2.83-1.69-5.07-1.69h-7.35v15.48h4.93v-4.42h1.11l2.94,4.42h5.73l-3.67-5.35c1.8-.95,2.79-2.6,2.79-4.72ZM122.69,177h2.23c1.16,0,1.75.44,1.75,1.35,0,1.16-1.21,1.29-1.72,1.29h-2.25v-2.64Z"/>
    <path class="cls-3" d="M145.2,181.29c0,1.7-.76,2.56-2.27,2.56-1.86,0-2.25-1.45-2.25-2.66v-8.56h-4.97v8.64c0,4.59,2.55,7.12,7.18,7.12s7.28-2.56,7.28-7.22v-8.53h-4.97v8.66Z"/>
    <polygon class="cls-3" points="166.25 172.63 163.01 177.88 159.78 172.63 154.81 172.63 154.81 188.11 159.66 188.11 159.66 180.8 162.69 185.44 163.25 185.44 166.3 180.77 166.3 188.11 171.21 188.11 171.21 172.63 166.25 172.63"/>
  </g>
  <g>
    <path d="M133.11,188.45h-6.55l-2.94-4.42h-.59v4.42h-5.61v-16.16h7.68c2.33,0,4.12.6,5.31,1.79,1.02,1.02,1.52,2.32,1.52,3.95,0,2.1-.93,3.8-2.64,4.84l3.82,5.58ZM126.92,187.77h4.91l-3.52-5.14.34-.18c1.71-.9,2.61-2.43,2.61-4.43,0-1.45-.43-2.58-1.32-3.47-1.06-1.06-2.68-1.59-4.83-1.59h-7.01v14.81h4.26v-4.42h1.63l2.94,4.42ZM124.94,179.97h-2.58v-3.31h2.56c1.72,0,2.08.92,2.08,1.69,0,1.02-.77,1.62-2.06,1.62ZM123.03,179.3h1.91c.63,0,1.39-.16,1.39-.95,0-.47-.16-1.01-1.41-1.01h-1.89v1.96Z"/>
    <path d="M142.89,188.72c-4.85,0-7.52-2.65-7.52-7.45v-8.98h5.65v8.89c0,2.33,1.44,2.33,1.91,2.33,1.32,0,1.93-.71,1.93-2.22v-9h5.65v8.87c0,4.87-2.71,7.56-7.62,7.56ZM136.05,172.96v8.3c0,4.37,2.43,6.78,6.84,6.78s6.94-2.44,6.94-6.88v-8.2h-4.3v8.32c0,2.39-1.42,2.9-2.61,2.9-1.67,0-2.58-1.07-2.58-3v-8.22h-4.3Z"/>
    <path d="M171.55,188.45h-5.59v-6.54l-2.53,3.87h-.93l-2.51-3.85v6.51h-5.52v-16.16h5.49l3.05,4.94,3.05-4.94h5.49v16.16ZM166.64,187.77h4.24v-14.81h-4.44l-3.42,5.56-3.42-5.56h-4.44v14.81h4.17v-8.11l3.55,5.44h.2l3.57-5.46v8.13Z"/>
  </g>
  <g>
    <path class="cls-1" d="M188.95,46.66c2.29,4.05,2.46,6.55,2.56,8.9.09,2.38.1,4.66.93,8.96.69,4.32,1.46,6.47,2.19,8.73.7,2.24,1.4,4.64.63,9.24-.85,4.58-2.33,6.6-3.76,8.46-1.46,1.88-2.92,3.64-5.04,7.46-2.25,3.75-3.04,5.9-3.94,8.1-.9,2.17-1.91,4.46-5.45,7.49-3.59,2.96-6.02,3.56-8.32,4.07-2.32.5-4.57.91-8.66,2.47-4.13,1.43-6.12,2.56-8.22,3.67-2.09,1.08-4.33,2.19-8.99,2.23-4.66-.04-6.9-1.15-8.99-2.23-2.1-1.11-4.09-2.24-8.22-3.67-4.09-1.56-6.34-1.97-8.66-2.47-2.29-.52-4.72-1.11-8.32-4.07-3.54-3.03-4.55-5.31-5.45-7.48-.9-2.2-1.69-4.34-3.94-8.1-2.13-3.82-3.59-5.58-5.04-7.46-1.43-1.87-2.91-3.88-3.76-8.46-.77-4.59-.07-6.99.63-9.24.73-2.26,1.49-4.42,2.19-8.73.83-4.3.84-6.58.93-8.96.11-2.35.27-4.84,2.56-8.9,2.36-4.01,4.44-5.4,6.42-6.67,2.01-1.27,3.98-2.42,7.29-5.28,3.39-2.76,4.87-4.5,6.47-6.26,1.59-1.73,3.32-3.54,7.68-5.17,4.39-1.55,6.88-1.28,9.21-.98,2.35.32,4.61.71,8.98.64,4.37.07,6.63-.32,8.98-.64,2.33-.3,4.82-.58,9.21.98,4.36,1.63,6.09,3.44,7.68,5.17,1.6,1.76,3.08,3.5,6.47,6.26,3.31,2.86,5.28,4.02,7.29,5.28,1.98,1.27,4.06,2.66,6.42,6.67"/>
    <path class="cls-3" d="M100.55,83.29c-.26-3.09.29-6.11.86-7.95.59-1.85,1.22-3.62,1.79-7.16.68-3.52.69-5.39.76-7.34.09-1.93.22-3.97,2.1-7.29,1.94-3.29,3.64-4.42,5.26-5.46,1.65-1.04,3.27-1.98,5.97-4.33,2.78-2.26,3.99-3.69,5.3-5.13,1.3-1.42,2.72-2.9,6.3-4.24,3.6-1.27,5.63-1.05,7.55-.8,1.93.26,3.78.58,7.36.52,3.58.06,5.43-.26,7.36-.52,1.91-.25,3.95-.47,7.55.8,3.57,1.34,4.99,2.82,6.29,4.24,1.31,1.44,2.52,2.87,5.3,5.13,2.71,2.35,4.33,3.29,5.97,4.33,1.62,1.04,3.33,2,5.49,5.16,1.19,1.75,2.47,4.52,2.86,6.34.02-2.93-.09-5.23-2.25-9.11-1.95-3.49-3.81-4.63-5.51-5.72-1.72-1.09-3.42-2.08-6.25-4.53-2.91-2.37-4.18-3.86-5.55-5.37-1.37-1.48-2.85-3.03-6.59-4.43-3.77-1.33-5.9-1.1-7.9-.84-2.02.28-3.95.61-7.7.55-3.75.06-5.68-.27-7.7-.55-2-.26-4.13-.49-7.9.84-3.74,1.4-5.22,2.95-6.59,4.43-1.37,1.51-2.64,3-5.55,5.37-2.84,2.45-4.53,3.44-6.25,4.53-1.7,1.09-3.48,2.28-5.51,5.72-1.97,3.48-2.11,5.61-2.2,7.63-.08,2.04-.09,4-.8,7.68-.59,3.7-1.25,5.55-1.88,7.49-.6,1.92-1.2,3.98-.54,7.92.73,3.93,2.04,5.62,3.22,7.26.95,1.33,1.62,1.99,2.41,2.92,0,0-2.71-3.95-3.06-8.08Z"/>
    <g>
      <polygon points="163.02 104.09 163.65 104.09 163.65 101.78 164.54 101.78 164.54 101.19 162.14 101.19 162.14 101.78 163.02 101.78 163.02 104.09"/>
      <polygon points="165.64 102.21 166.45 103.43 166.47 103.43 167.28 102.19 167.28 104.09 167.91 104.09 167.91 101.19 167.23 101.19 166.47 102.42 165.7 101.19 165.02 101.19 165.02 104.09 165.64 104.09 165.64 102.21"/>
    </g>
    <path class="cls-2" d="M187.16,73.11c-.62-1.93-1.28-3.77-1.87-7.46-.49-2.54-.61-4.28-.68-5.77-1.47,5.21-.31,8.55.27,10.36.59,1.87,1.17,3.88.53,7.71-.71,3.82-1.94,5.5-3.13,7.06-1.21,1.57-2.43,3.04-4.21,6.23-1.87,3.13-2.54,4.92-3.29,6.76-.75,1.81-1.59,3.72-4.55,6.25-3,2.47-5.03,2.97-6.94,3.4-.32.07-.64.14-.96.21l-2.95,1.17-.58.26-1.09-.14-1.1.19-1.25-.44-1.25-.13-.76.23-1.32.06-.52-.12-.84-.08-.41-.2-.4-.09-3.34-.27-.31-.26-.91-.18-1.99.19-.38-.36-3.47-.16-1.25.15-.92.12-.41-.06-.58.08-.77.22-1.57.22-.1.15-1.51-.22-.61.22-2.72.44-.34-.19-1.52.31-1.96-.1-1.4.08-.85-.51-1.38-.21-.81-.37-.52-.2s0-.02,0-.02c0,0,0,.02,0,.02-.04,0-.08-.02-.12-.03-1.92-.43-3.94-.92-6.94-3.4-2.96-2.52-3.8-4.43-4.55-6.25-.75-1.84-1.84-3.44-4.31-6.02-.13-.11-.25-.2-.37-.3.54.81,1.12,1.76,1.77,2.94,1.92,3.21,2.6,5.04,3.37,6.92.77,1.86,1.63,3.81,4.66,6.4,3.07,2.53,5.15,3.04,7.11,3.48,1.98.43,3.91.78,7.4,2.11,3.53,1.22,5.23,2.19,7.03,3.14,1.79.92,3.7,1.87,7.68,1.9,3.98-.04,5.9-.98,7.68-1.9,1.8-.95,3.5-1.91,7.03-3.14,3.49-1.33,5.42-1.68,7.4-2.11,1.96-.44,4.04-.95,7.11-3.48,3.03-2.59,3.89-4.54,4.66-6.4.77-1.88,1.45-3.71,3.37-6.92,1.82-3.27,3.07-4.77,4.31-6.38,1.22-1.6,2.48-3.32,3.21-7.23.66-3.93.06-5.98-.54-7.9Z"/>
    <path class="cls-2" d="M161.47,107.14l-1-.18c.3-.59.19-1.51-.23-2.16.04-.6.04-2.14.04-2.14l.19.14c.11-.7.04-1.85.04-1.85,0,0,.14.09.16.25.1-.46.28-2.1.28-2.1h.08s.06-1,.06-1l.12.12s.24-1.4.31-1.89c.07-.49.16-1.99.16-1.99l.24.36c.11-.41.61-2.35.84-3.3.23-.95.48-2.99.48-2.99,0,0,.15.33.23.47.29-1.01.54-1.98.91-4.03l.09.13c0-.49.21-2.48.28-3.14l.23.08c.63-2.63.21-4.27.18-5.17,0-.38.22-1.3.15-1.7.18.09.26.12.26.12,0,0-.13-1.01-.38-1.6.19-.47.51-1.5.46-2.29.17.08.31.18.31.18,0,0-.24-.61-.28-1.22-.04-.6-.1-2.22-.1-2.22l.25.21s-.2-.82-.07-1.64c.12-.82.35-2.47-.56-3.94.19.06.3.08.32.09,0,0-.23-.73-.29-1.34-.06-.6-.54-2.59-.9-3.43.2.13.47.25.47.25,0,0-.55-1.11-.77-1.72-.23-.61-.61-1.66-.61-1.66l.35.14s-.3-.43-.35-1.44c-.05-1.01-.2-2.44-.49-3.07.34.28.4.33.48.44-.07-.39-.65-1.89-1.37-2.97-.01-.4-.06-1.98-.51-2.85,0,0,.23.07.31.18-.24-.59-.64-1.4-.9-1.67-.1-.42-.4-1.25-.53-1.45.26.14.6.44.74.42-.07-.12-.28-.44-.32-1.33-.05-.89-.36-1.75-.55-1.99.24.07.49.15.61.09-.21-.21-.41-.89-.57-1.23-.16-.34-.39-1.02-.39-1.02,0,0,.24.13.4.13-.19-.22-.37-.48-.41-.63.07-.13.28-.4.36-.85,0,0,0,0,0,0,.03-.14.05-.3.05-.48.16.1.25.21.37.21-.03-.2.17-.74.25-.96.14.09.21.16.21.16,0,0-.05-.38.16-.71.21-.34.6-.49.31-2.02.16.08.36.25.36.25,0,0-.34-1.52-1.01-2.26.2.06.55.16.55.16,0,0-.46-.76-.84-.95.2.01.24-.07.24-.07,0,0-.49-.43-1.43-.57.1-.13.09-.25.09-.25,0,0-.66-.09-1.36,0,.15-.14.29-.29.29-.29,0,0-1.09.08-1.73.44.05-.13.08-.29.08-.29,0,0-.55.09-1.04.42.03-.24,0-.45,0-.45l-.33-.28s.21-.2.35-.21c-.36-.15-1.09-.61-1.56-.74.13-.08.38-.08.38-.08,0,0-1.08-.71-2.86-.79.08-.21.27-.48.27-.48,0,0-1.03-.36-2.33,0,.05-.2.25-.38.25-.38,0,0-.93.02-1.38.31-.11-.08-.3-.21-.3-.21,0,0-.67.29-.82.41-.08-.05-.47-.13-.47-.13l-.43.15-.17-.05-.2.13v-.3s-.58-.03-1.09.1c-.3-.07-.95-.33-1.73-.41-.05.08-.15.16-.15.16,0,0-1.47-.18-3.1.62.27.03.45.08.45.08,0,0-1.94.77-2.95,2.07l.06.07-.5.56c-.74-.42-2.21-.54-2.21-.54v.11c-.52-.04-1.14.26-1.54.48-.54.03-1.3.75-1.3.75,0,0,.23-.01.41-.04-.84.64-.9,1.56-.94,1.97.08-.1.16-.18.3-.2-.28.64-.07,1.71-.07,1.71,0,0,.19-.09.26-.12-.16.64.11,1.41.11,1.41l.14-.13s.16.34.38.58c-.06.64.81,1.65.81,1.65,0,0,.11-.12.19-.16-.36,1.92-.24,3.59-.21,3.83-.18.21-.84,1.12-.84,1.12,0,0,.09,0,.24.04-.09.23-.16,1.03-.16,1.03,0,0-.12.19-.41.71-.29.51-.66.96-.66.96l.35.02s-.47.92-.66,1.29c-.19.37-.4.71-.4.71,0,0,.06.05.25.12-.06.33-.19,1.89-.19,1.89,0,0,.03.03.09.09-.65.39-1.51.91-2.42,1.8-.48.39-.95.78-.95.78l.18.07c-.19.23-.38.47-.57.74-.44.48-.9.97-.9.97l.23.06c-.09.15-.18.31-.27.47h0c-.12.23-1.19,2.15-1.19,2.15h.19c-.03.07-.06.15-.09.22-.58.44-1.12.93-1.62,1.44-.55.48-1.28,1.12-1.28,1.12l.18.06c-1.13,1.31-1.85,2.42-1.85,2.42-.38.55-.42.64-.41.65-1.55,1.07-3.11,3.4-3.36,3.71l.2-.03s-1.72,2.92-2.11,3.89l.2-.08-.37.79h.25s-.51,1.09-.68,1.45c.2-.1.26,0,.26,0,0,0-.94,2.45-1.13,3.02.21-.02.31,0,.31,0,0,0-.51,1.14-.61,1.52.26-.06.18,0,.18,0,0,0-.35,1.27-.44,1.8l.18.02s-.55,2.81-.24,4.88c.13-.05.26,0,.26,0,0,0-.21,1.87.71,4.96l.17-.11s.53,2.57.6,3.12l.08-.13c.54,1.89.87,2.79,1.24,3.71.06-.14.17-.47.17-.47,0,0,.43,1.9.73,2.78.31.88.97,2.66,1.1,3.04l.2-.36s.22,1.41.34,1.86c.11.45.47,1.75.47,1.75l.1-.13.15.93h.08s.32,1.53.46,1.96c0-.16.13-.25.13-.25,0,0,.05,1.08.22,1.73l.17-.15s-.19,1.15-.21,1.56l.52.2.81.37,1.38.21.85.51,1.4-.08,1.96.1,1.52-.31.34.19,2.72-.44.61-.22,1.51.22.1-.15,1.57-.22.77-.22.58-.08.41.06.92-.12,1.25-.15,3.47.16.37.36,1.99-.19.91.18.31.26,3.34.27.4.09.41.2.84.08.52.12,1.32-.06.76-.23,1.25.13,1.25.44,1.1-.19,1.09.14.58-.26,2.98-1.18-.89-.7ZM143.67,98.74l.31.11s.03-1.76-.52-2.59c.59.43.87.72.87.72,0,0-.33-1.89-.84-2.54.4.23.87.64.87.64,0,0-.23-1.55-.94-2.27.62.41,1.01.81,1.01.81,0,0-.18-1.05-.87-1.78.53.07.82.42.82.42l-.2-1.85s.02-.01.03-.02c.04-.03.08-.05.13-.07.09-.05.17-.1.26-.15.18-.09.36-.2.55-.31.04-.03.09-.05.14-.08.04-.03.09-.06.14-.09.06-.04.12-.07.18-.11-.03.43-.06.85-.06,1.16,0,.98.04,2.98.04,3.4l.32-.29s-.27,1.48-.31,1.97c-.05.49-.14,1.91-.14,1.91l.14-.1-.17.98.08.02s-.21,1.64-.22,2.11c.06-.15.22-.21.22-.21,0,0-.33,1.1-.39,1.81l.22-.09s0,.01,0,.03c-.2.13-.39.29-.55.49-.34-.48-.46-.6-.46-.6l-.25-.31c-.24-.77-.48-1.72-.12-1.5-.02-.81-.28-1.64-.28-1.64"/>
    <g>
      <path d="M121.05,63.99l.06-.35s0,0,0,0c.08-.06.69-.48,1.46-.95.37-.23.77-.47,1.17-.68.03-.09.05-.17.08-.26.01-.04.02-.09.04-.13.06-.21.13-.42.19-.62l-.43.25-.27.64c-.22.12-.45.26-.69.4-.47.29-.97.63-1.48,1.03-1.13.89-2.28,2.05-3.18,3.54,1.83-2.05,3.04-2.86,3.04-2.86"/>
      <path d="M121.44,62.35h0s.13-.44.13-.44c0,0,.62-.57,1.48-1.09.37-.23.79-.45,1.23-.61.03-.01.05-.03.07-.04.04-.1.08-.2.11-.3-.48.19-.92.39-1.31.61-.56.31-1.04.64-1.45.99-.95.81-1.57,1.73-2.19,2.69,1.44-1.5,1.92-1.81,1.92-1.81"/>
      <path d="M122.87,75.12s0,0,0,0c-.28-.46-.5-.85-.66-1.16-.47-.86-.56-1.18-.56-1.18,0,0-.04.04-.32.36-.22.22-3.07,3.23-3.17,7.33.74-3.88,2.6-5.9,3.25-6.51.58,1.2,1.48,2.15,1.48,2.15,0,0-.05-.51-.02-1"/>
      <path d="M124.99,58.64l.23-.48h0s-1.06.54-1.66,1.11c.65-.31,1.43-.62,1.43-.62h0Z"/>
      <path d="M124.6,79.41c-.58.68-1.01,1.38-1.17,1.66-.05.09-.08.14-.08.14,0,0,.07,1.43.18,2.13,0-.05.05-.26.15-.58.14-.45.38-1.11.68-1.82.25-.77.77-1.44,1.21-2.12.23-.34,1.07-1.25,1.24-1.62-.54.57-1.76,1.67-2.2,2.2"/>
      <path d="M116.29,80.66h0c-.08-.43-.13-.82-.17-1.16-.15,1.11-1.09,1.77-.99,3.17.57-1.51,1.16-2.01,1.16-2.01"/>
      <path d="M115.91,76.9c-.15.73-.4,1.42-.4,1.42,0,0-.29.47-.44,1.36.24-.53.65-1.26.84-1.43,0,0,0-.82.01-1.35"/>
      <path d="M116.79,82.76h0c-.1-.31-.18-.62-.25-.91-.15.86-.89,1.31-.93,3.05.53-1.6,1.19-2.13,1.19-2.13"/>
      <path d="M117.09,83.64c-.14.95-.93,1.97-.74,3.28.34-1.47.92-2.26,1.08-2.45-.12-.28-.23-.55-.34-.82"/>
      <path d="M117.75,85.14c.14.99-.84,2-.66,3.31.51-1.63,1.06-2.29,1.16-2.41-.18-.3-.35-.6-.51-.9"/>
      <polygon points="117.75 85.14 117.75 85.14 117.75 85.14 117.75 85.14"/>
      <path d="M118.01,91.63c.38-2.95,1.14-4,1.27-4.17-.18-.21-.35-.42-.5-.64.06.95-1.06,1.74-.77,4.81"/>
      <path d="M124.06,69.36s.29,1.82.97,3.1h0s1.8-1.59,2.73-2.03c-1.15.51-2.07,1.05-2.52,1.33-.19-.34-.58-1.06-.88-1.69-.13-.27-.23-.51-.3-.71"/>
      <path d="M124.26,72.94c-.58-1.2-.93-2.43-1.1-3.64-.03-.17-.05-.33-.07-.5-.06-.5-.09-1-.09-1.49,0-.16,0-.31,0-.47,0-.43.03-.85.07-1.26.02-.16.03-.33.05-.49.04-.34.09-.67.15-.99,0-.05.02-.1.03-.15.03-.15.06-.29.08-.44.04-.22.09-.44.15-.65h0s-.45.3-.45.3l-.22.64c-.19.11-.39.23-.6.37-.44.28-.92.63-1.41,1.03-1.28,1.04-2.63,2.48-3.57,4.38,1.75-2.39,3.48-3.56,3.48-3.56l.09-.5s.59-.43,1.33-.9c.16-.1.33-.21.51-.32,0,0-.12.45-.24,1.2-.15.1-.31.21-.48.33-.37.27-.8.6-1.25,1-1.31,1.15-2.8,2.85-3.69,5.11,2.01-3.04,3.64-4.18,3.64-4.18l.04-.51s.55-.44,1.18-.9c.16-.12.33-.24.49-.35-.05.4-.09.86-.1,1.36-.17.13-.36.28-.56.45-.3.25-.63.54-.96.86-1.38,1.32-2.95,3.26-3.76,5.7,1.82-3.29,3.84-4.9,3.84-4.9h0s-.03-.46-.03-.46c0,0,.39-.34.89-.74.18-.15.38-.3.58-.45,0,.49.01,1.02.06,1.56-.18.15-.38.32-.59.52-.22.21-.46.44-.71.69-1.35,1.4-2.88,3.52-3.4,6.27,1.43-3.49,3.59-5.51,3.59-5.51h0s-.07-.28-.07-.28v-.02s.29-.29.67-.63c.18-.17.38-.35.58-.52.13,1.08.39,2.24.85,3.4,0,.08-.04.39-.08.84-.03.34-.06.77-.09,1.26-.04.89-.07,1.96-.02,3.04.04.79.12,1.58.26,2.3,0-.12.02-.23.03-.34.11-1.08.39-1.79.51-2.02.03-.91.1-3.81.43-5.45"/>
      <path d="M155.45,82.16s1.43,1.74,1.98,2.23c-.87-1.21-2.01-3.51-2.01-3.51l.03,1.28Z"/>
      <path d="M155.26,86.19s.28-.17,1.43,1.31c-.4-.98-1.18-1.6-1.46-2.65.02.69.03,1.34.03,1.34"/>
      <path d="M155.23,89.74s.27-.18,1.43,1.31c-.4-.98-1.18-1.6-1.46-2.65.02.69.03,1.34.03,1.34"/>
      <path d="M133.98,106.78c1.49-2.09-.29-2.95-.63-3.14-.76.17-.55,1.02-.55,1.02,1.33.3,1.43,1.03,1.18,2.13"/>
      <path d="M137.13,106.38c1.49-2.09.15-2.97-.19-3.16-.76.17-.55,1.02-.55,1.02.79.39.99,1.04.74,2.14"/>
      <path d="M140.34,106.23c1.49-2.09.15-2.97-.19-3.16-.76.17-.55,1.02-.55,1.02.79.38.98,1.04.74,2.14"/>
      <path d="M142.86,106.19c1.46-1.82.3-2.68,0-2.88-.7.12-.55.9-.55.9.7.39.84.99.56,1.98"/>
      <path d="M149.21,102.91c1.07-.25,2.47-.53,3.01.85.39-.21.59-.25.59-.25,0,0-1.09-2.03-3.61-.6"/>
      <path d="M152.81,103.51c1.07-.25,2.25-.36,2.79,1.02.39-.21.59-.25.59-.25,0,0-.87-2.2-3.39-.77"/>
      <path d="M161.47,107.14l-1-.18c.3-.59.19-1.51-.23-2.16.04-.6.04-2.14.04-2.14l.19.14c.11-.7.04-1.85.04-1.85,0,0,.14.09.16.25.1-.46.28-2.1.28-2.1h.08s.06-1,.06-1l.12.12s.24-1.4.31-1.89c.07-.49.16-1.99.16-1.99l.24.36c.11-.41.61-2.35.84-3.3.23-.95.48-2.99.48-2.99,0,0,.15.33.23.47.29-1.01.54-1.98.91-4.03l.09.13c0-.49.21-2.48.28-3.14l.23.08c.63-2.63.21-4.27.18-5.17,0-.38.22-1.3.15-1.7.18.09.26.12.26.12,0,0-.13-1.01-.38-1.6.19-.47.51-1.5.46-2.29.17.08.31.18.31.18,0,0-.24-.61-.28-1.22-.04-.6-.1-2.22-.1-2.22l.25.21s-.2-.82-.07-1.64c.12-.82.35-2.47-.56-3.94.19.06.3.08.32.09,0,0-.23-.73-.29-1.34-.06-.6-.54-2.59-.9-3.43.2.13.47.25.47.25,0,0-.55-1.11-.77-1.72-.23-.61-.61-1.66-.61-1.66l.35.14s-.3-.43-.35-1.44c-.05-1.01-.2-2.44-.49-3.07.34.28.4.33.48.44-.07-.39-.65-1.89-1.37-2.97-.01-.4-.06-1.98-.51-2.85,0,0,.23.07.31.18-.24-.59-.64-1.4-.9-1.67-.1-.42-.4-1.25-.53-1.45.26.14.6.44.74.42-.07-.12-.28-.44-.32-1.33-.05-.89-.36-1.75-.55-1.99.24.07.49.15.61.09-.21-.21-.41-.89-.57-1.23-.16-.34-.39-1.02-.39-1.02,0,0,.24.13.4.13-.19-.22-.37-.48-.41-.63.07-.13.28-.4.36-.85,0,0,0,0,0,0,.03-.14.05-.3.05-.48.16.1.25.21.37.21-.03-.2.17-.74.25-.96.14.09.21.16.21.16,0,0-.05-.38.16-.71.21-.34.6-.49.31-2.02.16.08.36.25.36.25,0,0-.34-1.52-1.01-2.26.2.06.55.16.55.16,0,0-.46-.76-.84-.95.2.01.24-.07.24-.07,0,0-.49-.43-1.43-.57.1-.13.09-.25.09-.25,0,0-.66-.09-1.36,0,.15-.14.29-.29.29-.29,0,0-1.09.08-1.73.44.05-.13.08-.29.08-.29,0,0-.55.09-1.04.42.03-.24,0-.45,0-.45l-.33-.28s.21-.2.35-.21c-.36-.15-1.09-.61-1.56-.74.13-.08.38-.08.38-.08,0,0-1.08-.71-2.86-.79.08-.21.27-.48.27-.48,0,0-1.03-.36-2.33,0,.05-.2.25-.38.25-.38,0,0-.93.02-1.38.31-.11-.08-.3-.21-.3-.21,0,0-.67.29-.82.41-.08-.05-.47-.13-.47-.13l-.43.15-.17-.05-.2.13v-.3s-.58-.03-1.09.1c-.3-.07-.95-.33-1.73-.41-.05.08-.15.16-.15.16,0,0-1.47-.18-3.1.62.27.03.45.08.45.08,0,0-1.94.77-2.95,2.07l.06.07-.5.56c-.74-.42-2.21-.54-2.21-.54v.11c-.52-.04-1.14.26-1.54.48-.54.03-1.3.75-1.3.75,0,0,.23-.01.41-.04-.84.64-.9,1.56-.94,1.97.08-.1.16-.18.3-.2-.28.64-.07,1.71-.07,1.71,0,0,.19-.09.26-.12-.16.64.11,1.41.11,1.41l.14-.13s.16.34.38.58c-.06.64.81,1.65.81,1.65,0,0,.11-.12.19-.16-.36,1.92-.24,3.59-.21,3.83-.18.21-.84,1.12-.84,1.12,0,0,.09,0,.24.04-.09.23-.16,1.03-.16,1.03,0,0-.12.19-.41.71-.29.51-.66.96-.66.96l.35.02s-.47.92-.66,1.29c-.19.37-.4.71-.4.71,0,0,.06.05.25.12-.06.33-.19,1.89-.19,1.89,0,0,.03.03.09.09-.65.39-1.51.91-2.42,1.8-.48.39-.95.78-.95.78l.18.07c-.19.23-.38.47-.57.74-.44.48-.9.97-.9.97l.23.06c-.09.15-.18.31-.27.47h0c-.12.23-1.19,2.15-1.19,2.15h.19c-.03.07-.06.15-.09.22-.58.44-1.12.93-1.62,1.44-.55.48-1.28,1.12-1.28,1.12l.18.06c-1.13,1.31-1.85,2.42-1.85,2.42-.38.55-.42.64-.41.65-1.55,1.07-3.11,3.4-3.36,3.71l.2-.03s-1.72,2.92-2.11,3.89l.2-.08-.37.79h.25s-.51,1.09-.68,1.45c.2-.1.26,0,.26,0,0,0-.94,2.45-1.13,3.02.21-.02.31,0,.31,0,0,0-.51,1.14-.61,1.52.26-.06.18,0,.18,0,0,0-.35,1.27-.44,1.8l.18.02s-.55,2.81-.24,4.88c.13-.05.26,0,.26,0,0,0-.21,1.87.71,4.96l.17-.11s.53,2.57.6,3.12l.08-.13c.54,1.89.87,2.79,1.24,3.71.06-.14.17-.47.17-.47,0,0,.43,1.9.73,2.78.31.88.97,2.66,1.1,3.04l.2-.36s.22,1.41.34,1.86c.11.45.47,1.75.47,1.75l.1-.13.15.93h.08s.32,1.53.46,1.96c0-.16.13-.25.13-.25,0,0,.05,1.08.22,1.73l.17-.15s-.19,1.15-.21,1.56l.52.2.81.37,1.38.21.85.51,1.4-.08,1.96.1,1.52-.31.34.19,2.72-.44.61-.22,1.51.22.1-.15,1.57-.22.77-.22.58-.08.41.06.92-.12,1.25-.15,3.47.16.37.36,1.99-.19.91.18.31.26,3.34.27.4.09.41.2.84.08.52.12,1.32-.06.76-.23,1.25.13,1.25.44,1.1-.19,1.09.14.58-.26,2.98-1.18-.89-.7ZM125.19,107.56c-.22.06-.72.16-1.21.24-.08-.51-.18-1.26-.22-1.94-.12.7-.15,1.49-.16,2-.37.06-.71-.18-.82-.16-.21-2.15.08-4.87.08-4.87,0,0-.48,2.09-.53,4.64l-.26-.15-.4-.93s-.59-5.78,2.18-10.87c-.2,1.66-.65,5.31-.78,6.6.46-1.44,1.13-2.73,1.56-3.5.01.05.02.1.04.15-.29,1.76-.62,4.06-.6,5.02.22-1,.76-1.88,1.22-2.47,0,.02,0,.04.01.06-.13,1.07-.35,3.08-.27,3.57.13-.12.26-.21.38-.29-.21.83-.43,2.05-.24,2.91M156.34,108.18s.26-.28.32-.4c-.7.05-.69-.14-.95-.21.17-.31,0-.62-.13-.88-.08.35-.3.78-.53.88-.23.1-.92-.02-1.1-.08-.17.28-.38.42-1.23.76.28-.12.22-.63.17-.96-.38.07-.93-.32-.93-.32,0,0-.03-.3,0-.68-.07.31-.37.71-.5.77-.13.07-.75.02-1.05,0-.34.33-1.33.59-1.33.59,0,0,.12-.21.23-.43-.7-.1-.85-.61-.83-.93-.32.61-1.13.71-1.53.62-.35.28-.83.47-1.05.54h0s-.06,0-.09,0c.06-.11.19-.41.19-.67-.37.05-1.08-.32-1.31-.44.18-.48.54-1.91.44-2.78.71-1.09,2.17-1.22,3.28-.73-.19-.2-.39-.36-.59-.48-.09,0-.18-.03-.27-.04,0,0,.65-1.93,1.6-2.74-.63.22-2.05,1.13-2.88,2.19.09-1.59,1.45-3.02,2.83-4.26-.78.43-2,1.44-2.66,2.2.18-1.75.73-2.12,1.41-2.67.07-.57.97-1.24,1.82-1.75-.3.1-1.42.61-3.23,2.03.23-1.84,1.41-2.47,2.16-2.85.05-.26.07-.61,1.63-1.66-1.2.55-2.2,1.25-3.64,2.35.15-1.49,1.62-2.38,2.3-2.81.06-.48.41-.76,2.49-2.13-2.25,1-3.93,2.37-4.79,3.26.11-1.61,1.59-2.38,2.3-2.93.12-.41,1.02-1.13,2.49-2.26-2.58,1.46-4.87,3.52-4.87,3.52v-.89c.35-.85,3.83-3.28,5.55-5.1-1.16,1.19-4.65,3.27-5.55,3.8v-.59c.33-.23.65-.46.98-.71.2-.15.39-.31.58-.47.05-.04.1-.08.15-.12l.14-.12.14-.12s.09-.08.14-.13c.09-.08.18-.17.28-.25.09-.09.18-.17.27-.26.09-.08.18-.18.27-.26.08-.09.17-.17.26-.26.08-.09.17-.18.25-.27.08-.09.16-.18.24-.27.08-.09.16-.18.23-.27.08-.09.15-.18.23-.27.07-.09.15-.18.22-.27.07-.09.14-.18.2-.27.07-.09.13-.18.2-.26.06-.09.13-.18.19-.27.06-.09.12-.17.18-.26.06-.09.11-.17.17-.25.06-.08.1-.17.16-.25.05-.08.1-.16.15-.24.05-.08.09-.16.14-.23.04-.08.08-.15.12-.23.08-.14.16-.29.22-.42.04-.07.07-.13.1-.19.03-.06.06-.13.09-.18.05-.12.1-.22.15-.32.04-.1.08-.19.11-.26.03-.07.06-.14.08-.19.04-.11.06-.16.06-.16,0,0-.03.05-.08.16-.03.05-.05.11-.09.19-.04.07-.08.16-.13.25-.05.09-.11.19-.18.31-.03.05-.07.11-.1.17-.04.06-.07.12-.11.19-.08.12-.16.26-.26.4-.04.07-.09.14-.14.21-.05.07-.1.14-.15.22-.05.07-.11.15-.16.22-.06.07-.11.15-.18.23-.06.08-.12.16-.18.24-.06.08-.13.16-.2.24-.07.08-.13.16-.2.24-.07.08-.14.16-.22.24-.07.08-.15.16-.22.25-.08.08-.15.16-.23.24-.08.08-.16.16-.24.24-.08.08-.16.16-.25.24-.09.08-.17.16-.26.24-.09.08-.18.16-.27.24-.09.08-.18.16-.27.23-.09.08-.18.16-.28.23-.09.08-.19.15-.28.22-.09.07-.19.15-.29.22-.05.04-.09.08-.14.11l-.15.11-.15.11c-.05.03-.1.07-.15.1-.2.14-.4.27-.6.4-.4.26-.8.49-1.2.72-.1.05-.2.11-.3.16-.1.05-.19.11-.29.15-.1.05-.19.1-.29.15-.04.03-.09.05-.14.07-.05.02-.09.04-.14.07-.05.02-.09.04-.14.07.07-.04.15-.09.23-.14.09-.05.18-.11.27-.17.09-.06.18-.12.27-.18.09-.06.18-.12.27-.18.09-.06.18-.13.27-.19l.07-.05.07-.05s.09-.07.14-.1c.05-.03.09-.07.14-.1l.07-.05.07-.05c.09-.07.18-.14.27-.21.36-.29.72-.58,1.06-.9l.13-.12.13-.12c.08-.08.17-.16.25-.24.08-.08.16-.16.25-.24.08-.08.16-.16.24-.25.32-.33.61-.67.89-1,.28-.33.53-.66.76-.99.03-.04.06-.08.09-.12.03-.04.06-.08.08-.12.05-.08.11-.16.16-.23.1-.16.2-.3.29-.45.19-.29.34-.56.48-.8.07-.12.13-.24.19-.34.06-.11.11-.2.15-.29.04-.09.08-.17.12-.24.04-.07.06-.13.08-.18.05-.1.07-.15.07-.15,0,0-.03.05-.08.14-.03.05-.06.1-.1.17-.04.06-.09.14-.14.23-.05.08-.11.17-.18.28-.07.1-.14.21-.22.32-.16.22-.34.48-.55.75-.1.14-.21.27-.33.42-.05.07-.12.14-.18.21-.03.04-.06.07-.09.11-.03.04-.07.07-.1.11-.25.3-.53.59-.84.89-.3.3-.62.6-.95.89-.09.07-.17.15-.25.22-.09.07-.17.14-.26.21-.08.07-.18.14-.26.21l-.13.1-.14.1c-.36.27-.73.53-1.1.77-.09.06-.19.12-.28.18l-.07.04-.07.04s-.09.06-.14.09c-.04.03-.09.05-.14.08l-.07.04-.07.04c-.09.05-.18.11-.28.16-.09.05-.18.1-.27.15-.09.05-.18.1-.27.15-.09.04-.18.09-.27.13-.09.04-.17.09-.26.13s-.17.08-.26.12c-.09.04-.17.08-.25.12-.08.04-.16.07-.24.11-.04.02-.08.03-.12.05-.04.02-.08.03-.12.05-.07.02-.13.05-.19.08.06-.03.12-.06.18-.1.14-.07.28-.15.42-.23.14-.08.29-.17.44-.25.15-.09.31-.19.47-.28.08-.05.16-.1.24-.15.04-.03.08-.05.12-.08.04-.03.08-.05.12-.08.08-.05.16-.11.24-.16.08-.05.16-.11.24-.17.16-.11.32-.23.48-.35.08-.06.16-.12.24-.19.08-.06.16-.12.24-.19.08-.06.16-.13.24-.19.08-.07.16-.13.23-.2.31-.26.61-.53.9-.81.29-.28.56-.56.81-.84.26-.28.49-.56.71-.83.03-.03.05-.07.08-.1.03-.04.05-.07.08-.1.05-.07.1-.13.15-.2.1-.13.19-.26.27-.38.17-.25.32-.48.45-.68.06-.11.12-.2.17-.29.05-.09.1-.18.14-.25.04-.08.08-.15.11-.21.03-.06.06-.11.08-.15.04-.08.06-.13.06-.13,0,0-.03.04-.08.12-.03.04-.06.09-.1.14-.04.06-.08.12-.13.19-.05.07-.11.15-.17.23-.06.09-.13.17-.2.27-.15.19-.32.4-.52.62-.1.11-.2.23-.31.34-.06.06-.11.12-.17.18-.03.03-.06.06-.08.09-.03.03-.06.06-.09.09-.24.24-.5.49-.77.74-.27.25-.57.49-.87.73-.3.24-.62.47-.95.69-.08.06-.16.11-.24.16-.08.05-.16.11-.25.16-.08.06-.17.11-.25.16-.08.05-.17.1-.25.15-.17.1-.33.19-.5.29-.08.04-.16.09-.25.13-.08.04-.16.09-.25.13-.04.02-.08.04-.12.06-.04.02-.08.04-.12.06-.08.04-.16.08-.24.12-.16.08-.31.15-.47.22-.16.07-.3.13-.45.2-.14.06-.29.12-.42.17-.01,0-.02,0-.03.02.02-.01.04-.02.06-.03.13-.07.26-.14.4-.22.14-.08.28-.16.42-.24.29-.17.59-.35.89-.55.31-.2.61-.42.92-.64.08-.06.15-.12.23-.17.07-.06.15-.12.23-.18l.11-.09s.07-.06.11-.09c.07-.06.15-.12.22-.19.3-.25.58-.51.85-.78.27-.27.53-.54.76-.81.24-.27.46-.54.66-.8.1-.13.2-.26.28-.38.09-.12.17-.25.25-.37.04-.06.08-.12.12-.18.04-.06.07-.11.11-.17.07-.11.13-.21.19-.31.06-.1.12-.19.16-.28.05-.09.09-.17.13-.24.04-.07.07-.14.1-.2.03-.06.05-.11.07-.15.04-.08.06-.12.06-.12,0,0-.02.04-.07.11-.02.04-.05.09-.09.14-.03.05-.07.11-.12.18-.05.07-.1.14-.16.22-.06.08-.12.17-.19.26-.06.09-.14.19-.22.29-.04.05-.08.1-.12.16-.04.05-.09.1-.13.16-.09.11-.18.22-.29.34-.1.12-.21.23-.32.35-.22.23-.46.47-.72.71-.26.24-.53.48-.82.71-.29.23-.59.46-.89.67-.08.05-.15.1-.23.16-.04.02-.08.05-.12.08l-.12.08c-.08.05-.15.1-.23.15-.08.05-.16.1-.24.14-.32.19-.63.36-.94.53-.31.16-.62.31-.91.44-.14.07-.29.13-.42.19-.14.06-.28.11-.4.17-.05.02-.1.04-.15.06.04-.02.09-.04.14-.07.02,0,.04-.02.06-.03,0,0,.02-.01.03-.02.01,0,.02-.01.03-.02.04-.02.08-.05.13-.07.09-.05.18-.11.28-.16.05-.03.1-.06.16-.09.02-.02.05-.03.08-.05.03-.01.05-.03.08-.05.11-.06.21-.13.33-.2.12-.07.23-.14.35-.22.24-.16.49-.33.73-.52.06-.04.12-.09.19-.14.03-.02.06-.05.1-.07l.04-.04.05-.04c.12-.1.25-.2.37-.3.03-.03.06-.05.1-.08.03-.03.06-.05.09-.08.06-.06.13-.11.19-.16.12-.11.25-.21.37-.33.12-.11.24-.23.36-.34.11-.12.23-.23.34-.35.03-.03.06-.06.08-.09.03-.03.06-.06.08-.09.05-.06.11-.12.16-.18.05-.06.1-.12.16-.18l.08-.09s.05-.06.07-.09c.1-.12.19-.24.28-.35.09-.12.17-.23.26-.35.08-.11.16-.22.23-.34.03-.06.07-.11.11-.16.04-.05.07-.1.1-.16.06-.1.12-.2.18-.3.03-.05.06-.09.09-.14.03-.05.05-.09.07-.13.04-.09.09-.17.13-.24.02-.04.04-.07.06-.11.02-.04.03-.07.05-.1.12-.25.2-.4.2-.4,0,0-.08.14-.23.38-.02.03-.04.06-.06.09-.02.03-.04.07-.07.1-.05.07-.1.15-.15.23-.03.04-.05.08-.09.13-.03.04-.06.09-.09.13-.07.09-.13.18-.2.28-.04.05-.08.1-.12.15-.04.05-.08.1-.12.15-.08.1-.17.21-.26.31-.09.1-.19.21-.28.32-.1.1-.2.21-.31.32-.03.02-.05.05-.08.08l-.04.04-.04.04c-.05.05-.11.11-.17.16-.06.05-.11.11-.17.16-.03.03-.06.05-.08.08-.03.03-.06.05-.09.08-.12.1-.24.21-.36.31-.13.1-.25.2-.37.3-.12.1-.26.19-.38.29-.07.04-.13.09-.19.14-.03.02-.06.05-.09.07-.04.02-.07.04-.1.07-.13.09-.26.17-.39.26l-.05.03-.05.03s-.06.04-.1.06c-.07.04-.13.08-.19.12-.25.16-.51.29-.75.43-.12.07-.24.12-.35.18-.12.06-.23.11-.34.17-.03.01-.05.03-.08.04-.03.01-.05.02-.08.04-.05.02-.1.04-.15.07-.1.04-.19.09-.28.13,0,0-.02,0-.02.01v-.43s.05-.02.07-.03c.03-.02.07-.04.11-.06.04-.02.07-.04.11-.07.08-.04.16-.09.25-.14.04-.03.09-.05.13-.08.04-.03.09-.05.14-.08.09-.06.19-.12.29-.18.05-.03.1-.06.15-.1.03-.01.05-.03.08-.05.03-.02.05-.04.08-.05.1-.07.21-.14.31-.22.05-.04.11-.08.16-.12.05-.04.1-.08.16-.12.11-.08.22-.17.33-.25.11-.09.21-.18.32-.27.02-.02.05-.05.08-.07l.04-.03.04-.04c.05-.05.1-.1.16-.14.05-.05.11-.1.16-.15.03-.02.05-.05.08-.07l.08-.08c.1-.1.2-.2.3-.3.1-.1.19-.21.29-.31.1-.1.19-.21.27-.32.09-.11.18-.21.25-.32.08-.11.16-.21.24-.32.07-.11.14-.21.21-.31.02-.02.04-.05.05-.07,0-.01.02-.03.02-.04,0-.01.02-.02.02-.04.03-.05.06-.1.09-.15.03-.05.06-.1.09-.14.03-.05.06-.09.09-.14.05-.09.1-.18.14-.27.02-.04.05-.08.07-.12.02-.04.04-.08.06-.12.04-.08.07-.15.11-.22.02-.03.03-.07.05-.09.01-.03.02-.06.04-.09.1-.22.16-.35.16-.35,0,0-.07.12-.19.33-.02.03-.03.06-.05.08-.02.03-.04.06-.05.09-.04.06-.08.13-.13.2-.02.04-.05.07-.07.11-.03.04-.05.08-.08.11-.06.08-.12.16-.17.25-.03.04-.06.08-.1.13-.03.04-.07.09-.1.13-.04.05-.07.09-.11.14,0,.01-.02.02-.03.03,0,.01-.02.02-.03.04-.02.02-.04.04-.06.07-.08.09-.16.19-.24.28-.09.09-.17.19-.26.28-.09.1-.18.19-.28.28-.09.09-.19.19-.3.28-.1.09-.2.18-.31.27-.11.09-.22.18-.32.26l-.08.07s-.05.04-.08.06c-.06.04-.11.08-.17.12-.06.04-.11.08-.17.12l-.04.03-.04.03s-.06.04-.08.06c-.12.08-.23.15-.34.23-.11.07-.23.14-.34.21-.05.03-.11.07-.16.1-.06.04-.11.06-.17.09-.11.06-.22.12-.32.18-.03.01-.05.03-.08.04-.03.01-.05.02-.08.04-.05.03-.1.05-.16.08-.1.05-.2.1-.29.14-.05.03-.09.04-.14.06-.05.02-.09.04-.13.06-.04.02-.08.03-.11.05v-.5c.11-.06.22-.12.33-.18.08-.05.16-.1.25-.15.04-.03.09-.06.13-.08.02-.01.04-.03.07-.04.02-.01.04-.03.07-.04.09-.06.18-.12.27-.18.02-.02.05-.03.07-.05.02-.02.05-.03.07-.05.04-.04.09-.07.14-.1.05-.03.09-.07.14-.11.02-.02.05-.03.07-.05.01,0,.03-.02.04-.03l.03-.03c.09-.08.19-.15.28-.23.02-.02.05-.04.07-.06l.07-.06s.09-.08.13-.12c.05-.04.09-.08.14-.13l.13-.13.13-.13.06-.07.06-.07c.08-.09.16-.18.24-.28.07-.09.15-.19.22-.28.02-.03.04-.05.06-.07.02-.03.03-.05.05-.07.03-.05.06-.1.1-.14.03-.05.06-.09.1-.14.03-.05.06-.09.09-.14.03-.05.06-.09.09-.14.01-.02.03-.04.04-.07l.02-.03.02-.03c.1-.18.21-.35.29-.51.04-.08.08-.16.12-.23.03-.07.07-.14.1-.21.03-.07.06-.13.09-.19.03-.06.05-.11.07-.16.09-.19.13-.3.13-.3,0,0-.06.1-.17.28-.03.04-.06.09-.09.15-.04.05-.07.11-.11.17-.04.06-.08.13-.13.2-.05.07-.1.14-.15.21-.1.15-.22.3-.34.46l-.02.03-.02.03s-.03.04-.05.06c-.03.04-.06.08-.1.12-.04.04-.07.08-.1.12-.03.04-.07.08-.11.12-.04.04-.07.08-.11.13-.02.02-.04.04-.06.06-.02.02-.04.04-.06.06-.08.08-.16.16-.24.24-.08.08-.17.15-.26.23l-.06.06-.07.05-.14.11-.14.11s-.09.07-.14.1c-.05.04-.1.07-.14.1l-.07.05s-.05.03-.07.05c-.1.06-.19.13-.29.19l-.04.02s-.02.02-.03.02c-.02.01-.05.03-.07.04-.05.03-.1.05-.14.08-.05.03-.09.05-.14.08-.02.01-.05.03-.07.04-.03.01-.05.02-.07.04-.09.05-.19.1-.27.14-.02.01-.04.02-.07.03-.02,0-.04.02-.06.03-.04.02-.08.04-.11.05.02-.09.05-.18.08-.28,0,0,.07-.05.18-.13.03-.02.06-.04.09-.07,0,0,.02-.02.03-.02.01,0,.02-.01.03-.02.02-.02.04-.03.06-.05.04-.03.09-.07.13-.11.03-.02.05-.04.07-.06.02-.02.05-.04.07-.06.05-.04.1-.09.15-.13.02-.02.05-.05.08-.07.03-.02.05-.05.08-.07.05-.05.11-.1.17-.15.05-.05.11-.11.17-.17.12-.11.22-.24.34-.36.06-.06.11-.13.16-.19.02-.03.05-.07.08-.1l.08-.1.08-.1s.05-.07.08-.1c.05-.07.1-.13.14-.2.05-.07.09-.14.14-.21.02-.03.04-.07.06-.1.02-.03.04-.07.06-.1.04-.07.08-.13.12-.2.04-.07.07-.13.11-.19.04-.06.07-.13.1-.19.03-.06.06-.12.09-.18.03-.06.05-.11.07-.16.01-.03.03-.05.04-.08.01-.02.02-.05.03-.07.02-.05.04-.09.05-.13,0-.02.02-.04.03-.06,0-.02.01-.03.02-.05.05-.13.08-.21.08-.21,0,0-.04.07-.12.19,0,.02-.02.03-.03.05-.01.02-.02.04-.03.05-.02.04-.05.07-.08.12-.01.02-.03.04-.04.07-.02.02-.03.04-.05.07-.03.05-.07.1-.1.14-.03.05-.08.1-.11.15-.04.05-.08.11-.13.16-.04.05-.09.11-.13.17-.05.06-.1.11-.15.17-.03.03-.05.06-.08.09-.03.03-.05.06-.08.08-.05.06-.11.11-.16.17-.06.06-.12.11-.17.17-.03.03-.06.06-.09.08l-.09.08-.09.08s-.07.05-.09.08c-.06.05-.12.1-.18.15-.13.09-.25.19-.37.28-.06.04-.12.09-.18.13-.06.04-.12.08-.18.12-.03.02-.06.04-.08.05-.03.02-.05.03-.08.05.08-.24.16-.46.24-.63.4-.88,1.04-2.47,1-2.7-.25-1.29-.57-2.34-2.52-3.75,4.1,4.08.44,7.4.21,7.68-.1.35-.56.76-.56.76-.04.03-.07.06-.1.08-.07.05-.11.08-.11.08,0,.21,0,.42-.01.62-.57-.94-2.71-4.34-5.42-7.21l.03,1.27s3.37,1.68,5.15,6.86c.02.16.04.32.07.49-.17-.08-.3-.15-.3-.15.19.53.32,1.1.4,1.65-.46-.58-1.23-1.47-2.29-2.38,0,0,1.22,1.14,1.85,3.27.08.51.18,1.18.26,1.71-.97-1.09-2.72-3.07-4.67-5.37-.17-.2-.42-.54-.51-.92l.05,1.33s2.99,2.01,5.12,5.75l-.46-.26s.46,2.23.55,2.77c-.9-1.02-2.58-2.94-4.5-5.19-.23-.27-.46-.67-.64-1.22l.08,1.66s3.02,1.57,4.9,5.83l-.78-.33s.5.7.77,1.44c0,0,0,0,0,0-.52-.48-1.2-1.04-2.01-1.61,0,0,1.41,1.18,2.04,3.06h-.05s-.27,0-.27,0c0,0,.38.53.56,1.08,0,.01,0,.02,0,.03-.53-.49-1.23-1.08-2.08-1.69,0,0,1.27,1.07,1.91,2.53h-.27s.16.51.24,1.08c-.51-.27-1.15-.6-1.89-.98,0,0,.81.42,1.51,1.67h-.08s-.27,0-.27,0c0,0,.46.65.62,1.25-.17-.08-.35-.12-.54-.12-.81,0-1.95.51-2.36.7-.01-.01-.03-.03-.04-.04-.36-.32-.75-.66-1.57-.66-.78,0-1.9.98-2.27,1.29-.17-.09-.32-.12-.4-.14-.21-.06-.65-.28-1.2-.28-1.31,0-3.23,2.97-2.79,2.52,1.05-1.07,2.17-1.73,2.97-1.73s1.21.07,2.25.83c-.16-.54-.38-.85-.6-1.04.28-.16,1.29-.71,2.16-.71,1.02,0,1.65.68,2.05,1.41.1-.38-.04-.76-.24-1.07.42-.13,1.5-.46,2-.46.62,0,1.31.58,1.91,1.94,0-.47-.11-.93-.29-1.32.27-.09,1.23-.45,1.75-.15.6.35,1.62,1.32,1.37,2.79-.25,1.48-.76,1.75-1.41,1.81-.65.06-.44-.07-.73-.1-.29-.03-.9-.08-.99-.81-.4.65-.87,1.12-1.84,1.13.16-.23.14-.61.14-.61,0,0-1.03.09-1.48-.53-.39.64-1.21,1.32-1.82,1.42.09-.27.23-.56.23-.56,0,0-1.17.32-1.41-.37-.51.57-1.15,1.08-1.65,1.28.01-.43-.06-.88-1.47-.43-.32.1-.63.23-.94.36-.05,0-.09.01-.14.02-.09.02-.18.03-.27.05-.19.04-.37.08-.55.14-.04.02-.09.03-.14.05-.01,0-.05.02-.07.03-.05.03-.11.05-.16.08,0,0-.01,0-.02,0-.45,0-.81-.27-1.04-1.01-.11-.01-.21-.37-.24-.78,0-.49.04-.86.04-.86-.67,1.2-.55,2.21-.45,2.64l-.07.02-1.01.18c-.05-.26-.26-1.59.42-3.03.26-.19.68-.5.9-.75.4-1.99,1.15-2.7,2.56-4.01-.78.38-2.85,1.9-3.43,2.83.13-1.46,1.6-3.37,3.43-5.04-1.47.85-3.13,2.74-3.82,3.84-.14-.47.3-1.57.3-1.57,0,0-.17.15-.58.67-.3-1.31,1.55-3.52,3.43-5.65-1.05.46-3.18,2.7-3.81,3.75-.47-1.85,1.93-5.11,2.57-5.87-.78.53-2.25,2.06-3.03,3.33-.11-.52.38-2.03.38-2.03,0,0-.23.15-.53.74-.03-1,1.45-3.13,1.98-3.8-.25.17-1.4,1.18-2.35,2.46-.09-.69.53-2.13.53-2.13,0,0-.15.08-.65.89-.12-1.43,1.57-3.21,2.47-4.19-.57.39-2.02,1.75-2.82,2.77-.14-1.1.81-2.23.81-2.23,0,0-.67.58-.98.98.06-1.1.47-1.93,3-4.77-1.2.71-2.31,2.19-3.19,3.49-.11-2.2.61-3.39,2.21-5.42-.25.11-1.75,1.59-2.51,2.69.06-.77,1.09-2.56,1.09-2.56l-1.14,1.16s-.07-.29.05-.61c.11-.32,1.27-2.15,2.96-4.14-2.05,1.56-3.75,4.41-3.75,4.41.02.3.04.8.07,1.4-.22-.12-.44-.24-.68-.39.01-.07.02-.15.03-.22.02-.09.03-.18.05-.27.02-.09.04-.18.06-.28.02-.09.04-.19.07-.28l.03-.14s.03-.09.04-.14c.02-.09.05-.19.08-.28,0,0,0-.02,0-.03-.12-.09-.22-.18-.33-.27-.02.09-.04.18-.06.27-.02.1-.04.19-.06.29,0,.05-.01.1-.02.14l-.02.14c-.02.1-.03.19-.04.29-.01.09-.02.19-.03.28-.01.09-.02.19-.02.28,0,.03,0,.06,0,.09-.26-.17-.54-.37-.83-.6.02-.07.03-.14.05-.21.02-.09.05-.18.07-.27.03-.09.05-.18.08-.27.03-.09.06-.18.09-.27l.05-.14s.03-.09.05-.14c.03-.09.07-.18.1-.27.02-.05.04-.1.06-.14-.1-.12-.2-.25-.29-.38-.02.06-.04.12-.06.18-.03.09-.06.18-.08.27-.03.09-.05.19-.08.28-.01.05-.02.09-.04.14l-.03.14c-.02.1-.04.19-.06.28-.02.09-.03.19-.05.28-.02.09-.03.18-.04.28,0,.02,0,.04,0,.06-.23-.19-.47-.41-.71-.66,0,0,.24.3.7.77,0,.03,0,.06,0,.09,0,.09-.02.18-.02.26,0,.09-.01.17-.02.25,0,.04,0,.08,0,.12s0,.08,0,.12c0,.08,0,.15,0,.22,0,.09,0,.18.01.26-.33-.26-.68-.55-1.04-.89.01-.11.02-.23.04-.37,0-.07.02-.14.03-.22,0-.04.01-.08.02-.11,0-.04.01-.08.02-.12.02-.08.03-.16.05-.24.02-.09.04-.17.06-.26.03-.09.05-.17.07-.26.03-.09.05-.18.08-.27.03-.09.06-.18.09-.27.03-.09.06-.18.1-.27l.05-.14s.04-.09.05-.13c.03-.09.07-.18.11-.26.04-.09.08-.18.12-.26.04-.07.07-.15.11-.22-.09-.18-.17-.36-.25-.55-.02.05-.04.11-.07.17-.03.08-.07.17-.1.26-.04.08-.06.17-.1.26-.03.09-.06.18-.09.27-.03.09-.06.19-.09.28-.01.04-.03.09-.04.14l-.04.14c-.03.09-.05.18-.07.28-.02.09-.04.19-.06.28-.02.09-.04.18-.05.27-.01.09-.03.18-.04.27-.01.09-.02.18-.03.26,0,.08-.02.17-.02.25,0,.04,0,.08,0,.12,0,.04,0,.08,0,.11,0,.08,0,.15,0,.22,0,.11,0,.21,0,.3-.17-.16-.35-.33-.53-.5,0,0,.19.24.53.62,0,.1,0,.18.02.25.02.16.03.26.03.26,0,0,0-.09,0-.26,0-.05,0-.12,0-.19.28.32.64.72,1.08,1.17,0,0,0,0,0,.01.02.16.04.25.04.25,0,0,0-.08,0-.23.57.59,1.27,1.27,2.04,1.93.01.18.03.36.04.53-.62-.33-2.67-1.55-5.04-4.35,0,0,.54.9,1.36,2.04l1.81,3.63-.45-.21s-1,2.06-1.35,4c.71-1.96,1.6-3.04,1.97-3.44l.38.74c-.39.81-1.15,2.51-1.48,4,.78-1.82,1.59-2.81,1.87-3.12-.48,1.48-1.25,3.94-1.67,5.47,1.12-2.34,1.83-3.36,2.14-3.77,0,.02,0,.03.01.05-.54,2.17-2.06,8.31-2.34,10.1-.21-.9-.6-3.1-.2-5.01-.26.7-.5,1.91-.64,2.74-.16-.79-.54-2.9-.14-4.32-.22.46-.47,1.14-.66,1.71-.13-.68-.35-2.39.46-4.34-.5.86-.94,2.11-1.15,2.77-.26-1.72-.17-3.39.04-4.26-.28.71-.5,1.7-.64,2.48-.1-.42-.25-1.12-.19-1.6-.11.29-.2.63-.25.86-.22-.86-.38-1.86-.28-2.73,0,0-.2.54-.3,1.28-.21-.92-.46-2.43-.26-3.91,0,0-.45,1.25-.56,2.27-.21-.93-.43-2.38-.24-3.81,0,0-.24.66-.41,1.41-.18-.91-.32-2.17-.16-3.4,0,0-.2.55-.36,1.21-.19-.55-.59-1.91-.57-3.14,0,0-.09.15-.19.33-.02-.57,0-1.22.12-1.82,0,0-.11.12-.23.28-.09-.56-.42-2.76-.05-4.63,0,0-.14.15-.3.36.04-.94.17-2.57.68-3.95,0,0-.09.07-.21.18.1-.59.4-1.95,1-3.01,0,0-.21.12-.42.27,1.09-3.79,2.93-8.18,5.46-10.81,0,0,.78-.89,1.12-1.12.47-.31,1.01-.67,1.13-.74.19-.36,1.07-1.79,2.6-3.28-.04.21-.58,1.58-.59,1.86.32-.23.74-.39.74-.39,1.59-4.9,2.7-6.56,5.76-9.24-.07,1.73.79,3.63.9,3.73-1.33-4.87.56-7.78.77-8.01.08-.59.52-1.47.87-2.05-.08-.99.34-1.92.55-2.31-.14-2.63.65-4.29.65-4.29,0,0-.28.31-.41.44-.15-.1-.41-.58-.41-.58,0,0-.18.28-.28.58-.65-.96-.56-2.11-.56-2.11,0,0-.22.22-.36.43-.45-.72-.15-1.83-.15-1.83l-.44.18s-.68-1.4.8-2.73c1.48-1.33,2.68-.52,2.68-.52,0,0-.05-.19-.07-.28,1.22.02,1.81.57,1.81.57,0,0,1.2-1.56,2.22-1.8-.25-.07-.44,0-.44,0,0,0,.57-.86,2.65-1.08-.2-.18-.55-.38-.55-.38,0,0,.93-.25,2.35,0-.12-.25-.27-.44-.27-.44,0,0,.72.31,1.17.43.45.11,1.05.39,1.05.39,0,0,.3-.1.62.02.17-.07.51-.07.66-.02.24-.11.8-.2,1.04-.18.31-.15.96-.39,1.18-.41.13.11.23.23.23.23,0,0,.84-.26,1.14-.28-.12.1-.17.23-.17.23,0,0,.63-.2,1.23.2-.24.2-.43.36-.43.36,0,0,.98-.05,1.48.15l-.34.18s.77-.02,1.14.16c-.09.08-.17.2-.17.2,0,0,.51.06.71.36-.11.1-.26.18-.26.18,0,0,1.15.12,1.8,1.19l.16.47s.55-.55.88-.69c-.04.14-.07.4-.07.4,0,0,1.41-1.15,3.15-.07-.06.02-.17.06-.2.07.08.02,1.05.59,1.12,1.26-.19-.1-.42-.23-.42-.23,0,0,.68.65.57,1.86-.14-.05-.41-.14-.41-.14,0,0,.39.61.28,1.38-.12-.09-.23-.2-.23-.2,0,0-.09.83-.42,1.58-.1-.2-.2-.34-.2-.34,0,0-.08.42-.48.48.01.11.03.52-.24.67-.14-.12-.8-.71-.8-.71,0,0,.07.15.07.24,0,.01,0,.02,0,.03.07.07.52.71.54,1.11.14.16.62.79.62.79,0,0-.3-.13-.44-.12.13.17.52.72.56,1.36-.18-.05-.32-.06-.32-.06,0,0,.32.3.42.7-.14-.07-.29-.08-.29-.08,0,0,.56.69.57,1.33-.23-.21-.42-.35-.56-.41.14.28.52.9.4,2.22-.15-.14-.56-.48-.56-.48,0,0,.6,1.62.73,2.15-.07.04-.33.09-.33.09,0,0,.72.6,1.2,1.54-.19-.04-.52-.07-.52-.07,0,0,.56.62.72,1.14-.21-.05-.48-.06-.48-.06,0,0,.46.45.68,1.63-.1-.02-.14,0-.14,0,0,0,.56.78.63,1.21-.16-.1-.6-.29-.6-.29,0,0,1.57,1.83,1.21,4.5-.09-.08-.43-.21-.43-.21,0,0,.57,1.32.72,2.4-.12-.09-.42-.18-.42-.18,0,0,1.02,1.72,1.12,2.68-.13-.05-.61-.41-.61-.41,0,0,1.39,1.39,1.49,4.41-.29-.26-1.14-.95-1.45-1.06.47.56,2.47,2.64,1.84,5.26-.16-.81-.63-2.13-2.23-2.95.93.95,2.62,2.74,2.09,5.55-.2-.24-.56-1.53-1.83-2.68-.52-.47-1.46-1.34-1.63-1.72.18.74.73,1.44,1.27,2.05.54.61,2.06,2.42,2.15,3.43.09,1.01-.18,1.39-.18,2.19-.21-.59-.74-1.66-1.29-2.3-.55-.64-2.75-3.01-2.93-3.38.21.64,1.39,2.37,2.07,3.21.69.84,2.07,3.35,2.05,5.59-.33-.63-1.69-2.57-2.22-3.22-.53-.65-2.1-2.57-2.42-3.06.22.64,1.71,2.88,2.41,3.92.42.63,1.26,1.78,1.8,3.33.31,1.28.12,2.37.03,2.89-.15-.24-.34-.5-.56-.79v-.02s-.01,0-.01,0c-.71-.92-1.77-2.07-3.32-3.46,3.49,3.68,3.38,5.86,3.38,5.86-.02.3-.04.59-.05.89,0,.4-.02.8-.05,1.2-.35-.51-1.37-1.82-3.98-4.35,0,0,3.09,3.62,3.83,5.43-.05.25-.12.5-.22.74-.03.08-.09.15-.16.19-.02.49-.07.96-.12,1.43-.56-.48-2.36-2.06-4.05-4.04,1.57,2.2,3,4.07,3.29,4.91.03.31.04.63.04.95l-.31-.3s.12.84.14,1.8c-.74-.75-2.11-2.19-3.39-3.9,1.01,1.64,1.97,3.11,2.51,4.13.08.96.04,1.96-.07,2.89-.77-.8-1.96-2.1-3.08-3.59,1.03,1.67,2,3.15,2.54,4.17.06.71.05,1.45,0,2.16-.77-.79-2.02-2.14-3.2-3.71.36.58.7,1.21,1.02,1.82l1.64,2.64-.47-.13c.18.43.27,1.29.31,1.93-.4-.51-1.14-1.38-2.52-2.82,0,0,2.25,3,2.32,4.8-.02.06-.02.11-.02.15h0c-.18-.25-.39-.51-.63-.78,0,.1,0,.19,0,.29l-1.4-1.63s.93,1.59,1.38,2.66c-.01.4-.04.8-.07,1.2,0,.09-.01.18-.03.27-.22-.32-.74-.98-1.71-1.83,0,0,1.27,1.72,1.61,2.67-.05.34-.12.67-.21,1,0,.02,0,.04,0,.06-.1-.02-.2-.03-.31-.03-.23-.42-1.19-1.35-1.19-1.35.48.73.53,1.26.54,1.42-.27.07-.58.19-.9.38.95-.23,2.07-.17,2.69.82.36.92-.25,1.62-.48,1.89-.8,1.54-2.16,1.26-2.16,1.26M143.67,98.74l.31.11s.03-1.76-.52-2.59c.59.43.87.72.87.72,0,0-.33-1.89-.84-2.54.4.23.87.64.87.64,0,0-.23-1.55-.94-2.27.62.41,1.01.81,1.01.81,0,0-.18-1.05-.87-1.78.53.07.82.42.82.42l-.2-1.85s.02-.01.03-.02c.04-.03.08-.05.13-.07.09-.05.17-.1.26-.15.18-.09.36-.2.55-.31.04-.03.09-.05.14-.08.04-.03.09-.06.14-.09.06-.04.12-.07.18-.11-.03.43-.06.85-.06,1.16,0,.98.04,2.98.04,3.4l.32-.29s-.27,1.48-.31,1.97c-.05.49-.14,1.91-.14,1.91l.14-.1-.17.98.08.02s-.21,1.64-.22,2.11c.06-.15.22-.21.22-.21,0,0-.33,1.1-.39,1.81l.22-.09s0,.01,0,.03c-.2.13-.39.29-.55.49-.34-.48-.46-.6-.46-.6l-.25-.31c-.24-.77-.48-1.72-.12-1.5-.02-.81-.28-1.64-.28-1.64M122.93,85.93c0-.07,0-.14,0-.22,0-.04,0-.08,0-.12,0-.04,0-.08,0-.12,0-.05,0-.11.01-.16.23.21.49.44.76.67.01.27.03.56.04.85-.26-.15-.54-.32-.83-.51h0c0-.13-.01-.25,0-.4M122.79,85.49s0,.08,0,.12c0,.04,0,.08,0,.12,0,.07,0,.15.02.22,0,.12.03.24.04.34-.34-.22-.69-.47-1.08-.77,0-.1,0-.21.02-.32,0-.07.01-.14.03-.22,0-.04.01-.08.02-.12,0-.04,0-.08.02-.12.02-.08.03-.16.04-.25.01-.06.02-.11.03-.17.24.24.52.52.85.82,0,.03,0,.06,0,.08,0,.09,0,.17,0,.25"/>
      <path d="M143.57,40.48c.1.14.39.22.55.28.76.28,1.65.43,2.52.42.95-.01,2.03-.2,2.78-.52.29-.12.44-.27.43-.47,0-.15-.11-.24-.2-.26-.25-.08-.48,0-.71.1-.26.11-1.01.39-1.38.21-.34-.17-.4-.49-.42-.86-.01-.29.03-.69.03-.99,0-.42.1-.74.48-.96.38-.23.77-.39,1.12-.65.34-.25.53-.26.62-1.03.06-.57.16-1.18-.11-1.72-.23-.48-.82-.74-2.02-.74-.96,0-2.8-.24-2.86,1.09-.02.49-.1.99,0,1.48.07.36.28.63.55.87.29.27.57.55.89.79.66.49.39,1.43.41,2.14.01.38-.25.57-.6.61-.42.05-.82-.12-1.24-.23-.23-.06-.41-.17-.65-.1-.29.09-.36.31-.18.55M147.79,35.93c.06-.02.12-.04.19-.05.07,0,.13,0,.18-.02.05,0,.1-.02.15-.04.17-.07.3-.22.37-.39.01.29-.03.47-.27.6-.24.13-.54.12-.8.03.05-.05.11-.1.18-.13M144.98,35.11c0-1.24.07-1.41,1.5-1.41.01.14-.04.46-.38.46-.44,0-.72.19-.79.63-.02.09-.16.3-.33.32M145.32,35.96c0-.25.51.01.77-.1.33-.14.35-.49.5-.6.03.39.03.62-.26.78-.32.17-.73.1-1.01-.08"/>
      <path d="M153.05,36.12c-.2.87-.18,1.45.15,2.28.33.84,1.05,2.4.6,4.78.58-1.54.51-3.7-.1-5.28-.33-.83-.5-1.02-.65-1.79"/>
      <path d="M150.78,31.42c-.22.37-.12,1.03.53,1.03.74,0,1.3-.03,1.5-.08.2-.05.57-.12.57-.45,0-.25-.19-.97-1.56-.97-.56,0-.79.04-1.03.46"/>
      <path d="M140.98,32.48c.2.05.79.09,1.52.02.63-.06.84-.4.58-1.02-.19-.45-.66-.57-1.21-.46-1.38.25-1.46.76-1.46,1.02,0,.33.36.4.57.45"/>
      <path d="M144.68,65.32c-.03-.56-.15-1.26-.5-1.85.19.52.23,1.49.15,2.19-.13,1.12.44,2.15,1.13,3.21.74,1.14,1.01,1.66,1.6,3.56,0-1.04-.41-3.25-1.12-4.3-.7-1.06-1.21-1.75-1.27-2.81"/>
      <path d="M144.02,69.01c.58.7,1.09,1.96,1.09,1.96-.1-.78-.7-2.68-1.24-3.41-.53-.73-.84-1.34-.91-2.25-.08-1.07-.31-1.67-.86-2.36,0,0,.63,1.11.47,3.17-.09,1.26.87,2.19,1.45,2.89"/>
      <path d="M141.87,67.42c-.48-.76-.89-1.61-.93-2.52-.05-1.26-.37-2.84-.91-3.55.1.17.49,1.02.14,3.74-.16,1.25,1.26,2.48,1.7,3.27.43.79.8,3.07.8,3.07-.1-.78.29-2.31-.8-4"/>
      <path d="M140.03,61.35s-.01-.02-.02-.03c0,0,.01.02.02.03"/>
      <path d="M138.09,59.64c.26.87.24,1.59,0,2.8-.21,1.05.33,2.28,1.01,3.82-.42-.96-.33-3.05-.33-4.31s-.68-2.31-.68-2.31"/>
      <path d="M136.9,59.46c.02-.7-.46-1.57-.46-1.57,0,0,.09.78-.07,1.75-.12.72.13,1.68.53,2.47-.15-1.26-.02-1.95,0-2.65"/>
      <path d="M138.32,92.68c-1.61-1.84-2.26-1.89-2.73-2.94,0,.87.07,1.41.07,1.41,0,0,1.29.33,2.65,1.53"/>
      <path d="M135.41,81.15s1.18.76,2.57,2.2c-1.45-1.99-2.15-2.56-2.62-3.6,0,.87.05,1.41.05,1.41"/>
      <path d="M153.28,80.63c1.03-1.35,1.8-3.51,1.8-3.51,0,0,1.51,2.87,2.35,4-1.33-2.36-2.35-6.4-2.35-6.4-.32,2.1-1.1,4.37-1.8,5.91"/>
      <path d="M148.55,27.94c-.97.11-1.82.63-1.82.63v.8s.69-1.13,1.82-1.42"/>
      <path d="M149.81,27.1c-2.46,0-3.08.32-3.08.32v.75s.57-.71,3.08-1.07"/>
      <path d="M146.14,28.05v-.52s-.41-.26-1.05-.19c.56.03,1.05.71,1.05.71"/>
      <path d="M149.72,32.34c0-1.31.13-2.51.18-2.74.08,0,.19.12.19.12,0,0,.53-.63,1-.84-.34.07-.76.17-1.54.55,0,0-.14,1.92.17,2.92"/>
      <path d="M153.1,28.87c.87.13,2.08.83,2.08.83,0,0-.93-.76-1.53-1.04-.6-.28-.94-.21-1.2-.15-.26.06-1,.37-1,.37,0,0,.79-.13,1.65,0"/>
      <path d="M156.3,32.86c0-.63.03-1.49-.44-2-.47-.51-1.47-1.03-1.75-1.16,0,0,1.93,1.75,2.2,3.16"/>
      <path d="M157.81,32c-.21-.02-.32,0-.32,0,0,0,.53.86.56,1.39.3.12.94.42.94.42,0,0,.11-.6-.17-1.27.25.15.5.34.5.34,0,0,.01-.56-.2-.96.19.19.35.29.35.29,0,0-.06-.81-.35-1.07.17-.02.41.01.41.01,0,0-.43-.46-.95-.66.2-.05.52-.13.52-.13,0,0-.46-.23-1.27-.16.08-.12.1-.22.1-.22,0,0-.55.02-1.3.61,0,0,.93.9,1.19,1.41"/>
      <path d="M135.74,32.97c.04-.36.3-1.02.68-1.16-.33.05-.55.25-.69.36.11-.32.45-1.06,1.06-1.37,0,0-.36-.44-.93-.56.05.12.09.28.09.28,0,0-.42-.23-1.23-.15.25.12.43.34.43.34,0,0-1.01-.15-1.45.98.27-.18.81-.18.81-.18,0,0-.5.43-.45,1.47.32-.36,1.11-.63,1.11-.63,0,0-.41.54-.32,1.55.24-.44.61-.83.9-.93"/>
      <path d="M136.06,35.49c-.11-.53.19-1.09.19-1.09-.59.52-1.21,1.92-1.2,2.74.13-1.02.69-1.44,1.01-1.64"/>
      <path d="M135.05,39.72c-.01-1.12.76-1.93.95-2.06-.09-.18,0-.85,0-.85-.56.51-1.1,2.16-.95,2.91"/>
      <path d="M136.07,39.02c-.19.47-.63,1.64-.15,2.68-.19-1.01.32-1.71.32-1.71-.15-.21-.17-.97-.17-.97"/>
      <path d="M134.84,42.02c-.09-.24,0-1.06,0-1.06-.31.4-.96,1.5-.79,2.63.09-1.02.78-1.56.78-1.56"/>
      <path d="M135.63,41.93c-.9,1.08-1.14,3.57-.12,4.94-1.02-2.26.2-4.07.2-4.07-.08-.14-.07-.87-.07-.87"/>
      <path d="M136.82,44.31c-.37-.43-.12-1.19-.14-1.16-.65,1.31-.39,3.4.14,4.25-.52-1.25-.06-2.84,0-3.1"/>
      <path d="M138,46.28c-.6-.35-.37-1.43-.37-1.43-.47,1.11.12,3.3.73,4.04-.53-.86-.39-2.29-.36-2.61"/>
      <path d="M134.63,48.57c.03-1.02-.2-1.55-.52-2.3-.32-.75-.32-1.25-.18-2.21-.35.46-.66,1.46-.28,2.45.38.99.72,1.05.98,2.06"/>
      <path d="M140.28,49.71c.74,1.27,1.03,2.51.96,2.93.16-.96-.33-2.1-.61-2.89-.29-.79-.21-1.57-.21-1.57,0,0-.67-.26-.71-1.14,0,0-.16,1.41.57,2.68"/>
      <path d="M128.17,53.05l-.49.86s1.15-.88,3.46-1.78c-1.28.21-2.96.92-2.96.92"/>
      <path d="M129.05,51.46l-.47.78s2.38-1.06,2.99-1.26c-1.4.2-2.52.48-2.52.48"/>
      <polygon points="130.06 50.03 129.59 50.65 131.24 49.83 130.06 50.03"/>
      <path d="M142.75,52.32c0-.93-.3-1.53-.53-2.14-.24-.6-.17-1.25-.17-1.25,0,0-.5-.11-.71-.78,0,0,.11,1.24.49,1.77.37.53.9,1.9.92,2.39"/>
      <path d="M143.68,49.28s-.1,1.17.09,2.1c.16.81.32,1.57.3,2.12.08-.89-.02-1.38-.1-1.85-.09-.52,0-1.43.24-1.82-.3-.17-.45-.33-.52-.55"/>
      <path d="M145.84,51.98c-.19-.42-.44-.81-.53-1.32,0,0-.2,1.12.15,1.75.33.59.64,1.22.49,1.91.25-1.02.07-1.94-.12-2.34"/>
      <path d="M147.14,51.95c-.32-.9-.47-1.09-.54-1.7,0,0-.2,1.2.15,2.08.35.89.25,2.19,0,2.76.47-1,.71-2.24.38-3.13"/>
      <path d="M148.48,52.57c-.1-.83-.35-1.35-.2-2.54,0,0-.55,1.71-.35,2.87.2,1.17.34,1.93-.04,2.56.57-.81.69-2.05.59-2.89"/>
      <path d="M150.75,51.88c0-1.02-.27-2.74-.12-3.72,0,0-.62,1.77-.54,3.83.09,2.07-.37,3.76-.64,4.54.6-1.76,1.3-3.63,1.3-4.64"/>
      <path d="M151.7,49.44c-.04-.69.02-1.66.21-2.3,0,0-.69,1.4-.71,2.4-.02,1,.04,1.99,0,2.33.29-.86.54-1.75.5-2.43"/>
      <path d="M153.03,46.49s-.74,1.84-.8,3.34c-.04,1.1-.4,2.69-.68,3.41.39-.79,1.3-2.26,1.27-3.64-.02-1.38.09-2.69.21-3.11"/>
      <path d="M153.67,48.75c-.02.46-.09.91-.23,1.11.12,0,.25-.03.25-.03,0,0,.02.69.07,1.01.06.38.4.98.43,1.29-.01-.67-.16-1.16-.14-1.56s.06-1.19.06-1.19c0,0,.22-.33.12-1.22-.1-.89-.02-2.09.14-2.73-.36.9-.7,2.85-.71,3.32"/>
      <path d="M155.05,47.83c-.01.47-.15.99-.29,1.19.22,0,.45-.17.45-.17,0,0,.03.56.1.92.22.98.46,1.25.52,2.25.24-1.02-.06-1.78-.13-2.18-.08-.49-.16-1.36-.16-1.36,0,0,.18-.34.08-1.23-.1-.88-.31-2.38-.15-3.02-.36.9-.41,3.14-.42,3.61"/>
      <path d="M156.19,47.94c.08-.02.17-.04.27-.07.03.29.16,1.38.31,1.72-.07-.81-.1-1.24-.02-1.85.27-.21.44-.67.23-1.88-.17-.96-.4-1.28-.45-2.34-.14.84.05,2.06.02,2.61-.02.55-.08,1.35-.36,1.81"/>
      <path d="M157.82,45.21c.03.55.15,1.31-.28,1.72.45-.13,1.02-.6.78-2.09-.15-.96-.87-1.64-1.11-2.63-.02.86.54,1.8.6,3"/>
      <path d="M158.8,45.52c.49-.71.75-1.51.32-2.54-.45-1.07-.65-1.73-.65-1.73,0,0,.04,1.55.26,2.21.21.63.43,1.48.06,2.06"/>
      <path d="M159.84,49.34c.43-2.24-.5-3.91-.5-3.91l-.44.54s.88.96.94,3.37"/>
      <path d="M145.26,47.03c.06-.84-.3-1.5-.44-1.82-.13-.33-.25-.8-.25-1.06-.31-.2-1.21-1.12-1.21-1.12.43,1.17.68,1.46,1.1,2,.42.54.67,1.25.8,2"/>
      <path d="M148.51,45.74c.03-.68.31-1.13.49-1.19-.07.28-.09.88-.05,1.34.04.46.1,1.43-.05,1.99-.15.57-.29.95-.34,1.14.13-.31.54-.9.73-2.06.2-1.15.15-2.42.54-2.69.14.36.25.93.23,1.25-.02.32-.28,1.57-.26,1.84.1-.44.37-1.41.53-1.86.16-.45.19-1.04.19-1.34,0-.3-.05-.72.23-1.13,0,0-.59.72-.91.98-.45.37-.64.38-1.16.39-.52.01-.61,0-1.05,0s-.8.1-1.36.1-.86-.06-.86-.06c0,0,.28.2.59.22-.07.19-.12.77-.06,1.23.07.46.28,1.22.19,1.82-.09.61-.4,1.56-.4,1.56,0,0,.59-.89.62-1.88.03-.99-.03-1.4.06-1.81.09-.42.3-.98.63-1.06-.03.36.09,1.43.13,2.05.04.62.03,1.26-.07,1.58-.1.32-.26.74-.28,1.08.12-.41.62-1.31.67-2.01.06-.71-.08-2.35.48-2.59-.02.25.02.94.09,1.55.07.61-.08,1.48-.24,1.97-.16.49-.52,1.35-.44,1.83.06-.5.46-1.42.68-1.9.22-.48.4-1.66.43-2.34"/>
      <path d="M152.21,43.03c.16-.98-.26-2.01-.45-2.44-.02.28-.34,1.2-.34,1.2.23.28.33.76.37,1.32.03.56-.26,1.54-.6,2.66.22-.59.85-1.77,1.02-2.75"/>
      <path d="M151.97,39.37c.9,1.49,1.34,2.77.94,5.43,1.22-3.92-.66-6.43-.94-6.87.07.39,0,1.43,0,1.43"/>
      <path d="M151.77,36.9c.19.18.47.59.47.59,0,0-.02-.8-.7-1.5,0,0,.2.69.22.91"/>
      <path d="M154.06,35.14c-.2.87-.02,1.88.32,2.72.02.04.03.09.05.13.17.32.35.51.4.65-.05-.01-.14-.06-.23-.12.21.79.32,1.9.13,3.76.31-1.66.76-3.35.15-4.92-.33-.83-.67-1.45-.82-2.22"/>
      <path d="M155.95,33.6c-.25.42-.1.82.18,1.36.29.54.54,1.4.55,2.01.07-.74.05-1.72-.2-2.43-.24-.7-.54-.94-.54-.94"/>
      <path d="M155.36,35.31c-.3-.51-.34-1.07-.34-1.07-.05.39-.04.73,0,1.04.16.95.64,1.35.73,1.6-.07-.01-.19-.08-.32-.17.01.02.02.05.03.07.28.75.36,1.95.29,2.43-.07.48-.24,1.65-.21,1.99.11-.75.35-1.52.45-1.96.09-.4.24-1.2.18-1.87.04.03.09.07.14.11-.13-.62-.33-1.05-.56-1.44-.15-.31-.3-.58-.39-.73"/>
      <path d="M142.32,37.49c-.11.21-.49.86-.41,1.78.08.84.35,1.21.65,2.03-.3-1.28-.24-2.67-.24-3.8"/>
      <path d="M141.37,36.85c-.13.62-.36.78-.36,1.68,0,.55.24,1.24.48,1.92-.02-.43-.14-1.37-.14-1.8,0-.73.14-1.15.02-1.8"/>
      <path d="M140.53,37.67c0-.44.09-1.24.09-1.24-.07.15-.36.62-.36,1.24s.31,1.11.36,1.3c-.07-.48-.09-.87-.09-1.31"/>
      <path d="M139.95,36.04c-.08.11-.38.53-.38,1.02,0,.44.22.65.25.79-.17-1.18.12-1.8.12-1.8"/>
      <path d="M146.29,61.54c0-.61-.88-2.34-.88-3.42,0-1.08-.13-1.92.37-3.27,0,0-1.18,2.51-.93,3.47.25.96,1.05,2.46,1.1,2.8.05.34-.17,3.54.32,4.37.5.84,1.5,2.68,1.43,3.69.17-1.11.05-2.24-.78-4.13-.84-1.89-.63-2.9-.62-3.52"/>
      <path d="M146.69,59.79c.45,1.65.64,2.65.6,3.38.18-1.23.28-1.84.21-2.33-.07-.49-.23-1.44-.3-2.13-.07-.69-.02-1.75.17-2.08-.45.59-1.13,1.51-.68,3.16"/>
      <path d="M143.65,56.71c0-.79.28-2.36.28-2.36-.17.38-.82,1.74-.74,2.4.08.66.88,2.64,1.02,3.01-.35-1.38-.55-2.26-.55-3.05"/>
      <path d="M142.55,54.35c-.6,1-1.21,1.87-.25,4.34-.17-1.39-.17-3.39.25-4.34"/>
      <path d="M148.08,58.53c.24-.79.66-1.56.77-2.01.12-.45.45-2.04.32-2.5,0,0-.05.82-.52,1.57-.47.75-.54,2.23-.57,2.93"/>
      <path d="M151,60.41c.05-1.28.12-2.3.19-2.77.07-.47.03-1.28,0-1.82-.03-.54,0-1.48,0-1.48-.19.62-.63,2.28-.53,3.02.1.74.28,2.44.33,3.05"/>
      <path d="M153.15,54.02c.1-.36.22-1.45.22-1.45-.25.39-.92,1.01-.93,3.34-.2.87-.38,1.92-.32,2.62.07.71.11,2.51-.01,3.11.28-1.11.62-2.03.55-3.11-.07-1.08-.08-2.15-.05-2.59.03-.44.45-1.56.55-1.92"/>
      <path d="M154.5,64.6c-.24-1.25-.85-2.58-.85-3.83s.56-2.13.74-2.57c.18-.44.56-1.92.28-2.85-.12,1.16-1.22,3.57-1.18,5.57.03,2,.51,4.44.4,5.51-.13,1.34-1,2.62-1,3.57.35-.87.97-1.8,1.27-2.21.48-.67.56-2.07.35-3.18"/>
      <path d="M156,65.44c.08-.36.1-1.91-.2-3.07-.3-1.16-.66-2.82-.52-3.66.27-.31.54-.58.54-.58,0,0,.01-.75.1-1.21.09-.46.25-1.8-.06-2.57,0,0-.02,1.14-.24,1.93-.21.79-.9,2.84-.64,4.69.26,1.86.85,4.74.34,6.83.31-1.21.6-1.99.68-2.36"/>
      <path d="M156.8,57.39c.27-.31.57-.68.57-.68,0,0,.03-.79.12-1.25.09-.46.03-2.12-.28-2.89,0,0-.01,1.41-.2,2.2-.56,2.28-.4,4.3-.15,6.16.26,1.86.37,2.74-.02,5.54.3-1.21.75-2.51.82-2.87.13-.77.15-1.53-.15-2.69-.3-1.16-.86-2.68-.71-3.53"/>
      <path d="M158.73,53.66c.05-.52-.17-1.93-.17-1.93l-.25.28c.07.6.07,1.82,0,2.33-.07.51,0,1.71,0,1.71l.42-.53s-.06-1.35,0-1.87"/>
      <path d="M159.51,55.18c.18.8.5,1.67.62,2.65.12.98.43,2.57.43,2.57,0,0,.13-.74.21-1.18.12-.65-.02-1.34-.18-1.98-.16-.64-.64-2.4-.64-2.4,0,0,.45-2.64,0-4.34-.18.18-.44.57-.44.57,0,0,.5,1.3,0,4.1"/>
      <path d="M160.77,54.2s.45,1.11.64,1.85c.18.74-.03,2.29-.03,2.29,0,0,.25-.53.4-1.3.36-1.9-.37-2.95-.6-3.5.3-2.15-.13-3.62-.33-4.51.02.36-.25.99-.25.99.64,1.92.18,4.17.18,4.17"/>
      <path d="M158.36,56.45c.05.38.39,2.18.35,2.79-.04.62-.31,3.64.28,4.94-.11-.85.01-1.5.12-1.94.11-.44.41-2.27.08-3.45-.34-1.18-.84-2.34-.84-2.34"/>
      <path d="M148.2,67.21c.26-.57.94-1.4.74-3.03-.2-1.63-.8-2.83-.8-3.87-.12,1.45-.03,1.76,0,2.35.03.59.22,3.36.06,4.54"/>
      <path d="M150.41,63.23c-.14-.86-.32-4.38-.32-4.38-.06.31-.3,2.26,0,4.31.3,2.05.05,3.69-.78,5.26-.83,1.57-1.26,3.41-1.12,4.44.25-1.06,1.55-3.3,1.9-4.13.65-1.52.81-2.48.32-5.5"/>
      <path d="M152.01,63.46c.08,1.87.43,2.7-.33,4.57-.77,1.87-1.43,2.74-1.5,4.39.48-1.49,1.61-2.97,1.96-3.59.35-.62.96-1.52-.12-5.37"/>
      <path d="M119.77,79.33l.06-.12s.04-.08.06-.12c.04-.08.09-.16.13-.24.04-.08.09-.16.14-.24.05-.08.09-.15.14-.23.05-.07.09-.15.14-.22.05-.07.09-.14.14-.21.09-.13.18-.26.26-.37,0-.01.02-.03.03-.04-.01-.39,0-.72.01-.95,0,0-.01.02-.03.03-.03.04-.07.09-.12.17-.05.07-.1.16-.17.26-.06.1-.13.21-.21.34-.07.12-.15.26-.23.4-.04.07-.08.15-.12.22-.04.08-.08.15-.12.23-.04.08-.08.16-.12.24-.04.08-.08.17-.11.25-.04.08-.08.17-.11.26-.02.04-.04.09-.05.13l-.05.13c-.03.08-.06.17-.09.26-.03.09-.06.17-.09.26-.03.09-.05.17-.08.26-.02.08-.04.17-.07.25-.02.08-.04.16-.05.25-.02.08-.03.16-.05.24,0,.04-.01.08-.02.11,0,.04-.01.07-.02.11-.01.07-.02.14-.03.21-.02.14-.02.26-.03.37,0,.11,0,.2,0,.28,0,.15,0,.24,0,.24,0,0,0-.09.02-.24,0-.08.02-.17.04-.28.02-.11.04-.23.07-.36.01-.07.03-.13.05-.2,0-.03.02-.07.03-.11,0-.04.02-.07.03-.11.02-.08.04-.15.07-.23.03-.08.05-.16.08-.24.03-.08.06-.16.09-.24.03-.09.07-.17.1-.25.04-.09.07-.17.11-.25.04-.08.08-.17.12-.25"/>
      <path d="M124.7,76.85s.03.72.08.7c.05-.02.32-.44.57-.78.25-.34,1.18-1.79,2.94-3-2.43,1.45-3.59,3.08-3.59,3.08"/>
      <path d="M133.41,70.59s-.9,2.01-2.55,3.96c1.6-1.18,2.85-2.92,2.85-2.92l-.3-1.03Z"/>
      <path d="M134.26,72.57s-.55,1.76-1.98,3.55c1.54-1.4,2.21-2.47,2.21-2.47,0,0,.2.31.87.6-.47-.42-1.1-1.68-1.1-1.68"/>
      <path d="M135.76,93.46l.05.69s.76.07,1.53.53c-.66-.53-1.58-1.21-1.58-1.21"/>
      <path d="M135.88,96.57l.05.69s.84.08,1.73.42c-.66-.53-1.78-1.1-1.78-1.1"/>
      <path d="M136.07,99.61s1.01.14,2.01.58c-.66-.52-2.09-1.27-2.09-1.27l.07.69Z"/>
      <path d="M131.01,84.75c-.31.82-2.12,2.5-2.12,2.5l2.12-1.45s.09-.24,0-1.05"/>
      <path d="M131.7,87.92c-.41.4-1.83,1.55-2.55,2.1,0,0,.68-.43,1.28-.62.99-.33,1.12-.89,1.27-1.48"/>
      <path d="M131.01,92.13c.69-.23.8-.66.94-1.25-.41.4-1.51,1.25-2.22,1.8,0,0,.68-.35,1.28-.55"/>
      <path d="M120.87,78.83c-.06.11-.12.23-.18.37-.06.13-.13.29-.2.44-.03.08-.07.16-.1.24-.03.08-.07.17-.1.26-.03.09-.06.17-.1.26-.03.09-.06.18-.09.27-.03.09-.06.19-.09.28-.01.05-.03.09-.04.14l-.04.14c-.02.09-.05.19-.07.28-.02.09-.04.19-.06.28-.02.09-.04.19-.05.27-.02.09-.03.18-.04.27-.01.09-.02.18-.03.26,0,.09-.02.17-.03.25,0,.04,0,.08,0,.12,0,.04,0,.08,0,.11,0,.08,0,.15,0,.22,0,.14,0,.27,0,.38,0,.11.01.21.02.29.02.17.03.26.03.26v-.26c0-.08,0-.18.02-.29,0-.12.02-.24.04-.38,0-.07.02-.14.03-.22,0-.04.01-.07.02-.11,0-.04.01-.08.02-.12.02-.08.03-.16.05-.24.02-.08.04-.17.06-.26.02-.09.04-.17.07-.26.03-.09.05-.18.08-.27.03-.09.06-.18.09-.27.03-.09.06-.18.1-.27l.05-.13s.04-.09.06-.14c.04-.09.08-.18.11-.26.04-.09.08-.17.12-.26.04-.08.08-.17.12-.25.04-.08.08-.16.12-.24.04-.08.08-.15.12-.23.04-.08.08-.15.12-.22-.07-.27-.13-.54-.18-.8,0,.03-.03.05-.04.08"/>
      <path d="M120.53,88.63l-.45-.47s-.79,1.94-.8,3.36c.34-1.35,1.24-2.9,1.24-2.9"/>
      <path d="M137.79,76.58c2.6,2.76,3.03,5.72,3.03,5.72,0,0,.35-.35.38-.76-.3-.91-.98-3.07-3.41-4.96"/>
      <path d="M138.58,75.17c2.88,2.6,3.03,5.72,3.03,5.72,0,0,.35-.35.38-.76-.17-1.09-.99-3.39-3.41-4.96"/>
      <path d="M139.89,74.42c2.47,2.54,2.43,4.8,2.43,4.8,0,0,.35-.35.38-.76-.17-1.09-.71-2.55-2.81-4.04"/>
      <path d="M142.22,73.49c2.2,2.78,2.19,4.7,2.19,4.7,0,0,.35-.36.38-.76-.17-1.09-.46-2.19-2.58-3.94"/>
      <path d="M144.26,74.03c.46.64.85,1.39.85,1.39l.25-.25s-.37-.6-1.1-1.14"/>
      <path d="M143.39,80.09s1.12-.95,1.21-1.62c-.43.42-.91.87-.91.87l-.3.75Z"/>
      <path d="M153.55,76.34c-.22,1.48-.78,3.08-1.27,4.17.73-.95,1.27-2.47,1.27-2.47v-1.69Z"/>
      <path d="M154.9,80.53v-1.09c-.35,1.15-1.9,3.4-3.06,4.95,1.35-1.27,3.06-3.86,3.06-3.86"/>
      <path d="M146.32,104.47c.58.54.37,1.87.18,2.44,1.53-1.96,1.03-2.7.73-2.99-.53-.1-.92.54-.92.54"/>
      <path d="M149.63,104.8s.45.87.08,2.26c1.33-1.38,1.04-2.44.89-2.69-.68-.34-.97.43-.97.43"/>
      <path d="M153.08,105.31s.7.81.27,2.19c1.08-.98.93-2.14.78-2.61-.75-.27-1.05.43-1.05.43"/>
      <path d="M156.92,105.94c.46.61.5,1.42.08,1.98,1.08-.62,1.12-1.87.89-2.43-.64-.25-.96.45-.96.45"/>
    </g>
    <path d="M195.6,78.81c0,1.06-.1,2.26-.33,3.68-.85,4.58-2.33,6.6-3.76,8.46-1.46,1.88-2.92,3.64-5.04,7.46-2.25,3.75-3.04,5.9-3.94,8.1-.9,2.17-1.91,4.46-5.45,7.49-3.59,2.96-6.02,3.56-8.32,4.07-2.32.5-4.57.91-8.66,2.47-4.13,1.43-6.12,2.56-8.22,3.67-2.09,1.08-4.33,2.19-8.99,2.23-4.66-.04-6.9-1.15-8.99-2.23-2.1-1.11-4.09-2.24-8.22-3.67-4.09-1.56-6.34-1.97-8.66-2.47-2.29-.52-4.72-1.11-8.32-4.07-1.21-1.04-2.13-1.99-2.85-2.88.12.52,1.51,2.53,3.6,4.24,3.6,2.95,6.02,3.56,8.32,4.07,2.32.5,4.57.91,8.66,2.47,4.13,1.43,6.12,2.56,8.22,3.67,2.09,1.08,4.33,2.19,8.99,2.23,4.66-.04,6.9-1.15,8.99-2.23,2.1-1.11,4.09-2.24,8.22-3.67,4.09-1.56,6.34-1.97,8.66-2.47,2.29-.51,4.72-1.11,8.32-4.07,3.54-3.03,4.55-5.31,5.45-7.49.9-2.2,1.69-4.34,3.94-8.09,2.13-3.82,3.41-5.56,4.86-7.44,1.39-1.82,4.34-6.41,3.51-13.53Z"/>
  </g>
</svg>