<svg viewBox="0 0 100 100" xmlns="http://www.w3.org/2000/svg" fill-rule="evenodd" clip-rule="evenodd" stroke-linejoin="round" stroke-miterlimit="1.414"><path d="M79.319 25.903v9.762L85 37.546V70.15H15v-32.6l34.676-11.7 10.679 3.536v-3.483h18.964zm1.07 7.589a1.428 1.428 0 0 1 1.316-.856 1.407 1.407 0 0 1 1 .407 1.406 1.406 0 0 1 .421 1.008 1.413 1.413 0 0 1-.872 1.32 1.424 1.424 0 0 1-.549.106 1.41 1.41 0 0 1-1.43-1.426c0-.2.038-.387.114-.559zm.233 1.044a1.157 1.157 0 0 0 2.157 0c.06-.148.09-.31.09-.485 0-.17-.03-.328-.09-.476a1.162 1.162 0 0 0-.616-.637 1.126 1.126 0 0 0-.458-.093 1.156 1.156 0 0 0-1.083.73 1.271 1.271 0 0 0-.089.476c0 .175.03.337.089.485zm.787.352h-.258v-1.663h.641c.197 0 .343.04.438.118.094.079.142.198.142.358 0 .15-.042.259-.125.329a.555.555 0 0 1-.311.123l.474.735h-.277l-.451-.715h-.273v.715zm.341-1.453h-.341v.528h.269c.059 0 .113-.002.165-.005a.423.423 0 0 0 .139-.033.216.216 0 0 0 .096-.081.28.28 0 0 0 .036-.154.248.248 0 0 0-.032-.134.224.224 0 0 0-.083-.076.418.418 0 0 0-.118-.036.961.961 0 0 0-.131-.009z" fill="#fff200" fill-rule="nonzero"/><path d="M78.177 36.49v-9.444H61.498v3.922L49.68 27.055 16.143 38.371v30.636h67.714V38.371l-5.68-1.881z" fill="#ed1b2d" fill-rule="nonzero"/><path d="M57.036 57.719v1.092c.201.132.218.44.218.709v2.363c0 .251-.017.598-.218.747v1.101c1.153-.079 1.543-.748 1.543-1.963v-2.34c0-1.025-.538-1.627-1.543-1.709zm8.222.129v4.164c0 .915-.377 1.633-1.543 1.718v-1.089c.162-.103.218-.313.218-.49v-4.303h1.325zm4.164 3.828v.406c0 .244.058.466.257.566v1.081c-1.04-.085-1.484-.733-1.484-1.44v-.613h1.227zm-14.434-2.248v2.34c0 1.206.404 1.875 1.54 1.961v-1.116c-.187-.156-.216-.487-.216-.73V59.52c0-.261.029-.561.216-.699v-1.1c-.992.089-1.54.69-1.54 1.707zm8.034-1.58v4.342c0 .19.039.361.186.45v1.088c-.959-.082-1.512-.631-1.512-1.716v-4.164h1.326zm6.875 1.987c-.264-.185-.437-.361-.399-.706.017-.149.078-.262.181-.327v-1.081c-.874.088-1.409.634-1.409 1.623 0 .506.144.859.384 1.15.249.292.596.514 1.002.752.346.215.738.399.738.882 0 .202-.065.4-.207.502v1.096c.929-.094 1.434-.694 1.434-1.706 0-.698-.181-1.081-.49-1.372-.308-.291-.737-.491-1.234-.813zM51.87 63.601h-1.326v-2.393h-.705v-1.151h.705v-2.209h1.326v5.753zm25.95 0h-1.521V62.45h1.521v1.151zm-32.63 0h-1.548V62.45h1.548v1.151zm-8.881 0h-.969v-5.753h.969v5.753zm13.023 0h-1.031v-5.753h1.031v5.753zm-6.197 0h-1.07v-5.753h1.07v5.753zm32.657 0h-1.097v-5.753h1.097v5.753zm-36.687 0H37.66a1.19 1.19 0 0 1-.075-.33c-.023-.507.007-.982-.031-1.335-.037-.352-.142-.583-.451-.606h-.286v-1.035h.301c.384 0 .474-.361.474-.713 0-.628-.235-.705-.775-.701v-1.033h.459c1.084 0 1.626.445 1.626 1.588 0 .613-.143 1.051-.701 1.311.37.1.633.361.656.76.038.46.045 1.45.12 1.818.03.076.068.146.128.199v.077zm-6.648 0h-1.34l-.148-.876-.17-1.256h-.001l-.044-.319-.003-.025-.022-.162-.298-2.072-.399 2.578h.335l.122 1.012h-.6l-.158 1.12h-1.333l1.235-5.753h1.596l1.228 5.753zm-9.865 0h-1.468l-.949-5.753h1.28l.399 4.042.543-3.994.459 3.254-.264 2.451zm2.35 0h-1.227l-.812-5.753h.781l.512 4.035.429-4.035h1.258l-.941 5.753zm52.734-2.393h-1.377v-1.151h1.377v1.151zm-32.629 0h-1.405v-1.151h1.405v1.151zm26.567-1.634h-1.22c-.012-.263-.005-.599-.207-.75v-1.101c.985.107 1.482.852 1.427 1.851zm6.115-.576h-1.43v-1.15h1.43v1.15zm-32.63 0h-1.457v-1.15h1.457v1.15zm-17.411-8.861v1.479c0 2.064-1.156 3.506-3.964 3.522v-2.177c.051.004.103.007.159.007.947 0 1.027-.998 1.027-1.738v-1.093h2.778zm40.668 2.776v2.206c2.082-.126 3.216-1.396 3.216-3.592 0-1.464-.378-2.268-1.026-2.879-.647-.612-1.547-1.03-2.589-1.705-.552-.386-.915-.756-.836-1.48.038-.326.179-.574.413-.704V42.51c-1.852.171-2.987 1.318-2.987 3.403 0 1.062.3 1.802.805 2.413.521.611 1.247 1.077 2.1 1.576.726.451 1.547.836 1.547 1.849 0 .513-.199 1.012-.643 1.162zm-1.393-2.11v.852c0 .523.126 1.001.571 1.202v2.255c-2.204-.168-3.144-1.532-3.144-3.022v-1.287h2.573zm-44.065 1.283v3.004c-1.983-.265-2.772-1.602-2.772-3.795v-4.954c0-2.268.886-3.489 2.772-3.777v9.522zm35.129 2.754h-2.652l.285-9.458h-.032l-1.617 7.813-.956-5.191 1.088-5.227h3.884V54.84zm-12.624 0h-3.334v-2.413h3.334v2.413zm-4.156 0h-2.395V42.777h2.395V54.84zm38.814-9.65h-2.242v9.65H75.04v-9.65h-2.179v-2.413h7.2v2.413zm-48.236 9.65h-2.311V42.777h2.311V54.84zm31.026 0h-2.779V42.777h2.779V54.84zm-25.854 0h-2.779v-5.019h-1.571v-2.412h1.571v-4.632h2.779V54.84zm12.916 0h-2.637V42.777h3.915l.746 3.699 1.54 8.364h-1.875l-1.91-9.458h-.032l.253 9.458zm-4.809-5.018H42.07v-2.413h3.034v2.413zM27.641 47h-2.779v-.772c0-1.029-.363-1.56-.884-1.56a1.85 1.85 0 0 0-.254.012v-2.182l.128-.001c2.368 0 3.789 1.029 3.789 3.49V47zm43.915-.604h-2.557c-.028-.629-.006-1.461-.643-1.684v-2.215c2.205.14 3.321 1.733 3.2 3.899zM45.213 45.19H42.07v-2.413h3.143v2.413zm4.339-7.017a.527.527 0 0 1 .16.394c0 .247-.117.416-.352.508a1.25 1.25 0 0 1-.46.073c-.039 0-.066 0-.078-.002a.656.656 0 0 0-.054-.002.272.272 0 0 0-.122.062.164.164 0 0 0-.065.129c0 .041.011.071.033.093a.154.154 0 0 0 .09.041c.019.002.06.004.123.006.063.003.112.004.146.004l.256.003c.145.003.267.024.366.064a.415.415 0 0 1 .283.415c0 .257-.142.434-.424.531-.148.05-.336.075-.561.075-.185 0-.344-.018-.477-.054-.221-.061-.331-.164-.331-.309 0-.057.023-.115.07-.175.047-.06.128-.099.243-.116v-.027a.554.554 0 0 1-.167-.091.283.283 0 0 1-.093-.222c0-.111.049-.205.146-.284a.91.91 0 0 1 .284-.164v-.027a.785.785 0 0 1-.324-.232.557.557 0 0 1-.123-.364c0-.181.072-.329.216-.447.143-.116.337-.175.583-.175a1.103 1.103 0 0 1 .432.083h.52v.21h-.32zm-13.219 2.388h-1.078v-.094c.085-.009.143-.029.174-.059.03-.03.046-.087.046-.171v-1.986c0-.083-.015-.14-.044-.169-.028-.029-.084-.05-.166-.061v-.095h.752v.261a.796.796 0 0 1 .158-.199.542.542 0 0 1 .354-.112c.207 0 .378.078.515.234.136.155.205.388.205.696 0 .287-.074.525-.221.714-.147.188-.325.282-.536.282a.547.547 0 0 1-.305-.094.781.781 0 0 1-.16-.143v.334c.001.178.002.277.004.299.009.105.035.176.08.215.044.038.118.061.222.067v.081zm6.488-.504a.316.316 0 0 1 .197-.063.24.24 0 0 1 .165.056.171.171 0 0 1 .065.133l-.01.087c0 .017.006.032.02.046a.07.07 0 0 0 .051.021c.069 0 .133-.053.192-.161.037-.066.09-.195.16-.389l-.467-1.157a8.664 8.664 0 0 0-.098-.232 3.404 3.404 0 0 0-.099-.211.476.476 0 0 0-.084-.131c-.021-.018-.058-.03-.112-.035v-.095h.985v.095a.517.517 0 0 0-.151.021c-.039.013-.059.041-.059.083 0 .009.002.022.007.037s.014.043.03.083l.314.778h.019l.26-.695c.012-.038.023-.072.031-.102a.252.252 0 0 0 .013-.076c0-.055-.018-.09-.055-.105a.467.467 0 0 0-.163-.024v-.095h.597v.095a.251.251 0 0 0-.126.041c-.033.024-.066.082-.101.173l-.589 1.577c-.114.291-.213.489-.295.593-.083.104-.212.156-.388.156-.128 0-.225-.032-.292-.095a.286.286 0 0 1-.1-.21c0-.09.028-.156.083-.199zm6.393-.1h-.646a.574.574 0 0 0-.089.085.224.224 0 0 0-.048.136c0 .081.043.145.13.192.086.046.212.07.376.07.146 0 .267-.012.362-.035.178-.044.267-.125.267-.243 0-.068-.025-.12-.076-.154s-.143-.051-.276-.051zm16.214-1.959c.122.081.182.185.182.312a.248.248 0 0 1-.072.178.243.243 0 0 1-.184.075.246.246 0 0 1-.131-.034c-.07-.041-.106-.116-.106-.224l.002-.052c.002-.022.002-.046.002-.072 0-.069-.016-.117-.048-.143A.183.183 0 0 0 64.96 38c-.122 0-.209.067-.26.201a1.303 1.303 0 0 0-.077.463c0 .247.049.454.146.621.098.167.229.251.395.251a.486.486 0 0 0 .265-.069.809.809 0 0 0 .162-.149l.073.067a.997.997 0 0 1-.45.369.803.803 0 0 1-.291.052.785.785 0 0 1-.619-.272.964.964 0 0 1-.241-.664c0-.275.085-.51.255-.703a.858.858 0 0 1 .68-.291c.166 0 .31.041.43.122zm-11.942.154a.827.827 0 0 1 .636-.276c.26 0 .474.094.64.282a.997.997 0 0 1 .249.683c0 .264-.082.491-.246.681a.812.812 0 0 1-.643.284.824.824 0 0 1-.637-.277.983.983 0 0 1-.252-.688.98.98 0 0 1 .253-.689zm-19.932 0a.824.824 0 0 1 .635-.276c.261 0 .474.094.64.282a.997.997 0 0 1 .249.683c0 .264-.082.491-.246.681a.81.81 0 0 1-.643.284.822.822 0 0 1-.636-.277.979.979 0 0 1-.252-.688.98.98 0 0 1 .253-.689zm21.902 0a.827.827 0 0 1 .636-.276c.261 0 .474.094.64.282a.997.997 0 0 1 .249.683c0 .264-.082.491-.246.681a.81.81 0 0 1-.643.284.824.824 0 0 1-.637-.277.983.983 0 0 1-.252-.688.98.98 0 0 1 .253-.689zm-23.868-.289h-.109a1.21 1.21 0 0 0-.272-.516.613.613 0 0 0-.473-.216.424.424 0 0 0-.309.109.354.354 0 0 0-.114.266c0 .125.035.218.106.28.07.063.226.156.469.278l.291.147c.13.066.233.138.31.218a.752.752 0 0 1 .217.544c0 .2-.078.388-.232.564-.155.177-.402.266-.743.266a1.296 1.296 0 0 1-.475-.091l-.076-.029-.051-.013a.227.227 0 0 0-.042-.004c-.04 0-.068.012-.083.035a.393.393 0 0 0-.04.102h-.113v-.979h.113c.063.295.164.51.304.644.14.134.3.201.481.201.176 0 .3-.046.374-.138a.458.458 0 0 0 .111-.291.382.382 0 0 0-.116-.289 1.425 1.425 0 0 0-.31-.192l-.251-.127c-.249-.126-.425-.251-.527-.375a.69.69 0 0 1-.154-.458c0-.193.068-.373.203-.54.136-.168.344-.252.624-.252.142 0 .28.022.413.066.133.044.209.066.228.066.043 0 .073-.013.089-.038a.328.328 0 0 0 .04-.099h.117v.861zm36.745 1.369a.322.322 0 0 1 .236-.097.32.32 0 0 1 .236.097.322.322 0 0 1 .097.237.322.322 0 0 1-.097.236.32.32 0 0 1-.236.097.322.322 0 0 1-.236-.097.325.325 0 0 1-.097-.236c0-.093.033-.172.097-.237zm1.313 0a.318.318 0 0 1 .236-.097.32.32 0 0 1 .235.097.322.322 0 0 1 .097.237.322.322 0 0 1-.097.236.32.32 0 0 1-.235.097.318.318 0 0 1-.236-.097.322.322 0 0 1-.098-.236c0-.093.033-.172.098-.237zm-28.523-.278c.171-.105.438-.21.803-.315v-.288c0-.117-.025-.204-.074-.26-.05-.056-.137-.084-.263-.084a.35.35 0 0 0-.174.04c-.045.026-.068.06-.068.1 0 .015.002.028.007.038.006.01.013.021.024.033l.022.027a.268.268 0 0 1 .044.072.22.22 0 0 1 .016.084.213.213 0 0 1-.074.173.266.266 0 0 1-.172.061.288.288 0 0 1-.193-.068c-.054-.045-.08-.11-.08-.194 0-.152.071-.272.213-.36a.976.976 0 0 1 .526-.133c.223 0 .409.043.56.129.148.088.223.249.223.483v.957c0 .029.007.053.022.073.014.02.031.03.049.03a.091.091 0 0 0 .041-.009.3.3 0 0 0 .057-.047l.059.082a.637.637 0 0 1-.255.19.509.509 0 0 1-.187.034c-.117 0-.202-.034-.256-.102a.389.389 0 0 1-.067-.172.915.915 0 0 1-.37.232.766.766 0 0 1-.246.042.499.499 0 0 1-.302-.103c-.093-.069-.14-.176-.14-.322 0-.178.085-.319.255-.423zm21.474-1.028v1.342c0 .08.01.138.029.176.034.065.099.098.198.098a.33.33 0 0 0 .185-.06.889.889 0 0 0 .131-.11V38.25c0-.082-.017-.141-.049-.174-.033-.033-.099-.051-.197-.055v-.095h.785v1.425c0 .082.015.138.045.169.032.032.091.051.182.058v.091a9.144 9.144 0 0 0-.462.052 2.798 2.798 0 0 0-.304.081v-.26a1.508 1.508 0 0 1-.233.172.692.692 0 0 1-.337.088.586.586 0 0 1-.355-.121c-.11-.081-.164-.225-.164-.432v-.999c0-.084-.014-.139-.041-.165a.335.335 0 0 0-.156-.064v-.095h.743zm-29.885 0h.375v.174h-.375v1.189c0 .055.008.102.025.139.025.058.068.087.127.087a.174.174 0 0 0 .129-.055.712.712 0 0 0 .103-.152l.095.047a.89.89 0 0 1-.165.264.547.547 0 0 1-.414.18.542.542 0 0 1-.242-.052c-.133-.067-.2-.189-.201-.365V38.1h-.204v-.11l.129-.114a3.223 3.223 0 0 0 .518-.618h.1v.668zm12.998 1.821h-.939v-.095a.299.299 0 0 0 .143-.052c.038-.035.057-.097.057-.187v-1.162c0-.081-.013-.136-.04-.165-.027-.029-.08-.051-.16-.065v-.095h.757v1.502c0 .086.012.142.038.166a.308.308 0 0 0 .144.058v.095zm-5.974 0h-1.312v-.101c.13-.009.217-.036.261-.082.044-.045.067-.138.067-.279v-1.749c0-.148-.023-.242-.068-.281-.045-.039-.132-.065-.26-.08v-.1h1.268c.336 0 .592.055.767.164.175.109.262.297.262.564 0 .13-.034.252-.103.366a.718.718 0 0 1-.339.275 1.237 1.237 0 0 1-.358.089c-.119.01-.296.015-.531.015v.737c0 .146.024.241.073.286.049.045.14.07.273.075v.101zm27.007 0h-.948v-.095a.286.286 0 0 0 .158-.059c.035-.03.051-.09.051-.18v-2.014c0-.079-.014-.134-.042-.166-.028-.032-.084-.053-.167-.063v-.095h.762v1.112c.081-.098.166-.174.254-.227.09-.053.19-.08.302-.08.151 0 .276.044.375.132.098.088.148.238.148.451v.95c0 .089.015.147.045.174.031.028.081.05.152.065v.095h-.926v-.095a.303.303 0 0 0 .144-.058c.026-.025.039-.08.039-.166v-.957a.552.552 0 0 0-.028-.203c-.03-.081-.091-.121-.182-.121-.068 0-.138.031-.211.094-.072.063-.108.106-.108.129v1.058c0 .086.012.141.038.166a.303.303 0 0 0 .144.058v.095zm-19.928 0h-.949v-.095a.293.293 0 0 0 .159-.059c.034-.03.051-.09.051-.18V38.25c0-.08-.014-.136-.041-.167-.028-.031-.084-.052-.169-.062v-.095h.747v.284a.803.803 0 0 1 .239-.236.578.578 0 0 1 .322-.094c.17 0 .301.044.394.131.093.088.139.242.139.462v.955c0 .089.016.146.046.172.03.026.08.043.151.052v.095h-.926v-.095a.307.307 0 0 0 .145-.058c.025-.025.038-.08.038-.166v-.957a.579.579 0 0 0-.027-.203c-.031-.081-.092-.121-.183-.121a.276.276 0 0 0-.187.074.658.658 0 0 0-.132.149v1.058c0 .086.013.141.038.166a.307.307 0 0 0 .145.058v.095zm6.545-1.875h-.113c-.038-.285-.144-.478-.32-.579-.099-.055-.246-.085-.443-.091v2.083c0 .146.026.242.077.29.051.047.156.071.316.071v.101h-1.404v-.101c.154 0 .256-.024.306-.072.051-.048.076-.145.076-.289v-2.083c-.192.006-.34.036-.442.091-.189.104-.295.297-.319.579h-.114l.004-.797h2.372l.004.797zm5.687 1.875h-.921v-.101c.15-.001.247-.028.292-.08.045-.052.068-.13.068-.234v-1.879c0-.107-.026-.178-.077-.211a.63.63 0 0 0-.274-.067v-.1h.993l.775 1.83h.033l.771-1.83h.994v.1c-.134.011-.225.035-.274.074-.049.039-.073.135-.073.288v1.748c0 .146.024.241.073.286.049.045.14.07.274.075v.101h-1.309v-.101a.546.546 0 0 0 .263-.059c.06-.035.089-.112.089-.232v-1.933h-.029l-.965 2.325h-.106l-.976-2.278h-.017v1.787c0 .132.024.229.073.289.049.061.157.095.323.101v.101zm-3.222-.325c.044.172.134.257.267.257.127 0 .211-.066.25-.197.04-.131.06-.345.06-.641 0-.294-.021-.508-.063-.64-.042-.131-.123-.197-.245-.197-.133 0-.222.085-.268.256-.029.115-.043.308-.043.581 0 .277.013.471.042.581zm-1.97 0c.044.172.133.257.267.257.127 0 .21-.066.25-.197.04-.131.06-.345.06-.641 0-.294-.021-.508-.063-.64-.042-.131-.124-.197-.245-.197-.134 0-.223.085-.268.256a2.668 2.668 0 0 0-.044.581c0 .277.014.471.043.581zm-19.933 0c.045.172.134.257.267.257.127 0 .211-.066.251-.197.039-.131.059-.345.059-.641 0-.294-.021-.508-.062-.64-.042-.131-.124-.197-.246-.197-.133 0-.222.085-.267.256-.03.115-.044.308-.044.581 0 .277.014.471.042.581zm2.703-.123c.027-.104.041-.254.041-.45a1.92 1.92 0 0 0-.062-.542c-.041-.134-.124-.201-.25-.201a.297.297 0 0 0-.227.112c-.067.075-.1.128-.1.162v.961c0 .039.031.089.095.15a.303.303 0 0 0 .215.091c.142 0 .238-.094.288-.283zm5.186.164a.788.788 0 0 0 .109-.109v-.578a.793.793 0 0 0-.277.122.423.423 0 0 0-.202.359c0 .087.02.152.059.197a.171.171 0 0 0 .132.067.306.306 0 0 0 .179-.058zm6.887-.608c.039.116.112.174.222.174.098 0 .166-.044.203-.131a.993.993 0 0 0 .056-.381c0-.178-.019-.307-.058-.388-.039-.081-.106-.122-.201-.122-.104 0-.174.044-.208.131a1.057 1.057 0 0 0-.052.379c0 .152.013.264.038.338zm19.931-.031h-.113a15.845 15.845 0 0 0-.076-.568 2.682 2.682 0 0 0-.077-.303c-.048-.166-.08-.276-.094-.332a.87.87 0 0 1-.033-.203c0-.146.033-.25.1-.311a.34.34 0 0 1 .465-.001c.067.06.101.16.101.299a.95.95 0 0 1-.032.198c-.021.088-.059.233-.114.433a2.537 2.537 0 0 0-.068.302c-.013.081-.032.243-.059.486zm1.311 0h-.112a15.845 15.845 0 0 0-.076-.568 2.864 2.864 0 0 0-.076-.303 10.996 10.996 0 0 1-.095-.332.87.87 0 0 1-.033-.203c0-.146.033-.25.1-.311a.33.33 0 0 1 .234-.092c.087 0 .164.031.231.091s.101.16.101.299c0 .044-.01.11-.031.198-.022.088-.06.233-.115.433a3.052 3.052 0 0 0-.069.302c-.011.081-.031.243-.059.486zm-30.08-.494c.124-.08.186-.252.186-.516 0-.18-.03-.325-.09-.436-.061-.111-.176-.166-.347-.166a.38.38 0 0 0-.168.028c-.034.019-.051.055-.051.109v1.062c.235-.004.391-.031.47-.081zm5.174-1.225c.06-.06.132-.09.217-.09.083 0 .154.03.214.09s.09.132.09.217c0 .085-.03.158-.09.217a.292.292 0 0 1-.214.09.295.295 0 0 1-.217-.09.293.293 0 0 1-.089-.217c0-.085.029-.157.089-.217z" fill="#fff" fill-rule="nonzero"/></svg>