<svg id="b8a75192-6389-452f-81a5-478b0c0fc36e" data-name="Wordmark" xmlns="http://www.w3.org/2000/svg" viewBox="0 0 100 100"><path d="M12,44.3,13.37,40H0V59.94H4.84V52.77h6l1.42-4.26H4.84V44.3Zm12.62-4.52A10.22,10.22,0,1,0,34.78,50,10.23,10.23,0,0,0,24.57,39.78Zm0,15.58A5.36,5.36,0,1,1,29.92,50,5.35,5.35,0,0,1,24.57,55.36ZM51.68,40H46.27l-3.38,5.43L39.48,40H34.07l6.12,9.73-6.4,10.18h5.4l3.7-5.86,3.67,5.86H52L45.59,49.76Zm.42,4.27H58V59.94h4.84V44.3H68V40H54.78Zm30.44,0L84,40H70.59V59.94h12L84,55.67H75.43V51.86h6l1.42-4.26H75.43V44.3Zm8.93,11.37V40H86.63V59.94h12L100,55.67Z" fill="#eb5205"/></svg>