<svg id="eae3efe9-0501-4580-8726-cf236cbae1b9" data-name="Layer 1" xmlns="http://www.w3.org/2000/svg" viewBox="0 0 306.25 100"><path d="M0,15H306.25V85H0Z" fill="#ed1c24" fill-rule="evenodd"/><path d="M127.22,39c-2.25,0-3.4-.11-4.49-.11a1.9,1.9,0,0,0-1.91,2c0,1.23.94,1.46,1.43,1.77a5.9,5.9,0,0,1,1.91,2.87c.48,1.23,4,11.25,4,11.25a6.76,6.76,0,0,1,.34,3.68,2.23,2.23,0,0,1-2.87,1.71c-1-.41-2.72-1.74-4.36,1-1.3,2.18.27,4.64,3.48,4.64a7.79,7.79,0,0,0,6-3.28,51.35,51.35,0,0,0,4.64-9.2c1.29-3.34,3.13-7.23,4-9.21s1.36-3.13,2.25-3.54a1.71,1.71,0,0,0,1.23-1.91A1.79,1.79,0,0,0,141,38.82c-1.05,0-1.26.14-2.55.14s-2-.11-2.94-.11-1.39.65-1.36,1.85a1.29,1.29,0,0,0,.61,1.23,1.32,1.32,0,0,1,.69,1.77,32.61,32.61,0,0,1-1.23,3.2s-.34.68-.75.68-1.09-1.29-1.3-1.7a5.49,5.49,0,0,1-.48-3,1.16,1.16,0,0,1,.55-.75c.53-.3.75-.75.75-1.78s-.68-1.56-1.77-1.56S128.65,39,127.22,39Zm6.7,23.62H285.48v4.23H133.92Zm-112.67,0h97.88v4.23H21.25ZM91.38,38.72c-2.19,0-3-.07-4-.07s-2.3.43-2.3,1.83a2.3,2.3,0,0,0,1.36,2.23c.86.58,1.21,1.87,1.56,2.69s5.9,14,5.9,14,.82,2.07,2.46,2.07a2.68,2.68,0,0,0,2.81-1.87c.59-1.21,4.34-10.94,5.35-13.08s1.48-3.52,2.23-4A2.27,2.27,0,0,0,108,40.33a1.69,1.69,0,0,0-1.8-1.69c-.74,0-1,.09-2.5.09s-2.07-.11-2.85-.07-2,.38-2,1.47,0,1.44.54,1.93a2,2,0,0,1,.51,2.17c-.19.79-1,3.24-1,3.24s-.2.71-.74.71-.69-.74-.94-1.41q-.55-1.49-1-3c-.19-.71-.15-1.29.39-1.65s.86-.58.82-1.79c0-1.45-1.17-1.72-2.18-1.72S93.18,38.72,91.38,38.72Zm21.76,12.66A4.17,4.17,0,0,1,114.2,51l7.45-2a1.85,1.85,0,0,0,1.29-1.51,6.91,6.91,0,0,0-.58-3,11.13,11.13,0,0,0-3.79-4.73,8.06,8.06,0,0,0-7.85-.15c-2.58,1.44-4.22,3.82-5.23,8s.19,9.57,2,11.45,3.47,2.26,6.28,2.42a9.85,9.85,0,0,0,7.07-2.46c1.76-1.57,2.15-3.13,1.76-4.53s-1.41-.74-2.15-.2-3,2-5.39.7S112.79,51.61,113.14,51.38Zm69.33-12.94c-4.66,0-9.17,4.52-9.38,10.87s3.1,11.92,9.52,11.92,10.23-4.66,10.23-11.5S188.67,38.44,182.47,38.44Zm80.18,16.47c-.76-.08-1.69-.36-1.13-7.26s-1-7.67-2-8.36a10.9,10.9,0,0,0-6.14-1.21,14,14,0,0,0-4.27,1,17.25,17.25,0,0,0-3.39,2c-1.05.93-.89,2.46-.77,3.55s.44,2.3,1.89,2.26,2.18-1.13,3.15-2.54,1.58-2.14,2.5-2.14c1.3,0,1.62,1.33,1.62,2.3s.24,2.42-.81,2.78-4.56.89-6.9,2.63-2.34,4.8-2.34,5.53A5.24,5.24,0,0,0,246,60c2.06,1.61,5.24.44,6.21-.08a16.59,16.59,0,0,0,1.9-1.25s1.25,2.09,3.19,2.09S263.7,59,264,56.85,263.42,55,262.65,54.91Zm-195.4,0c-.77-.08-1.69-.36-1.13-7.26s-1-7.67-2-8.36A10.86,10.86,0,0,0,58,38.08a14.07,14.07,0,0,0-4.27,1,17.55,17.55,0,0,0-3.39,2c-1.05.93-.89,2.46-.77,3.55s.45,2.3,1.9,2.26,2.18-1.13,3.15-2.54,1.57-2.14,2.5-2.14c1.29,0,1.62,1.33,1.62,2.3s.24,2.42-.81,2.78-4.56.89-6.9,2.63-2.35,4.8-2.35,5.53A5.27,5.27,0,0,0,50.58,60c2.06,1.61,5.25.44,6.22-.08a16,16,0,0,0,1.89-1.25s1.26,2.09,3.19,2.09,6.42-1.77,6.7-3.87S68,55,67.25,54.91Zm216.28-8.27c0,.91.14,7.94.14,8.86,0,2.5,1.66.82,1.63,3.41a1.85,1.85,0,0,1-2.05,1.69c-1.34,0-1.48-.09-3-.09s-1,.09-2.82.09-2.12-.85-2.12-1.55a2.16,2.16,0,0,1,.89-1.91c.42-.32.45-.91.52-2.61s.05-3.09.05-5.57c0-3-.72-3.93-2.2-4.43-1.85-.61-1.73,1.62-1.73,1.62v8.17c0,2,.28,2.89.71,3.25a1.72,1.72,0,0,1,.84,1.69c0,1.13-.77,1.34-2.4,1.34s-1.72-.09-3.35-.09-2.47.23-3.39.23-1.93-.31-1.93-1.65.78-1.54,1.27-2c.77-.64.78-1.55.78-3.88s-.14-6-.21-7.61-2.9-1.27-2.9-2.75.85-1.63,1.55-1.91,1.13-.42,3.81-1.41c0,0,1.34-.49,2.89-1s1.56.64,1.56,1.06.07,1.83.56,1.83.63-.35,1.48-.91A7.42,7.42,0,0,1,279,38.73a4.34,4.34,0,0,1,4.09,3A24.06,24.06,0,0,1,283.53,46.64Zm-64.84-8.17c.87,0,.87.83.87,1.18s.07,1.83.57,1.83.63-.35,1.48-.91a7.36,7.36,0,0,1,4.93-1.84c2.82,0,4.1,3,4.1,3a17.44,17.44,0,0,1,3.73-2.47,5.1,5.1,0,0,1,6.07.91c2.33,2.12,1.76,4.94,1.76,9.39s-.08,6.64.64,7.33,1.62.39,1.62,1.84c0,1.69-.71,1.79-1.84,1.79s-1.65-.05-3.48-.05-2.58.16-3.64.16-2-.07-2-1.62,1-1.7,1.26-2.26.35-.78.35-2.33-.14-2.59-.14-5.71c0-3.75-1.33-4.09-2.6-4.09s-1.27,1.06-1.27,2,.14,9.3.14,10.22a1.41,1.41,0,0,0,.54,1l0,0a1.39,1.39,0,0,1,.54,1c0,.91-.22,1.69-1.55,1.69s-1.49-.05-3-.05-1,.05-2.82.05-2.12-.85-2.12-1.55a2.8,2.8,0,0,1,1.06-2c.57-.42.29-.84.36-2.54s-.08-3.09-.08-5.57c0-3.42-.81-4.2-2.39-4.37s-1.41,1.13-1.41,1.13v8.6c0,2,.28,2.89.7,3.25a1.71,1.71,0,0,1,.85,1.69c0,1.13-.78,1.29-2.4,1.34-1.09,0-1.76-.05-3.38-.05s-2.83.19-3.74.19-1.91-.28-1.91-1.62.93-1.57,1.63-2c.86-.51.77-1.55.77-3.88s-.14-6-.21-7.61-2.89-1.27-2.89-2.75.84-1.63,1.55-1.91,1.13-.42,3.81-1.41c0,0,1.34-.49,2.89-1a2.48,2.48,0,0,1,.67-.12ZM201,38.41c-.9-.46-1.93-.08-3.67.44a28.23,28.23,0,0,0-3.83,1.33c-1.37.61-2.06,1.29-2.06,2.38s1,1.41,1.82,1.66,1.49.72,1.49,2.38v8.47a2.21,2.21,0,0,1-1.41,2c-1.5.69-1.25,1.66-1.25,2a1.67,1.67,0,0,0,1.85,1.49c1.54,0,2.18-.11,4.36-.11s4.24.17,5.89.17,1.9-1,1.9-2-.53-1.54-1.94-1.9a2.06,2.06,0,0,1-1.73-2.31V46.28s.32-.89,1.09-.05,1.41,2.31,2.18,2.71a2.39,2.39,0,0,0,3.11-1,6.68,6.68,0,0,0,0-6.5c-1.38-3-2.91-3.19-4.12-2.42s-2.1,2.26-2.42,2.34-.69-.48-.69-1.17S201.62,38.73,201,38.41ZM77,38.41c-.9-.46-1.93-.08-3.67.44a28.23,28.23,0,0,0-3.83,1.33c-1.37.61-2.06,1.29-2.06,2.38s1,1.41,1.82,1.66,1.49.72,1.49,2.38v8.47a2.21,2.21,0,0,1-1.41,2c-1.5.69-1.25,1.66-1.25,2A1.67,1.67,0,0,0,70,60.56c1.54,0,2.48-.14,4.66-.14s3.93.2,5.59.2,1.9-1,1.9-2-.53-1.54-1.94-1.9a2.05,2.05,0,0,1-1.73-2.31V46.28s.32-.89,1.09-.05,1.41,2.31,2.17,2.71a2.39,2.39,0,0,0,3.11-1,6.66,6.66,0,0,0,0-6.5c-1.37-3-2.9-3.19-4.11-2.42s-2.1,2.26-2.42,2.34-.69-.48-.69-1.17S77.68,38.73,77,38.41ZM36.35,43.25c1.33,0,1.29-1.13,1.29-1.62V39.5c0-1.82.21-3.15-1-3.84s-1.09-1-1.09-2,.76-1.37,1.65-1.37,2.38.12,4.48.12,3.07-.12,4.68-.12,1.94.81,1.94,1.54,0,1.49-.85,1.9c-.6.28-1.05.53-1.21,1.82a50.69,50.69,0,0,0-.2,5.8c0,2.82.06,9.68.06,9.68,0,1.5.1,3.11,1.27,3.48s1.54.93,1.54,1.53.24,1.84-.89,2.28-2.59,0-5.41,0-3.59.21-4.93.21-1.89-.56-1.89-1.89.75-1.63,1.49-2.06.66-.68.66-2-.09-4.12-.09-5.21-.77-1.17-.77-1.17-1,0-2.14,0a17.39,17.39,0,0,0-2.18.06C32,48.29,32,49.5,32,49.5s.08,4,.08,5.37.69,1.46,1.09,1.74a2.1,2.1,0,0,1,1.34,2.09c0,1.54-.93,1.84-2.14,1.84s-2.92-.23-4.61-.23-3.63.18-3.63.18c-2.38.17-3-.47-3.06-1.4-.08-1.29.07-1.82,1.25-2.36s1.13-.93,1.25-3.47.07-6.78,0-8.76-.05-6.29-.05-6.9A1.93,1.93,0,0,0,22.59,36c-.81-.61-1.95-.51-1.81-2.32.12-1.62,1.73-1.46,2.78-1.42l3.87.14s4.52-.16,5-.16A1.51,1.51,0,0,1,34.05,34c0,1.53-.72,1.45-1.45,1.93s-.81,1.5-.81,3.55A15.46,15.46,0,0,0,32,42.6c.17.61.93.65.93.65ZM155.62,32.44c-2.11,0-2.38-.16-3.05-.16s-2.27.45-2.27,1.88.67,1.67,1.44,2.06,1.18.85,1.5,2.88.1,15.12.1,15.67a2.06,2.06,0,0,1-.88,1.83c-.77.55-2,.5-2,2.33s1.27,1.54,1.83,1.54,2.27-.07,3.87-.07c1.89,0,3.11.07,4.6.07s1.77-.66,1.77-1.77-.77-1.49-2.1-1.88-2.21-1-2.21-3.43V47.9s-.23-1.11.82,0S166,57.74,166,57.74a4.86,4.86,0,0,0,4.3,2.71c2.36,0,2.38-1.25,2.38-3.57V38.21s-.11-1.77,1.11-2.16c1.44-.46,1.66-.39,1.66-2.16,0-1.44-1-1.58-2-1.58s-1.88.13-3.65.13-3.05-.18-4.32-.18-1.55.91-1.55,1.85a1.88,1.88,0,0,0,1.72,2c1.6.28,1.89.84,2,2s.17,3.82.23,4.65.18,1.88-.28,1.88c-.89,0-2.81-3.23-4.65-6.37-2.39-4-2.88-6-4.1-6C157.5,32.34,157,32.44,155.62,32.44Zm27.62,24c-1.34,0-1.83-5.15-1.9-6.56s-.14-7,1.13-7,1.62,2.25,1.9,5.78S184.58,56.43,183.24,56.43Zm69.49-1.2c-.24,0-1,.08-1-1.45a2.27,2.27,0,0,1,1.45-2.54c.89-.4.89.28.89,1.73S253.33,55.23,252.73,55.23Zm-195.41,0c-.24,0-1,.08-1-1.45a2.28,2.28,0,0,1,1.46-2.54c.88-.4.88.28.88,1.73S57.93,55.23,57.32,55.23Zm55.12-10.1c.07-.55.27-1.64,1.17-1.84s1.52.63,2,1.57-.16,1.12-.16,1.12l-2.34.62C112.36,46.75,112.36,45.68,112.44,45.13ZM279.83,35a2.83,2.83,0,1,1,5.66,0h0a2.83,2.83,0,1,1-5.66,0Zm.36,0a2.47,2.47,0,1,0,2.47-2.46A2.48,2.48,0,0,0,280.19,35ZM282,36.56h-.41V33.43H283c.58,0,1,.32,1,.82a.74.74,0,0,1-.55.79h0c.37.07.44.34.47.65a1.61,1.61,0,0,0,.19.86h-.47c-.12-.13-.05-.47-.11-.77s-.12-.57-.52-.57h-1Zm.87-1.69c.39,0,.72-.1.72-.56a.49.49,0,0,0-.55-.53h-1v1.09Z" fill="#fff"/></svg>