<svg viewBox="0 0 100 100" xmlns="http://www.w3.org/2000/svg" fill-rule="evenodd" clip-rule="evenodd" stroke-linejoin="round" stroke-miterlimit="2"><path d="M20.514 41.671l-.339 4.363h-5.619l.277-3.567c.009-.767-.64-.796-.963-.796h-2.899L10 54.153h3.925l.429-5.516h5.619l-.429 5.516h3.912l.969-12.482h-3.911z" fill="#00aaa6" fill-rule="nonzero"/><path d="M89.9 50.338c.769-4.373-3.108-5.225-4.017-5.363a9.004 9.004 0 0 0-1.088-.081c-4.073-.035-6.109 2.532-6.281 4.658-.156 1.928.576 4.777 6.559 4.777 2.199 0 3.611-.323 4.213-.497l.295-1.872c-.297.066-2.089.449-4.042.449-.062 0-.121-.004-.18-.004-2.718-.093-3.259-1.427-3.263-2.038l-.003-.029H89.9zm-36.162 0c.77-4.373-3.108-5.225-4.016-5.363a9.037 9.037 0 0 0-1.089-.081c-4.073-.035-6.109 2.532-6.281 4.658-.155 1.928.577 4.777 6.56 4.777 2.199 0 3.611-.323 4.212-.497l.295-1.872c-.296.066-2.089.449-4.042.449-.061 0-.12-.004-.18-.004-2.718-.093-3.259-1.427-3.263-2.038l-.003-.029h7.807zm-15.654-1.58l-1.373-.576c-.961-.385-1.687-.67-1.561-1.067.072-.222.513-.37 1.83-.371 2.066-.003 4.124.447 4.124.447l.183-1.881s-1.934-.416-4.244-.443c-1.047-.012-1.8.027-2.523.13-1.223.174-3.294.709-3.396 2.417-.107 1.749 1.985 2.513 3.263 3.043l1.06.42c1.208.485 1.776.662 1.756 1.019-.02.392-.857.456-1.995.42-2.01-.063-4.13-.455-4.13-.455l-.128 2.023s1.535.243 4.605.327c.181.004.362.006.542.006 2.234 0 4.959-.348 5.257-2.209.274-1.706-1.521-2.467-3.27-3.25zm36.203-.001l-1.374-.576c-.96-.385-1.686-.669-1.56-1.067.072-.222.513-.369 1.83-.371 2.065-.004 4.123.447 4.123.447l.184-1.881s-1.934-.416-4.244-.443c-1.047-.012-1.801.027-2.523.13-1.223.175-3.294.709-3.396 2.416-.107 1.75 1.985 2.514 3.263 3.045l1.06.42c1.208.484 1.776.661 1.756 1.018-.021.391-.857.456-1.996.42-2.009-.063-4.129-.455-4.129-.455l-.128 2.024s1.535.242 4.605.326c.181.005.361.006.541.006 2.235 0 4.96-.348 5.258-2.209.274-1.707-1.521-2.467-3.27-3.25zm-45.154 5.396h-3.835l.699-9.082h3.838l-.702 9.082zm33.329-5.969c-.101 1.61-.381 5.952-.381 5.952h3.582l.384-6.046c.171-2.746-1.771-2.949-3.056-3.082a23.053 23.053 0 0 0-2.473-.052c-2.228.076-5.059.406-5.059.406l-.562 8.774h3.596l.438-7.122s1.275-.183 2.28-.139c.341.015 1.333-.002 1.251 1.309zm24.388.439s.151-1.917-2.131-1.937c-1.566.01-2.304.98-2.474 1.937h4.605zm-36.161 0s.15-1.917-2.131-1.937c-1.566.01-2.305.98-2.475 1.937h4.606zm-20.758-4.571h-3.839l.18-2.381h2.975c.617 0 .831.262.797.796-.015.228-.113 1.585-.113 1.585z" fill="#00aaa6"/></svg>