<?xml version="1.0" encoding="UTF-8" standalone="no"?>
<!DOCTYPE svg PUBLIC "-//W3C//DTD SVG 1.1//EN" "http://www.w3.org/Graphics/SVG/1.1/DTD/svg11.dtd">
<svg width="100%" height="100%" viewBox="0 0 100 100" version="1.1" xmlns="http://www.w3.org/2000/svg" xmlns:xlink="http://www.w3.org/1999/xlink" xml:space="preserve" xmlns:serif="http://www.serif.com/" style="fill-rule:evenodd;clip-rule:evenodd;stroke-linejoin:round;stroke-miterlimit:1.41421;">
    <path d="M72.659,25.61c1.01,0 1.806,0.859 1.726,1.864l-3.596,45.325c-0.071,0.898 -0.823,1.591 -1.726,1.591l-38.126,0c-0.903,0 -1.655,-0.693 -1.726,-1.591l-3.596,-45.325c-0.08,-1.005 0.716,-1.864 1.726,-1.864l45.318,0Z" style="fill:#fff;fill-rule:nonzero;"/>
    <path d="M72.23,26.9c0.489,0 0.875,0.418 0.837,0.906l-2.568,32.351l-8.304,0l0,-33.257l10.035,0Zm-34.425,0l0,33.257l-8.304,0l-2.568,-32.351c-0.038,-0.488 0.348,-0.906 0.837,-0.906l10.035,0Z" style="fill:#ee2c29;fill-rule:nonzero;"/>
    <path d="M72.659,25c0.652,0 1.279,0.274 1.721,0.752c0.441,0.478 0.664,1.123 0.613,1.77l-3.596,45.325c-0.096,1.207 -1.121,2.153 -2.334,2.153l-38.126,0c-1.213,0 -2.238,-0.946 -2.334,-2.153l-3.596,-45.325c-0.051,-0.647 0.172,-1.292 0.613,-1.77c0.442,-0.478 1.069,-0.752 1.721,-0.752l45.318,0Zm-3.596,49.39c0.903,0 1.655,-0.693 1.726,-1.591l3.596,-45.325c0.08,-1.005 -0.716,-1.864 -1.726,-1.864l-45.318,0c-1.01,0 -1.806,0.859 -1.726,1.864l3.596,45.325c0.071,0.898 0.823,1.591 1.726,1.591l38.126,0Zm4.513,-1.458l-0.203,0l0,-1.113l0.237,0l0.303,0.623l0.003,0l0.303,-0.623l0.229,0l0,1.113l-0.203,0l0,-0.589l0.001,-0.212l-0.003,0l-0.265,0.548l-0.135,0l-0.265,-0.548l-0.003,0l0.001,0.212l0,0.589Zm-0.75,0l-0.21,0l0,-0.934l-0.367,0l0,-0.179l0.943,0l0,0.179l-0.366,0l0,0.934Zm-8.683,-7.325l-0.689,0c-0.13,0 -0.233,-0.109 -0.226,-0.239c0.001,-0.028 0.001,-0.04 0.001,-0.041c0.033,-0.71 -0.415,-1.241 -1.431,-1.241c-1.688,0 -2.916,1.385 -3.077,3.205c-0.166,1.879 1.147,2.971 2.966,2.971c0.932,0 1.67,-0.18 2.084,-0.311c0.164,-0.052 0.324,0.09 0.292,0.26l-0.214,1.126c-0.018,0.096 -0.087,0.174 -0.181,0.204c-0.372,0.118 -1.418,0.397 -3.02,0.397c-3.805,0.001 -5.348,-2.188 -5.109,-4.418c0.212,-1.987 1.527,-4.914 6.71,-4.915c0.992,0 1.786,0.159 2.412,0.331c0.136,0.037 0.219,0.176 0.188,0.314l-0.484,2.179c-0.023,0.104 -0.115,0.178 -0.222,0.178Zm-13.441,6.213l-3.437,0c-0.145,0 -0.252,-0.134 -0.221,-0.275l1.498,-6.784c0.152,-0.599 -0.198,-0.842 -0.449,-0.938c-0.009,-0.004 -0.018,-0.007 -0.026,-0.01c-0.113,-0.04 -0.177,-0.157 -0.152,-0.274l0.133,-0.597c0.025,-0.113 0.125,-0.194 0.241,-0.194l7.644,0c0.145,0 0.253,0.134 0.221,0.276l-0.494,2.228c-0.023,0.103 -0.115,0.177 -0.221,0.177l-0.727,0c-0.135,0 -0.241,-0.118 -0.226,-0.253c0.002,-0.023 0.003,-0.03 0.003,-0.03c0.037,-0.568 -0.158,-0.901 -0.795,-0.901l-1.972,0.002l-0.527,2.403l2.823,0c0.145,0 0.253,0.135 0.222,0.276l-0.275,1.24c-0.023,0.103 -0.115,0.177 -0.222,0.177l-2.923,0c0,0 -0.325,1.472 -0.337,1.536c-0.108,0.475 0.216,0.722 0.434,0.828c0.011,0.005 0.022,0.01 0.034,0.015c0.093,0.042 0.144,0.144 0.122,0.244l-0.15,0.677c-0.023,0.103 -0.115,0.177 -0.221,0.177Zm-11.003,0l-4.315,0c-0.151,0 -0.264,-0.141 -0.231,-0.289l0.127,-0.574c0.023,-0.104 0.109,-0.182 0.215,-0.193c0.005,-0.001 0.009,-0.001 0.013,-0.002c0.395,-0.046 0.81,-0.295 1.066,-1.519l0.979,-4.48c0.126,-0.596 -0.173,-0.823 -0.43,-0.924c-0.002,-0.001 -0.018,-0.006 -0.041,-0.014c-0.118,-0.04 -0.187,-0.163 -0.16,-0.285l0.133,-0.598c0.025,-0.114 0.125,-0.194 0.241,-0.194l4.105,0c0.143,0 0.25,0.133 0.219,0.273l-0.131,0.59c-0.019,0.087 -0.083,0.156 -0.168,0.182c-0.01,0.004 -0.02,0.007 -0.031,0.01c-0.192,0.063 -0.496,0.22 -0.589,0.603l-0.547,2.493c0,0 0.001,0.001 0.002,0l3.183,-2.645c0.191,-0.158 0.142,-0.368 -0.077,-0.452c0,0 0,-0.001 -0.001,-0.001c-0.124,-0.038 -0.199,-0.165 -0.171,-0.292l0.126,-0.568c0.025,-0.113 0.125,-0.193 0.24,-0.193l3.738,0c0.146,0 0.254,0.135 0.222,0.277l-0.127,0.574c-0.021,0.098 -0.102,0.167 -0.201,0.178c-0.017,0.002 -0.028,0.003 -0.028,0.003c-0.282,0.037 -0.791,0.129 -1.207,0.455l-3.107,2.584c-0.001,0 -0.001,0.001 0,0.001l2.391,3.236c0.463,0.596 0.692,0.704 1.158,0.711c0.152,0.003 0.262,0.146 0.229,0.295l-0.13,0.582c-0.023,0.103 -0.114,0.176 -0.22,0.176l-1.862,0c-2.062,0 -2.631,-0.904 -4.348,-4.044c-0.001,-0.001 -0.002,-0.001 -0.002,0l-0.501,2.29c-0.077,0.356 0.222,0.545 0.44,0.634c0.01,0.003 0.019,0.007 0.028,0.011c0.104,0.041 0.163,0.151 0.139,0.261l-0.149,0.671c-0.023,0.103 -0.114,0.177 -0.22,0.177Zm4.51,-24.177c0.015,0.625 0.377,2.276 2.474,3.843c0.875,0.653 1.276,0.948 1.391,1.028l0,0.004c0.057,0.041 -0.31,0.031 -0.411,0.041c-0.165,0.016 -0.724,-0.035 -1.171,0.048c-0.404,0.074 -0.35,0.172 -0.39,0.464c-0.031,0.231 -0.002,0.598 -0.013,0.911c-0.012,0.313 -0.029,0.535 0.103,0.687c0.131,0.148 0.213,0.172 0.768,0.138c0.527,-0.032 1.987,-0.033 2.163,-0.069c0.225,-0.046 0.189,0.035 0.059,0.315c-0.223,0.478 -0.95,2.672 -2.08,4.757c-0.158,0.292 0.287,0.154 0.667,0.337c0.688,0.332 0.665,0.424 0.846,0.078c0.195,-0.375 1.187,-2.708 1.34,-3.429c0.02,-0.094 0.061,-0.176 0.076,-0.034c0.011,0.101 0.026,3.05 -0.056,3.98c-0.005,0.049 0.007,0.101 0.042,0.136c0.049,0.051 0.124,0.072 0.188,0.087c0,0 0.001,0 0.002,0c0.341,-0.114 0.754,-0.198 1.105,-0.14c0.031,-0.004 0.061,-0.01 0.089,-0.019c0.019,-0.016 0.036,-0.034 0.048,-0.056c0.028,-0.05 0.041,-0.106 0.054,-0.161c0.001,-0.004 0.002,-0.008 0.003,-0.013c0.017,-0.078 0.031,-0.157 0.039,-0.237c0.005,-0.048 0.008,-0.095 0.011,-0.142c0.004,-0.062 0.007,-0.123 0.009,-0.185c0.003,-0.074 0.004,-0.148 0.005,-0.222c0.002,-0.086 0.002,-0.171 0.002,-0.257c0,-0.095 -0.001,-0.191 -0.002,-0.287c-0.002,-0.104 -0.004,-0.07 -0.007,-0.174c-0.003,-0.112 -0.007,-0.223 -0.012,-0.335c-0.005,-0.118 -0.011,-0.236 -0.018,-0.353c-0.007,-0.123 -0.014,-0.245 -0.023,-0.367c-0.009,-0.126 -0.019,-0.252 -0.03,-0.378c-0.011,-0.127 -0.024,-0.255 -0.037,-0.383c-0.014,-0.128 -0.028,-0.257 -0.044,-0.385c-0.016,-0.127 -0.034,-0.255 -0.053,-0.382c-0.018,-0.126 -0.038,-0.251 -0.06,-0.377c-0.021,-0.122 -0.044,-0.174 -0.069,-0.296c-0.024,-0.118 -0.05,-0.235 -0.078,-0.352c-0.027,-0.111 -0.057,-0.222 -0.089,-0.333c-0.025,-0.087 -0.052,-0.175 -0.081,-0.262c-0.005,-0.014 -0.029,-0.134 -0.026,-0.149c0.009,-0.043 0.064,-0.012 0.123,-0.023c0,0 0.028,-0.006 0.043,-0.008c0.376,-0.051 1.029,-0.017 1.176,-0.011c0.146,0.004 0.888,0.075 1.097,0.094c0.208,0.02 0.461,0.069 0.449,-0.562c-0.003,-0.168 -0.003,-0.268 -0.003,-0.425c0,-0.021 0,-0.043 0,-0.064c0.001,-0.04 0.001,-0.079 0.002,-0.117c0,-0.023 0,-0.044 0.001,-0.066c0,-0.021 0,-0.043 0.001,-0.063c0,-0.019 0,-0.039 0.001,-0.057c0.001,-0.034 0.001,-0.067 0.003,-0.097c0,-0.01 0,-0.018 0.001,-0.027c0,-0.023 0.001,-0.044 0.002,-0.063c0,-0.01 0,-0.019 0.001,-0.029c0.001,-0.018 0.002,-0.032 0.003,-0.045c0,-0.004 0,-0.01 0.001,-0.014c0.001,-0.019 0.002,-0.04 0.003,-0.062c0.005,-0.154 -0.015,-0.436 -0.307,-0.511c-0.335,-0.083 -0.925,-0.104 -1.456,-0.057c-0.074,0.006 -0.09,0 -0.067,-0.021l0,-0.005c0.115,-0.081 0.881,-0.505 1.757,-1.289c0.964,-0.865 1.424,-1.325 1.719,-1.95c0,0 1.055,-2.047 1.002,-3.781c-0.011,-0.35 0.046,-0.32 0.263,-0.314c0.066,0.002 0.315,-0.016 0.449,-0.104c0.448,-0.102 0.843,-1.63 0.843,-1.63c0,0 0.672,-2.321 0.835,-3.27c0.145,-0.844 0.111,-1.337 -0.404,-1.588l-0.086,-0.048c-0.039,-0.022 -0.058,-0.068 -0.046,-0.111c0.01,-0.036 0.02,-0.078 0.025,-0.109c0.252,-0.875 0.702,-1.982 0.6,-2.43c-0.018,-0.129 -0.127,-0.171 -0.165,-0.197c-0.052,-0.035 -0.252,-0.258 -0.307,-0.414c-0.008,-0.023 -0.011,-0.047 -0.013,-0.071c-0.143,-1.651 -0.729,-3.722 -2.477,-5.526c-0.003,-0.002 -0.12,-0.11 -0.192,-0.175c-0.149,-0.135 -0.341,-0.302 -0.561,-0.468c-0.465,-0.348 -0.837,-0.615 -1.602,-0.997c-0.059,-0.029 -0.634,-0.29 -1.483,-0.498c-0.08,-0.021 -0.16,-0.042 -0.241,-0.061c-0.125,-0.029 -0.319,-0.065 -0.542,-0.096c-0.523,-0.082 -1.104,-0.126 -1.708,-0.088l0,0c-0.072,0.003 -0.156,0.008 -0.179,0.008c-0.036,0.001 -0.074,0.002 -0.11,0.004c-0.041,0.002 -0.082,0.002 -0.124,0.004c-0.128,0.006 -0.297,0.025 -0.474,0.051c-0.285,0.041 -0.592,0.098 -0.781,0.142c-0.212,0.052 -0.496,0.111 -0.853,0.213c-0.146,0.043 -0.293,0.089 -0.439,0.136c-0.042,0.013 -0.083,0.026 -0.124,0.039c-0.158,0.052 -0.317,0.106 -0.478,0.164c-0.116,0.041 -0.611,0.255 -0.719,0.305c-0.052,0.024 -0.123,0.054 -0.2,0.086c-0.349,0.11 -0.422,0.312 -0.435,0.423c-0.008,0.071 -0.024,0.142 -0.054,0.207c-0.504,1.069 -1.687,1.173 -2.156,1.196c-0.123,0.006 -0.232,0.024 -0.193,0.143c0.1,0.307 0.653,0.88 0.992,0.984c-0.005,0.049 -0.29,0.11 -0.35,0.126c-0.136,0.036 -0.697,-0.013 -0.724,-0.008c-0.003,0 -0.005,0.001 -0.007,0.001c-0.636,0.054 -0.831,0.487 -0.888,0.692c-0.018,0.063 -0.008,0.132 0.028,0.187c0.141,0.214 0.288,0.389 0.4,0.671c0.001,0.003 0.002,0.006 0.003,0.009c0.029,0.074 0.055,0.156 0.079,0.248c0.013,0.121 0.11,0.247 -0.013,0.484c-0.216,0.421 -0.758,0.552 -0.84,0.97c-0.115,0.593 0.09,0.982 0.315,1.963c0.154,0.673 0.32,1.368 0.439,1.683c0.006,0.017 -0.004,0.034 -0.021,0.038c-0.047,0.009 -0.13,0.026 -0.158,0.035c-0.314,0.125 -0.412,0.373 -0.448,0.856c-0.079,1.069 0.711,2.719 0.955,4.131c0.083,0.477 0.302,1.241 0.668,1.554c0.084,0.072 0.26,0.119 0.37,0.138c0.286,0.049 0.41,-0.132 0.426,0.155c0.003,0.06 0.024,0.221 0.026,0.312c0.05,1.014 0.593,2.021 0.593,2.021Zm13.912,-7.583c-0.205,1.091 -0.434,1.638 -0.581,2.311c-0.153,0.7 -0.454,1.723 -0.745,1.749c-0.295,0.089 -0.414,-0.252 -0.603,0c-0.112,0.15 -0.2,0.349 -0.3,0.477c-0.064,0.083 -0.128,0.27 -0.129,0.372c0,0.197 -0.01,0.833 -0.187,1.667c-0.265,1.258 -0.748,2.174 -1.249,2.753c-0.961,1.108 -1.86,1.286 -1.967,1.342c-0.138,0.073 -0.346,0.03 -0.414,-0.003c-0.07,-0.031 -0.123,-0.114 -0.241,-0.23c-0.123,-0.115 -0.165,0.059 -0.17,0.104c-0.005,0.042 0.062,0.566 -0.072,0.803c-0.287,0.51 -0.565,0.554 -0.719,1.19c-0.052,0.214 -0.016,0.538 -0.272,0.392c-0.626,-0.358 -1.524,-1.327 -1.709,-2.266c-0.057,-0.287 -0.004,-0.605 0.17,-1.149c0.101,-0.32 0.173,-0.675 0.173,-0.88c0,-0.363 -0.142,-0.671 0,-0.702c0.263,-0.059 0.383,0.622 0.505,0.552c0.212,-0.122 0.054,-0.841 0.054,-0.841c0,0 -0.087,-0.205 -0.459,-0.292c-0.215,-0.05 -0.282,-0.211 -0.054,-0.323c0.171,-0.084 0.369,-0.194 0.6,-0.159c1.545,0.219 1.989,-0.092 2.614,-0.26c0.123,-0.033 0.195,-0.047 0.291,-0.002c0.095,0.044 0.352,0.185 0.404,0.316c0.053,0.131 -0.002,0.643 0.08,1.029c0.083,0.388 0.356,0.036 0.423,-0.117c0.069,-0.152 0.139,-0.527 0.153,-0.622c0.015,-0.095 0.094,-0.494 0.237,-0.612c0.283,-0.235 0.383,-0.544 0.428,-0.665c0.047,-0.121 0.121,-0.493 0.108,-1.038c-0.014,-0.543 -0.112,-0.602 -0.243,-0.719c-0.13,-0.116 -0.285,-0.094 -0.617,-0.397c-0.294,-0.27 -0.537,-0.708 -0.751,-0.983c-0.214,-0.275 -0.569,-0.57 -0.974,-0.669c-0.404,-0.097 -0.236,0.275 -0.214,0.38c0.017,0.073 0.112,0.403 -0.023,0.512c-0.132,0.109 -0.948,0.658 -1.676,0.467c-0.868,-0.226 -1.168,-0.709 -1.185,-1.176c-0.013,-0.33 0.145,-0.649 0.343,-1.028c0.116,-0.222 0.162,-0.592 0.209,-0.947c0.037,-0.283 0.113,-0.694 0.175,-0.84c0.044,-0.105 0.149,-0.22 0.384,-0.206c0.233,0.013 0.386,0.129 0.428,0.33c0.151,0.698 0.397,0.874 0.48,0.93c0.085,0.057 0.242,-0.056 0.303,-0.097c0.063,-0.04 0.22,-0.2 0.171,-0.286c-0.075,-0.132 -0.117,-0.212 -0.134,-0.29c-0.028,-0.133 0.138,-0.116 0.171,-0.09c0.272,0.214 0.529,0.233 0.999,0.312c0.822,0.137 0.94,-0.166 1.505,-0.068c0.073,0.012 0.212,0.074 0.258,0.158c0.037,0.073 0.106,0.24 0.175,0.269c0.068,0.026 0.236,0.037 0.322,0.052c0.12,0.021 0.334,0.007 0.298,0.228c-0.092,0.592 -0.775,0.755 -1.095,0.81c-0.131,0.023 -0.192,0.034 -0.213,0.053c-0.069,0.06 -0.072,0.246 0.008,0.365c0.056,0.085 0.314,0.09 0.668,0.022c0.368,-0.071 0.723,-0.248 1.002,-0.684c0.296,-0.462 0.459,-1.478 0.494,-1.668c0.033,-0.19 0.109,-0.507 0.214,-0.572c0.103,-0.065 0.584,-0.211 0.652,-0.199c0.081,0.013 0.139,0.052 0.177,0.239c0.038,0.187 -0.032,1.307 -0.034,1.476c-0.002,0.18 0.091,0.179 0.142,0.155c0.112,-0.052 0.412,-0.251 0.48,-0.482c0.05,-0.171 -0.094,-0.42 -0.022,-0.657c0.113,-0.369 0.224,-0.468 0.301,-0.46c0.469,0.045 0.565,0.25 0.453,0.847l0,0.017Zm-10.846,9.601c-0.58,0.018 -2.098,-0.898 -2.76,-3.497c-0.171,-0.669 0.25,-1.211 0.512,-1.305c0.154,-0.056 0.236,-0.074 0.288,-0.081c0.054,-0.007 0.318,-0.005 0.309,0.293c-0.009,0.242 0.191,2.258 0.718,2.987c0.13,0.181 0.251,0.188 0.311,0.028c0.055,-0.148 0.146,-0.34 0.175,-0.412c0.022,-0.053 0.213,-0.346 0.27,-0.123c0.121,0.472 0.404,1.443 0.523,1.694c0.197,0.416 -0.128,0.409 -0.346,0.416Zm4.193,-3.58c-0.175,0.064 -0.678,0.181 -0.923,0.196c-0.246,0.014 -1.027,0.067 -1.158,0.061c-0.161,-0.01 -0.378,-0.088 -0.554,-0.25c-0.036,-0.032 -0.074,-0.145 0.069,-0.148c0.268,-0.004 0.72,-0.147 2.277,-0.015c0.166,0.013 0.245,0.021 0.284,0.024c0.041,0.004 0.179,0.071 0.005,0.132Zm-3.829,-0.632c-0.757,-0.01 -1.108,-0.292 -1.162,-0.376c-0.052,-0.082 0.035,-0.145 0.114,-0.171c0.179,-0.056 0.497,-0.217 0.626,-0.315c0.13,-0.097 0.487,-0.319 0.667,-0.435c0.085,-0.056 0.572,-0.268 0.857,-0.069c0.427,0.298 0.827,0.497 1.558,0.453c0.471,-0.029 0.46,-0.409 0.843,-0.53c0.345,-0.108 0.412,-0.193 0.52,-0.257c0.14,-0.028 0.243,-0.063 0.394,0.078c0.192,0.179 0.262,0.32 0.484,0.571c0.305,0.344 0.64,0.504 0.744,0.524c0.103,0.021 0.178,0.105 0.179,0.14c0.001,0.034 -0.042,0.141 -0.349,0.229c-1.024,0.293 -2.132,0.105 -2.703,-0.123c-0.29,-0.116 -0.572,-0.147 -0.89,0.009c-0.32,0.157 -1.174,0.281 -1.882,0.272Zm-3.414,-3.545c-0.04,-0.175 0.037,-0.437 0.45,-0.172c0.066,0.042 0.259,0.13 0.475,0.192c0.13,0.037 0.215,-0.018 0.251,-0.112c0.038,-0.094 0.145,-0.282 -0.038,-0.371c-0.183,-0.092 -0.634,-0.17 -0.892,-0.805c-0.047,-0.113 0.031,-0.244 0.104,-0.277c0.073,-0.033 0.164,-0.017 0.248,0.064c0.084,0.078 0.264,0.252 0.426,0.259c0.148,0.007 0.173,-0.054 0.203,-0.089c0.124,-0.14 0.483,-0.663 1.225,-0.572c0.306,0.037 0.588,0.105 0.691,0.113c0.073,0.005 0.277,0.014 0.472,-0.023c0.223,-0.042 0.554,-0.11 0.392,0.077c-0.132,0.152 -0.242,0.216 -0.127,0.381c0.006,0.009 0.012,0.017 0.018,0.025c0.104,0.147 0.107,0.342 0.001,0.487l-0.013,0.019c-0.164,0.213 -0.503,0.459 -1.204,0.503c-0.32,0.02 -0.34,0.008 -0.347,0.191c-0.002,0.071 -0.001,0.108 0.009,0.157c0.019,0.092 0.078,0.13 0.3,0.144c0.16,0.01 0.455,-0.022 0.456,-0.022c0.072,-0.022 0.157,0.024 0.11,0.085c-0.007,0.009 -0.036,0.053 -0.041,0.059c-0.159,0.206 -0.209,0.394 -0.224,0.506c-0.012,0.095 -0.067,0.18 -0.152,0.224c-0.001,0.001 -0.002,0.001 -0.003,0.002c-0.102,0.052 -0.516,0.142 -0.842,0.411c-0.324,0.268 -1.001,0.49 -1.292,0.159c-0.292,-0.329 -0.529,-1.066 -0.656,-1.615Zm4.076,1.008c0.046,0.084 0.061,0.225 0.048,0.284c-0.014,0.071 -0.265,0.165 -0.474,-0.148c-0.209,-0.31 -0.111,-0.692 0.013,-0.842c0.197,-0.241 0.498,-0.066 0.454,0.023c-0.15,0.309 -0.083,0.599 -0.041,0.683Zm-5.411,-0.133c-0.293,-0.195 -0.277,-0.45 -0.352,-0.701c-0.158,-0.533 -0.328,-1.175 -0.474,-1.72c-0.089,-0.33 -0.112,-1.104 0.336,-1.104c0.225,0 0.394,0.071 0.466,0.283c0.16,0.473 -0.142,0.391 -0.065,0.949c0.055,0.396 0.131,0.785 0.256,1.456c0.057,0.309 0.158,1.054 -0.114,0.873l-0.053,-0.036Zm11.682,-2.917c-0.076,0.039 -0.367,-0.058 -0.447,-0.103c-0.16,-0.09 -0.274,-0.154 -0.491,-0.338c-0.143,-0.121 -0.404,-0.178 -0.651,-0.166c-0.189,0.009 -0.378,0.05 -0.523,0.083c-0.143,0.035 -0.154,-0.095 -0.112,-0.144c0.044,-0.049 0.245,-0.234 0.684,-0.349c0.064,-0.016 0.187,-0.011 0.249,-0.004c0.183,0.02 0.403,0.142 0.56,0.295c0.158,0.154 0.477,0.426 0.649,0.531c0.082,0.049 0.264,0.102 0.082,0.195Zm-9.167,-0.424c0.05,-0.041 0.071,-0.041 0.24,-0.133c0.119,-0.067 0.256,-0.148 0.394,-0.238c0.25,-0.162 0.723,-0.331 0.924,-0.328c0.145,0.001 0.399,0.064 0.534,0.211c0.141,0.154 0.179,0.333 -0.005,0.302c-0.182,-0.032 -0.375,-0.081 -0.726,0c-0.392,0.089 -0.658,0.239 -0.848,0.324c-0.193,0.09 -0.389,0.111 -0.454,0.108c-0.062,-0.004 -0.24,-0.099 -0.059,-0.246Zm-0.258,-0.35c-0.186,0.118 -0.369,0.255 -0.508,0.345c-0.17,0.112 -0.408,0.005 -0.338,-0.233c0.034,-0.116 0.198,-0.412 0.474,-0.464c0.036,-0.008 0.173,-0.034 0.287,-0.048c0.134,-0.014 0.276,-0.026 0.349,-0.029c0.195,-0.009 0.217,0.148 0.084,0.229c-0.088,0.054 -0.224,0.121 -0.348,0.2Zm9.246,0.048c0,0 -0.271,-0.185 -0.358,-0.336c-0.043,-0.074 -0.033,-0.137 0.082,-0.137c0.407,-0.005 0.779,-0.014 0.961,0.138c0.132,0.111 0.136,0.343 0.071,0.493c-0.075,0.171 -0.224,0.122 -0.31,0.11c-0.085,-0.013 -0.446,-0.268 -0.446,-0.268Zm-9.692,-8.475c0.062,-0.096 0.213,-0.237 0.364,-0.346c0.158,-0.113 0.935,-0.695 1.658,-0.915c0.134,-0.04 0.168,-0.06 0.253,-0.081c0.109,-0.028 0.2,-0.261 -0.025,-0.295c-0.236,-0.034 -0.333,-0.019 -0.459,-0.015c-0.126,0.003 -0.187,-0.065 -0.095,-0.164c0.093,-0.1 0.26,-0.201 0.555,-0.32c0.642,-0.256 1.782,-0.392 2.313,-0.44c0.694,-0.059 0.778,-0.057 1.229,-0.023c0.422,0.032 0.754,0.111 0.911,0.139c0.795,0.144 1.712,0.512 2.527,0.96c0.429,0.254 0.843,0.538 1.228,0.838c1.167,0.911 2.508,2.642 2.313,6.289c-0.024,0.431 -0.075,0.669 -0.103,0.773c-0.029,0.106 -0.169,0.286 -0.243,0.048c-0.241,-0.78 -0.551,-2.156 -1.257,-3.242c-0.099,-0.151 -0.25,-0.137 -0.235,0.022c0.005,0.067 0.038,0.762 0.021,0.897c-0.115,0.896 0.16,0.547 0.564,1.508c0.125,0.297 0.287,0.885 0.327,1.264c0.01,0.096 0.023,0.206 0.026,0.312c0.002,0.134 -0.064,0.143 -0.064,0.143c-0.277,-0.001 -0.759,-0.133 -1.019,-0.141c-0.296,-0.009 -2.35,-0.03 -3.121,0.031c-0.773,0.059 -1.193,0.337 -1.631,0.695c-0.072,0.059 -0.176,0.115 -0.234,0.144c-0.029,0.014 -0.062,0.019 -0.094,0.013c-0.035,-0.006 -0.093,-0.017 -0.184,-0.036c-0.189,-0.039 -0.416,-0.054 -0.601,0.002c-0.184,0.055 -0.271,0.103 -0.47,-0.013c-0.283,-0.165 -0.717,-0.826 -2.234,-0.838c-0.859,-0.007 -1.985,-0.019 -2.649,0.01c-0.214,0.01 -0.326,0.034 -0.381,0.032c-0.005,-0.025 -0.006,-0.06 -0.006,-0.067c-0.011,-1.21 0.779,-0.942 0.869,-1.256c0.226,-0.785 0.279,-2.671 1.648,-3.829c0.655,-0.553 0.995,-0.576 1.603,-0.576c0.655,0 1.294,0.17 1.619,0.332c0.26,0.128 0.388,0.214 0.49,0.138c0.102,-0.077 0.374,-0.324 0.487,-0.409c0.113,-0.087 0.07,-0.221 -0.037,-0.309c-0.102,-0.083 -1.073,-1.305 -2.563,-1.551c-0.341,-0.057 -0.593,-0.109 -0.903,-0.11c-0.167,-0.006 -0.316,-0.007 -0.705,0.041c-0.57,0.069 -1.316,0.386 -1.795,0.576c-0.026,-0.027 0.073,-0.188 0.103,-0.231Zm11.732,7.866c-0.061,0.067 -0.116,0.027 -0.243,0.058c-0.099,0.024 -0.165,0.08 -0.256,0.072c-0.144,-0.013 -0.215,-0.185 -0.138,-0.298c0.119,-0.174 0.287,-0.022 0.423,0.001c0.066,0.012 0.114,-0.008 0.18,0.016c0.067,0.024 0.076,0.085 0.034,0.151Zm-12.418,0.121c-0.092,0.01 -0.168,-0.046 -0.268,-0.067c-0.115,-0.026 -0.186,0.01 -0.234,-0.054c-0.042,-0.065 -0.034,-0.127 0.032,-0.152c0.065,-0.024 0.113,-0.006 0.18,-0.019c0.135,-0.026 0.3,-0.18 0.422,-0.009c0.079,0.112 0.011,0.286 -0.132,0.301Zm-1.988,-3.46c0.164,-0.442 0.46,-0.818 0.663,-1.084c0.185,-0.243 0.098,-0.564 0.003,-0.852c-0.061,-0.264 -0.231,-0.538 -0.257,-0.611c-0.019,-0.05 -0.02,-0.091 -0.004,-0.127c0.013,-0.008 0.023,-0.015 0.035,-0.023l0.359,-0.031c1.026,-0.131 1.93,-0.491 2.204,-0.644c0.134,-0.076 0.277,-0.135 0.423,-0.185c0.171,-0.058 0.349,-0.116 0.526,-0.139c0.134,-0.023 0.293,-0.043 0.429,-0.058c0.203,-0.023 0.524,0.119 0.452,0.161c-0.171,0.103 -0.969,0.287 -1.67,1.125c-0.43,0.512 -0.529,0.828 -0.674,1.064c-0.147,0.237 -0.265,0.293 -0.471,0.471c-0.101,0.086 -0.306,0.267 -0.407,0.553c-0.102,0.29 -0.494,1.3 -0.545,2.904c-0.005,0.186 -0.037,0.382 -0.214,0.45c0,0 -0.001,0 -0.001,0.001c-0.145,0.058 -0.263,0.154 -0.287,0.049c-0.093,-0.352 -0.309,-1.111 -0.399,-1.591c-0.029,-0.152 -0.062,-0.302 -0.099,-0.452c-0.098,-0.41 -0.142,-0.774 -0.066,-0.981Z" style="fill:#231f20;fill-rule:nonzero;"/>
</svg>
