<svg clip-rule="evenodd" fill-rule="evenodd" stroke-linejoin="round" stroke-miterlimit="1.41421" viewBox="0 0 26 32" xmlns="http://www.w3.org/2000/svg"><path d="m26 .705v21.46c-.158 1.985-.996 3.329-2.672 4.246l-10.328 5.589-10.328-5.589c-1.676-.917-2.514-2.261-2.672-4.246v-21.46h.067c2.058-.214 7.392-.704 12.933-.705 5.541.001 10.874.491 12.933.705h.067zm-1.878 20.773c0 1.397-.4 2.043-.988 2.408l-10.134 5.677-10.156-5.677c-.589-.365-.988-1.011-.988-2.408v-1.97l11.123 6.559 11.143-6.559zm-22.266-8.225 11.123 6.559 11.122-6.559v3.633l-11.101 6.56-11.144-6.56v-3.633zm15.968-2.381c-.013-.015-2.135-2.562-2.418-2.893.782-.498 1.209-1.351 1.209-2.418 0-1.73-1.162-2.773-3.058-2.773h-6.52v4.48h-.047l-2.774-4.48h-1.944v8.107h1.968v-4.48h.024l2.844 4.433h1.921v-6.353h4.386c.805 0 1.209.379 1.209 1.114 0 .687-.404 1.09-1.091 1.09h-1.233v-1.28h-2.062v5.453h2.062v-2.418h.996l1.967 2.418zm1.896-1.802v-6.282h-2.086v6.543c.64.758 1.304 1.541 1.304 1.541h4.907v-1.802z" fill="#64FF32"/></svg>