<?xml version="1.0" encoding="UTF-8" standalone="no"?>
<!DOCTYPE svg PUBLIC "-//W3C//DTD SVG 1.1//EN" "http://www.w3.org/Graphics/SVG/1.1/DTD/svg11.dtd">
<svg width="100%" height="100%" viewBox="0 0 100 100" version="1.1" xmlns="http://www.w3.org/2000/svg" xmlns:xlink="http://www.w3.org/1999/xlink" xml:space="preserve" xmlns:serif="http://www.serif.com/" style="fill-rule:evenodd;clip-rule:evenodd;stroke-linejoin:round;stroke-miterlimit:2;">
    <g transform="matrix(0.0968007,0,0,0.0968007,0,31.614)">
        <rect x="0" y="0.873" width="1033.05" height="378.127" style="fill:rgb(0,103,171);fill-rule:nonzero;"/>
        <path d="M942.325,139.147C942.325,161.166 924.474,179.017 902.454,179.017C880.435,179.017 862.584,161.166 862.584,139.147C862.584,117.127 880.435,99.277 902.454,99.277C924.474,99.277 942.325,117.127 942.325,139.147Z" style="fill:rgb(74,183,73);fill-rule:nonzero;"/>
        <path d="M666.312,149.896C661.724,149.896 656.54,150.269 649.96,151.599L660.139,113.498L623.94,113.498L587.98,247.089L624.152,247.089L629.821,226.291L638.249,247.089C640.341,248.202 642.551,249.36 647.876,249.36C664.263,249.36 682.254,237.178 693.511,216.205C704.474,195.817 715.066,149.896 666.312,149.896ZM775.026,241.251L776.316,240.793L786.283,211.173L780.322,213.606C766.026,219.455 755.484,222.412 748.912,222.457L748.757,222.458C745.376,222.458 742.603,221.8 740.388,220.453C739.109,219.677 738.017,218.67 737.101,217.428C734.867,214.459 734.148,210.436 734.888,205.386L790.072,205.448L790.754,203.506C792.303,199.032 793.363,194.681 793.921,190.609C795.543,178.561 793.215,168.655 787.018,161.145C780.765,153.598 771.548,149.751 759.661,149.738L759.66,149.738C746.239,149.738 733.984,154.813 723.263,164.792C712.58,174.756 706.195,186.996 704.278,201.195L704.278,201.195C702.39,215.124 705.064,226.481 712.223,234.987C719.381,243.501 729.957,247.835 743.654,247.856L743.713,247.856L744.135,247.854C753.012,247.786 763.39,245.557 775.026,241.251ZM867.487,162.916L869.605,154.936L850.682,154.936L857.544,129.719L852.622,131.65L852.622,131.649L819.009,144.837L816.328,154.936L796.497,180.117L809.645,180.117L800.831,212.165C800.297,214.679 799.222,219.721 799.222,223.118C799.222,236.127 809.299,246.544 826.209,246.544C831.964,246.544 836.839,245.263 840.98,244.19L863.304,220.123L859.713,220.85C858.971,221.023 858.139,221.151 857.291,221.309L856.927,221.378C856.683,221.391 856.441,221.434 856.195,221.485C855.795,221.544 855.412,221.619 855.028,221.651C854.664,221.702 854.312,221.759 853.942,221.823C853.626,221.869 853.301,221.922 852.985,221.925C852.357,222.016 851.743,222.104 851.14,222.174C850.979,222.184 850.823,222.186 850.67,222.189L850.547,222.19C850.363,222.211 850.185,222.23 850.012,222.248L849.852,222.265C849.743,222.275 849.635,222.286 849.526,222.297L849.215,222.327C849.173,222.329 849.131,222.331 849.089,222.334C848.94,222.344 848.794,222.358 848.67,222.365C848.175,222.41 847.69,222.437 847.264,222.444L847.085,222.445C840.25,222.445 835.568,219.721 835.568,213.926C835.568,211.093 836.469,207.492 837.392,204.224L844.023,180.117L862.923,180.117L867.488,162.916L867.487,162.916ZM658.557,211.811C656.707,215.232 654.293,218.702 651.521,220.981C648.123,223.796 643.827,225.743 639.829,225.743C637.348,225.743 633.573,224.958 631.122,221.378L643.186,176.169C644.873,175.595 648.193,174.665 652.199,174.665C672.595,174.665 662.737,204.017 658.557,211.811ZM764.386,184.15L764.367,184.243L741.828,184.223C746.003,177.206 750.892,173.79 756.759,173.79L756.767,173.79C759.634,173.79 761.661,174.603 763.002,176.266C764.428,178.031 764.895,180.393 764.49,183.507C764.462,183.724 764.429,183.935 764.386,184.15Z" style="fill:rgb(247,197,20);fill-rule:nonzero;"/>
        <path d="M245.336,152.564C240.306,152.564 237.6,153.671 235.078,154.735L216.551,174.367L221.746,154.735L187.567,154.735L153.724,280.914L187.926,280.914L197.648,244.925C203.214,246.169 207.897,246.544 212.225,246.544C258.29,246.544 271.608,203.159 271.608,183.908C271.608,164.094 260.821,152.564 245.336,152.564ZM572.87,191.453C566.592,188.046 563.503,186.233 563.503,182.102C563.503,176.878 568.397,174.523 574.334,174.523C585.481,174.523 593.585,181.362 596.116,183.521L602.405,159.935C592.341,154.735 581.134,152.228 569.834,152.228C559.389,152.228 549.821,154.369 542.817,159.239C535.051,164.637 530.048,173.638 530.048,183.718C530.048,196.312 538.165,201.186 546.609,206.031C555.257,210.709 557.957,212.318 557.957,216.473C557.957,221.694 553.241,224.068 548.052,224.068C539.025,224.068 529.498,218.112 521.581,213.066L519.435,220.85C518.597,221.048 517.62,221.188 516.669,221.378C516.422,221.391 516.185,221.434 515.937,221.485C515.526,221.544 515.143,221.624 514.763,221.651C514.385,221.702 514.055,221.759 513.682,221.823C513.357,221.869 513.025,221.922 512.735,221.922C512.104,222.011 511.472,222.104 510.861,222.18C510.665,222.188 510.477,222.188 510.282,222.196C509.786,222.244 509.356,222.29 508.957,222.327C508.742,222.335 508.563,222.357 508.415,222.365C507.839,222.413 507.286,222.445 506.836,222.445C499.979,222.445 495.3,219.721 495.3,213.926C495.3,211.093 496.211,207.492 497.126,204.227L503.757,180.116L522.654,180.116L529.356,154.936L510.418,154.936L517.289,129.717L478.744,144.838L476.057,154.936L456.234,180.116L469.379,180.116L460.562,212.167C460.026,214.679 458.956,219.721 458.956,223.118C458.956,236.127 469.031,246.544 485.928,246.544C491.712,246.544 496.573,245.257 500.7,244.19L518.281,225.199L514.924,237.513C525.883,243.104 540.101,246.324 550.908,246.324C574.886,246.324 591.41,232.651 591.41,215.014C591.41,201.887 582.218,196.682 572.87,191.453ZM327.006,152.228C292.642,152.228 272.659,179.032 272.659,205.51C272.659,231.973 291.736,246.324 318.921,246.324C358.727,246.324 372.918,214.679 372.918,194.137C372.918,171.124 356.168,152.228 327.006,152.228ZM167.711,215.014C167.711,201.887 158.524,196.682 149.179,191.453C142.877,188.046 139.809,186.233 139.809,182.102C139.809,176.878 144.69,174.523 150.613,174.523C161.783,174.523 169.875,181.362 172.396,183.521L178.707,159.935C168.62,154.735 157.446,152.228 146.114,152.228C135.676,152.228 126.13,154.369 119.123,159.239C111.359,164.637 106.341,173.638 106.341,183.718C106.341,196.312 114.447,201.186 122.91,206.031C131.547,210.709 134.24,212.318 134.24,216.473C134.24,221.694 129.55,224.068 124.337,224.068C115.337,224.068 105.792,218.112 97.873,213.066L95.744,220.85L94.564,225.199L91.229,237.513C102.193,243.104 116.41,246.324 127.215,246.324C151.167,246.324 167.711,232.651 167.711,215.014ZM449.042,153.305C444.363,153.305 441.132,154.201 438.252,155.087L418.639,174.876L424.039,154.936L388.932,154.936L365.179,243.836L400.085,243.836L417.024,180.682C419.727,179.583 422.961,178.514 427.654,178.514C430.336,178.514 434.487,178.845 439.324,180.828C445.272,182.978 448.34,185.678 450.855,187.855L459.49,155.454C457.329,154.545 454.282,153.305 449.042,153.305ZM318.385,223.864C314.781,223.864 311.56,222.23 309.75,220.056C307.235,217.178 306.677,213.246 306.677,209.448C306.677,200.266 311.724,174.876 327.006,174.876C331.353,174.876 338.722,177.07 338.722,189.659C338.722,197.748 333.858,223.864 318.385,223.864ZM211.496,223.118C207.722,223.118 205.033,222.23 203.745,221.694L215.281,179.032C219.415,175.611 223.383,174.876 225.738,174.876C229.499,174.876 232.572,176.697 234.347,179.381C235.792,181.548 236.341,184.794 236.341,188.046C236.341,195.42 230.764,223.118 211.496,223.118ZM922.767,116.649L894.153,145.25L882.086,133.278L873.889,141.476L894.163,161.637L930.928,124.855L922.767,116.649Z" style="fill:white;"/>
    </g>
</svg>
