<?xml version="1.0" encoding="UTF-8" standalone="no"?>
<!DOCTYPE svg PUBLIC "-//W3C//DTD SVG 1.1//EN" "http://www.w3.org/Graphics/SVG/1.1/DTD/svg11.dtd">
<svg width="100%" height="100%" viewBox="0 0 300 213" version="1.1" xmlns="http://www.w3.org/2000/svg" xmlns:xlink="http://www.w3.org/1999/xlink" xml:space="preserve" xmlns:serif="http://www.serif.com/" style="fill-rule:evenodd;clip-rule:evenodd;stroke-linejoin:round;stroke-miterlimit:2;">
    <g id="swyftx-regular-logo" serif:id="swyftx regular logo">
        <path d="M53.671,113.744L43.522,116.254C42.493,121.188 34.121,135.402 30.774,139.532L29.58,141.148C29.58,141.148 28.444,142.849 32.367,140.697C35.263,139.149 50.863,128.631 55.566,113.352C55.566,113.352 60.426,112.463 62.705,108.429C62.705,108.429 61.292,106.046 56.689,105.38C56.689,105.38 57.281,98.858 55.11,94.688C54.266,93.067 42.541,76.371 30.819,70.386C30.601,70.274 30.37,70.514 30.492,70.727C32.039,73.426 37.683,83.388 41.489,91.62C41.489,91.62 45.867,100.033 44.827,104.33C43.157,111.234 26.255,111.424 22.586,111.383C22.481,111.382 22.461,111.531 22.563,111.559L30.985,113.923C30.985,113.923 25.461,117.483 23.764,118.59C23.677,118.646 23.74,118.779 23.84,118.751L35.623,115.334C35.623,115.334 46.406,115.126 53.671,113.744" style="fill:rgb(35,31,32);fill-rule:nonzero;"/>
        <path d="M140.819,126.947L132.434,101.908L124.048,126.947L115.993,126.947L104.13,91.555L110.773,91.555L120.037,119.515L129.252,91.555L135.612,91.555L144.86,119.5L154.342,92.293L157.512,101.161L148.876,126.947L140.819,126.947Z" style="fill:rgb(35,31,32);fill-rule:nonzero;"/>
        <path d="M80.545,126.947L80.545,121.213L89.16,121.226C91.878,121.226 95.217,121.097 96.917,120.091C97.86,119.536 98.48,118.549 98.617,117.384C98.762,116.163 98.352,114.984 97.492,114.151C96.913,113.587 95.573,113.058 93.509,112.581L87.975,111.283C84.836,110.537 82.484,109.348 80.987,107.747C79.467,106.128 78.696,104.066 78.696,101.617C78.696,99.621 79.268,97.83 80.397,96.295C83.707,91.8 89.292,91.682 94.219,91.577L99.622,91.558L101.543,97.288C99.724,97.282 93.662,97.264 93.097,97.264C90.53,97.264 87.434,97.365 86.267,98.159C85.063,98.978 84.503,99.945 84.503,101.202C84.503,103.878 86.993,104.755 90.248,105.624L95.172,106.834C98.233,107.582 100.56,108.744 102.089,110.287C104.176,112.412 104.406,115.096 104.397,116.93C104.36,118.853 103.79,120.582 102.703,122.064C101.486,123.717 99.9,124.989 98.116,125.741C95.442,126.868 92.485,126.963 89.924,126.963C89.496,126.963 82.126,126.95 80.545,126.947" style="fill:rgb(35,31,32);fill-rule:nonzero;"/>
        <path d="M158.719,141.786L158.719,135.84L165.904,135.843C167.698,135.843 169.36,135.383 171.522,129.733C171.634,129.441 171.748,129.14 171.862,128.831L171.9,128.73L158.619,91.556L164.936,91.556L175.005,119.744L184.259,91.556L190.476,91.556L180.544,121.94C180.347,122.546 178.615,127.843 177.078,131.857C173.922,140.097 170.117,141.786 165.372,141.786L158.719,141.786Z" style="fill:rgb(35,31,32);fill-rule:nonzero;"/>
        <path d="M200.251,126.965L200.251,96.984L193.199,96.984L194.97,91.567L200.251,91.567L200.251,89.409C200.251,85.106 201.363,81.775 203.558,79.507C205.757,77.248 208.938,76.101 213.014,76.101C213.914,76.101 216.761,76.354 217.653,76.436L217.653,81.732C216.727,81.714 214.053,81.671 213.673,81.671C211.311,81.717 208.46,82.849 207.492,84.921C206.998,85.968 206.724,87.55 206.675,89.62L206.675,91.567L215.211,91.567L215.211,96.984L206.675,96.984L206.675,126.965L200.251,126.965Z" style="fill:rgb(35,31,32);fill-rule:nonzero;"/>
        <path d="M237.345,126.946C233.482,126.946 230.419,125.781 228.241,123.484C225.167,120.242 225.156,116.028 225.185,115.216L225.185,96.973L219.487,96.973L219.487,91.553L225.188,91.553L225.185,81.979L231.475,81.979L231.478,91.553L241.323,91.554L245.017,96.973L231.475,96.973L231.475,115.387C231.473,115.475 231.433,117.735 232.834,119.184C233.78,120.159 235.298,120.654 237.345,120.654L244.584,120.654L240.285,126.946L237.345,126.946Z" style="fill:rgb(35,31,32);fill-rule:nonzero;"/>
        <path d="M270.756,126.946L261.488,113.388L252.22,126.946L245.523,126.946L258.116,108.517L246.549,91.554L253.314,91.554L277.504,126.946L270.756,126.946Z" style="fill:rgb(35,31,32);fill-rule:nonzero;"/>
        <path d="M267.538,104.788L276.837,91.553L270.143,91.553L264.213,99.923L267.538,104.788Z" style="fill:rgb(35,31,32);fill-rule:nonzero;"/>
    </g>
</svg>
