<?xml version="1.0" encoding="UTF-8"?><svg id="uuid-8e8f208d-59c3-496d-9a75-4155fb23313c" xmlns="http://www.w3.org/2000/svg" viewBox="0 0 150 150"><path d="M88.62,69.49l-3.56,20.9c-.73,3.76-3.21,4.78-5.41,4.78h-16.47l6.94-38.28c-6.93-3.17-14.01-5.24-19.64-5.24s-9.72,1.45-12.61,4.92c-2.04,2.47-3.06,5.52-3.06,9.14,0,10.88,8.56,25.98,23.21,38.3,13.06,10.89,27.43,16.98,37.88,16.98,5.22,0,9.43-1.6,12.19-4.79,2.17-2.47,3.04-5.67,3.04-9.29,0-10.57-8.62-25.4-22.51-37.43Z" fill="#f96449"/><path d="M59.04,29c-2.61,0-4.79,1.76-5.37,4.51l-2.32,12.62h20.72l-8.89,49.04h16.47c2.2,0,4.67-1.02,5.41-4.78l7.53-44.26h14.9c2.63,0,4.79-1.74,5.37-4.5l2.33-12.63H59.04Z" fill="#0d54ff"/></svg>