<svg viewBox="0 0 100 100" xmlns="http://www.w3.org/2000/svg" fill-rule="evenodd" clip-rule="evenodd" stroke-linejoin="round" stroke-miterlimit="1.414"><ellipse cx="50" cy="50" rx="30" ry="29.793" fill="#0c6a37"/><circle cx="49.999" cy="50" r="18.001" fill="#fff"/><path d="M50.345 70.813l.067 1.886c.15-.005.295-.012.444-.02l.058-.341c.066-.397.232-.644.697-.684.221-.019.535-.043.755-.068.181 1.278.366 2.603.546 3.88.047.335-.063.606-.384.698-.075.022-.15.044-.225.064l.056.41c1.13-.1 2.266-.275 3.375-.514l-.078-.402c-.093.003-.161.004-.238.005-.334.006-.519-.221-.572-.553l-.625-3.867c.209-.038.502-.104.721-.153.456-.099.706.055.89.438.121.252.155.312.155.312l.434-.111-.494-1.824a21.527 21.527 0 0 1-5.582.844zm-8.011.564c.142.047.281.092.425.136l.172-.299c.201-.348.443-.521.892-.396.214.06.517.147.731.2-.278 1.261-.568 2.567-.847 3.827-.074.328-.27.544-.604.519l-.233-.018-.091.401c1.093.303 2.204.537 3.327.702l.081-.404c-.088-.03-.15-.053-.223-.079-.316-.111-.409-.388-.343-.719l.768-3.841c.21.038.508.078.729.11.462.067.643.298.681.721.025.279.036.347.036.347l.446.048.175-1.881a21.626 21.626 0 0 1-5.524-1.163l-.598 1.789zm22.694.763l-.821-1.835-.378.254s.039.155.067.383c.1.819-.098.908-.669 1.244a28.9 28.9 0 0 1-1.15.648l-.74-1.453c.145-.077.296-.159.439-.238.311-.169.565-.279.776-.039.049.056.098.113.148.168.124-.073.249-.147.373-.223-.337-.588-.676-1.175-1.014-1.762-.121.074-.243.146-.366.218l.069.213c.101.305-.1.462-.406.63-.142.078-.284.154-.426.23l-.716-1.404c.405-.212.76-.417 1.161-.661.404-.241.692-.213.999.101l.239.242c.126-.08.253-.162.378-.245l-1.034-1.548a20.705 20.705 0 0 1-4.435 2.356l.151.388c.086-.02.151-.033.225-.048.317-.066.554.103.702.409.537 1.115 1.05 2.193 1.588 3.309.146.306.137.64-.147.824a3.634 3.634 0 0 1-.241.138l.171.383a27.106 27.106 0 0 0 5.057-2.682zm-26.544-4.762l-.224.349c.059.056.112.11.165.163.231.229.222.523.053.816l-1.845 3.192c-.168.291-.438.457-.758.315-.073-.033-.148-.071-.222-.106l-.213.358c.978.632 2.118 1.26 3.121 1.728l.191-.369c-.068-.044-.136-.088-.203-.134-.29-.195-.295-.51-.137-.807l1.727-3.256c.159-.299.403-.463.72-.388l.222.053.179-.375a19.92 19.92 0 0 1-2.776-1.539zm32.32-.505c.512-.611.935-1.185 1.365-1.809l-.346-.235c-.056.055-.09.091-.146.145a.47.47 0 0 1-.284.147l-2.396-.206c.454-.696.238-1.552-.384-2.031a1.586 1.586 0 0 0-1.412-.271c-.486.13-.88.41-1.411 1.015a20.451 20.451 0 0 1-2.264 2.225l.269.325c.064-.038.117-.065.182-.101.3-.164.619-.083.861.154l2.608 2.567c.24.236.306.531.108.798a3.2 3.2 0 0 1-.186.215l.283.308c.861-.764 1.692-1.562 2.42-2.388l-.306-.275c-.055.042-.109.085-.168.124-.264.178-.513.096-.757-.137l-.969-.922.066-.072 2.867.424zm-34.507-.795c-.109-.412-.413-.738-.895-1.206a21.429 21.429 0 0 1-2.204-2.461l-.335.254c.044.092.07.143.102.212.135.297.066.568-.182.796-.902.833-1.828 1.68-2.731 2.514-.247.228-.529.289-.781.071a26.102 26.102 0 0 1-.171-.149l-.311.282a26.21 26.21 0 0 0 2.42 2.658c.754.722 1.065.901 1.537.984.539.096 1.083-.064 1.451-.451.504-.531.522-1.39-.05-1.997l.008-.01c.619.376 1.302.347 1.803-.166.349-.361.457-.887.339-1.331zm-3.569 2.154c-.265.26-.553.316-.805.264-.259-.055-.48-.224-.68-.434a21.53 21.53 0 0 0-.149-.157l1.396-1.341c.057.06.115.122.175.183.222.231.353.442.387.673.038.263-.043.536-.324.812zm1.724-2.016c-.464.457-.943.388-1.373-.062l-.078-.082 1.325-1.273c.03.03.059.062.088.093.482.501.428.939.038 1.324zm33.043-.213c-.031.028-.057.054-.087.078l-1.548-1.47.093-.103c.508-.556.986-.5 1.445-.1.542.473.641 1.1.097 1.595zm-.36-28.725c-.1-.087-.189-.177-.189-.176l-.35.254c.442.591.867 1.173 1.249 1.797l.358-.216s-.028-.066-.075-.2c-.052-.15-.042-.271.024-.374.08-.121.236-.206.453-.245l.472-.086c.331.521.637 1.042.923 1.586-.174.183-.332.347-.351.366-.159.168-.314.245-.449.24-.116-.003-.212-.065-.306-.171a1.977 1.977 0 0 1-.144-.171l-.358.212c.521.949.92 1.862 1.308 2.882l.374-.169s-.028-.119-.044-.239c-.021-.146.015-.298.18-.475.229-.218 3.795-4.09 3.776-4.091a21.508 21.508 0 0 0-.896-1.614c-1.819.298-3.63.617-5.473.963-.222.047-.351.041-.482-.073zm-35.254 2.334a217.59 217.59 0 0 1-3.519-4.013c-.144-.159-.194-.268-.135-.426.046-.12.082-.192.082-.192l-.337-.229c-.426.627-.857 1.245-1.236 1.897l.366.197s.049-.063.151-.173c.111-.12.23-.174.359-.171.151.005.306.092.446.251.642.73 1.955 2.203 2.162 2.425a270.38 270.38 0 0 0-3.228-.565c-.228-.039-.374-.125-.447-.242-.061-.099-.066-.219-.028-.357.048-.184.064-.215.064-.216a32.478 32.478 0 0 1-.366-.195 28.31 28.31 0 0 0-1.35 2.946l.39.147c0 .001.036-.073.106-.168.085-.115.193-.161.422-.133.277.015 5.279.72 5.286.737.262-.531.518-1.006.812-1.52zm40.112-2.093s-.772.824-1.438 1.519c-.212-.394-.433-.77-.67-1.151 1.011-.183 2.108-.368 2.108-.368zM29.454 32.81l.041.036c.088.082.176.164.265.244l.173-.153c.251-.219.534-.153.781.078.883.824 1.785 1.651 2.658 2.467l.054.05c.244.229.334.521.183.809-.036.068-.077.142-.111.21l.005.004-.002.003.316.26c.335-.409.687-.808 1.05-1.191.368-.384.753-.757 1.149-1.114l-.276-.303-.003.002-.004-.005c-.067.037-.138.081-.205.12-.28.165-.577.09-.817-.144l-.072-.069c-.85-.828-1.713-1.683-2.572-2.519-.242-.235-.321-.515-.115-.776l.138-.173c-.086-.087-.169-.178-.254-.264l-.034-.037-.296.28a26.052 26.052 0 0 0-2.052 2.185zm34.215.913h-.001l-.268.315.003.003-.004.006c.796.655 1.572 1.41 2.284 2.211l.001-.001.305-.272v-.002l.013-.011c-.037-.066-.082-.136-.12-.202-.163-.282-.094-.573.142-.812l.445-.45c.717-.721 1.449-1.448 2.166-2.174.239-.24.519-.317.778-.108.06.048.113.09.172.139l.003.002.084-.084c.072-.067.144-.134.213-.203l-.005-.006h.001c-.127-.141-.257-.279-.387-.417a27.51 27.51 0 0 0-2.051-1.947l-.083.093-.2.214.152.175c.216.252.149.534-.084.78-.561.589-1.12 1.186-1.678 1.778-.288.305-.576.608-.863.909a.767.767 0 0 1-.444.248.622.622 0 0 1-.363-.075c-.067-.037-.126-.067-.207-.114l-.004.005zm-3.991-2.639l-.151-.124c-.219-.176-.192-.456-.044-.76l.567-1.169.074.054.26 2.853a20.75 20.75 0 0 1 1.831 1.176l.245-.341a3.599 3.599 0 0 1-.151-.147.763.763 0 0 1-.191-.466l-.27-2.492c.766.237 1.467.002 1.841-.667a1.628 1.628 0 0 0 .056-1.521c-.226-.492-.687-.849-1.443-1.24a27.393 27.393 0 0 0-3.2-1.389l-.157.388c.066.037.125.07.191.109.286.167.312.452.169.758-.518 1.119-1.04 2.26-1.561 3.379-.143.307-.377.491-.692.444l-.235-.031-.141.381c.963.328 1.911.718 2.817 1.176l.185-.371zm-19.885-.012a1.607 1.607 0 0 1-1.368.061c-.455-.182-.841-.559-1.23-1.211-.736-1.238-.624-2.359.219-2.842.708-.406 1.514-.262 2.121.562l.386-.189-1.002-2.043-.374.168c.059.237.063.289-.049.401-.094.092-.327.131-.525.169a3.75 3.75 0 0 0-1.269.453c-1.689.984-2.221 2.858-1.193 4.469.927 1.454 2.564 1.934 4.226.965 1.053-.614 1.557-1.467 1.625-2.58l-.56-.12c-.136.877-.393 1.407-1.007 1.737zm2.923-5.86c.218-.063.376-.104.595-.162.289 1.263.595 2.559.88 3.805.075.326-.013.617-.301.761l-.202.102.002.008.116.389c1.02-.316 2.054-.54 3.088-.688l-.068-.411a16.76 16.76 0 0 0-.229-.005c-.321-.008-.522-.234-.593-.561-.273-1.249-.545-2.553-.821-3.818.223-.042.376-.071.603-.107.472-.076.761.097.91.511.098.266.121.344.121.344l.432-.051c-.084-.626-.154-1.262-.242-1.888a26.275 26.275 0 0 0-5.856 1.309c.192.606.396 1.206.586 1.812.142-.048.269-.092.41-.137 0 0-.011-.074-.038-.358-.04-.438.149-.723.607-.855zm13.321 1.563c.206-1.823-.839-3.204-2.914-3.438-2.072-.235-3.401.876-3.607 2.7-.207 1.821.84 3.202 2.913 3.437 2.074.235 3.402-.877 3.608-2.699zm-4.503-.51c.175-1.55.705-2.333 1.512-2.242.807.092 1.147.974.972 2.523-.174 1.548-.704 2.332-1.512 2.242-.807-.092-1.146-.974-.972-2.523zm9.733.262l.131.062c.708.343.816.892.536 1.431-.348.675-.905.765-1.506.477-.036-.018-.055-.032-.092-.05.296-.611.631-1.311.931-1.92z" fill="#fff" fill-rule="nonzero"/><path d="M64.066 59.304C61.05 63.88 55.877 66.9 49.999 66.9s-11.051-3.02-14.067-7.596h28.134zM49.999 33.099c-5.878 0-11.051 3.019-14.067 7.594h28.134c-3.016-4.575-8.189-7.594-14.067-7.594z" fill="#e22926" fill-rule="nonzero"/><path d="M78.117 53.945a89.708 89.708 0 0 0-4.591-.182 58.291 58.291 0 0 0-4.601.149 57.9 57.9 0 0 0 4.591.184 88.038 88.038 0 0 0 4.601-.151zm-47.169 0a89.618 89.618 0 0 0-4.591-.182 58.282 58.282 0 0 0-4.6.149c1.522.119 3.051.186 4.59.184a88.002 88.002 0 0 0 4.601-.151zm44.019-3.94h-.668l-.015.603a.425.425 0 0 1 .329-.154c.142 0 .244.052.309.157.064.106.096.276.096.51v.537c0 .246-.047.425-.138.538-.093.113-.237.169-.435.169-.191 0-.333-.059-.428-.175-.094-.118-.142-.293-.142-.526l.001-.067.003-.041h.399v.047l-.001.072c0 .124.013.213.041.267a.14.14 0 0 0 .134.081.14.14 0 0 0 .126-.067.372.372 0 0 0 .042-.197v-.6a.621.621 0 0 0-.045-.276c-.03-.057-.078-.084-.145-.084a.149.149 0 0 0-.122.055.28.28 0 0 0-.052.158h-.336l.047-1.358h1v.351zm-2.462.878a.302.302 0 0 1-.171-.18 1.152 1.152 0 0 1-.053-.404c0-.254.043-.432.128-.537.085-.105.227-.157.427-.157.203 0 .346.054.429.162.083.108.125.301.125.579 0 .158-.018.28-.055.365a.296.296 0 0 1-.171.172.308.308 0 0 1 .191.187c.035.093.053.263.053.511 0 .28-.044.481-.133.602-.09.122-.236.182-.439.182-.208 0-.356-.062-.444-.185-.088-.123-.131-.338-.131-.646 0-.22.018-.375.055-.466a.307.307 0 0 1 .189-.185zm-49.706.727l.39-.055v.023c0 .144.019.252.058.324a.187.187 0 0 0 .175.109.185.185 0 0 0 .159-.077.358.358 0 0 0 .056-.218.516.516 0 0 0-.038-.191.941.941 0 0 0-.118-.201 8.686 8.686 0 0 0-.262-.312 2.253 2.253 0 0 1-.248-.324 1.197 1.197 0 0 1-.107-.242.74.74 0 0 1-.036-.222c0-.194.053-.349.157-.463a.546.546 0 0 1 .422-.171c.181 0 .324.057.428.174.105.115.161.279.168.489l-.369.045a.612.612 0 0 0-.064-.277.18.18 0 0 0-.163-.087.16.16 0 0 0-.132.069.29.29 0 0 0-.052.177c0 .063.017.133.051.209a.988.988 0 0 0 .144.229l.107.125c.168.199.281.342.34.429a.949.949 0 0 1 .166.544.64.64 0 0 1-.17.46.582.582 0 0 1-.439.178.543.543 0 0 1-.439-.192c-.108-.129-.17-.312-.184-.552zm5.505-1.069h-.416v-.21c0-.14-.02-.242-.06-.306-.04-.063-.103-.095-.189-.095-.086 0-.149.032-.188.095-.04.064-.06.166-.06.306v1.283c0 .14.02.242.06.305.039.063.102.096.188.096.086 0 .149-.033.189-.096.04-.063.06-.165.06-.305v-.253h.416v.168c0 .271-.056.476-.169.615-.113.14-.278.21-.496.21-.235 0-.405-.075-.508-.223-.104-.149-.157-.39-.157-.726v-.864c0-.336.053-.579.157-.726.103-.148.273-.222.508-.222.218 0 .383.069.496.208.113.139.169.341.169.606v.134zm43.303 1.772h-.386V50.17h-.359v-.235c.087-.033.172-.075.253-.128.082-.052.163-.116.244-.192h.248v2.698zm4.856-.89h.252v.325h-.252v.565h-.372v-.565h-.694v-.361l.657-1.733h.409v1.769zm-51.707.879h-.409v-2.659h.409v2.659zm5.002-2.301h-.685v.735h.536v.363h-.536v.846h.748v.357h-1.156v-2.659h1.093v.358zm-4.154 2.301h-.367v-2.659h.395l.62 2.051a16.708 16.708 0 0 1-.101-1.855v-.196h.368v2.659h-.344v-.001h-.04l-.621-2.05c.024.294.044.591.058.896.017.376.028.761.032 1.155zm47.414-.746c0-.183-.013-.307-.04-.373-.027-.065-.075-.098-.142-.098a.144.144 0 0 0-.142.093c-.026.063-.039.189-.039.378 0 .19.013.316.039.378.026.062.074.092.142.092.067 0 .115-.033.142-.098.027-.065.04-.189.04-.372zm3.073-.133v-.698c0-.047.006-.121.018-.222.012-.102.029-.226.051-.374l-.47 1.294h.401zm-3.255-.723c.058 0 .1-.029.125-.086A.775.775 0 0 0 73 50.32a.75.75 0 0 0-.04-.29c-.026-.059-.068-.088-.124-.088a.132.132 0 0 0-.129.085.807.807 0 0 0-.037.293c0 .14.012.237.037.294.026.057.069.086.129.086zm-41.888-2.509a89.618 89.618 0 0 0-4.591-.182 58.766 58.766 0 0 0-4.6.148c1.522.12 3.051.186 4.59.185a89.11 89.11 0 0 0 4.601-.151zm47.169 0a89.708 89.708 0 0 0-4.591-.182 58.775 58.775 0 0 0-4.601.148 57.9 57.9 0 0 0 4.591.185 89.147 89.147 0 0 0 4.601-.151z" fill="#0c964c" fill-rule="nonzero"/><path d="M43.545 42.636v1.033c-.15.026-.364.063-.534.107l-.017.004c-.707.188-1.057.713-.759 1.707v.002l.007.024 2.027 6.612s2.073-5.597 2.427-6.563c.354-.963.019-1.591-.745-1.786-.17-.044-.384-.081-.534-.107v-1.033h12.186c1.856 0 2.989.291 3.85.842.966.62 1.418 1.57 1.418 2.808 0 1.813-.993 2.888-2.724 3.37v.018c2.119.369 3.588 1.432 3.588 3.687 0 1.213-.474 2.206-1.38 2.893-1.087.824-2.425 1.146-4.516 1.146h-8.525v-1.032c.211-.037.34-.058.544-.107.725-.175 1.124-.712 1.124-1.636v-9.454c0-.225-.094-.404-.337-.443-.241-.039-.407.065-.507.337-.823 2.251-4.435 12.335-4.435 12.335h-4.587l-4.307-12.775c-.194-.574-.369-.75-.738-.845-.143-.037-.382-.078-.548-.111v-1.033h8.022zm12.172 12.973v-4.838c1.247-.032 1.947.077 2.531.545.506.404.733 1.125.733 1.97 0 .738-.222 1.3-.639 1.683-.557.511-1.309.668-2.625.64zm0-11.201c1.077-.019 1.719.182 2.157.574.452.402.665.996.665 1.713 0 .882-.304 1.489-.824 1.856-.454.321-1.072.458-1.998.448v-4.591z" fill="#231f20"/></svg>