<svg viewBox="0 0 100 100" xmlns="http://www.w3.org/2000/svg" fill-rule="evenodd" clip-rule="evenodd" stroke-linejoin="round" stroke-miterlimit="1.414"><path d="M20 73.571V37.142c0-5.908 4.806-10.714 10.714-10.714h38.571C75.193 26.428 80 31.234 80 37.142v25.715c0 5.907-4.807 10.714-10.715 10.714H20z" fill="#030404" fill-rule="nonzero"/><path d="M69.819 38.214a1.606 1.606 0 1 1-1.605-1.607c.888 0 1.605.719 1.605 1.607zm-28.19 5.357l-8.571 19.286h-2.344l3.75-8.436-4.821-10.85h2.344l3.649 8.209 3.65-8.209h2.343zm23.907 0v7.5a5.354 5.354 0 0 1-5.357 5.358 5.33 5.33 0 0 1-3.215-1.072 5.348 5.348 0 0 1-2.143-4.286v-7.5h2.143v7.5a3.216 3.216 0 0 0 3.215 3.215 3.216 3.216 0 0 0 3.214-3.215v-7.5h2.143zm3.749 12.858h-2.142V43.571h2.142v12.858zM51.471 50a4.287 4.287 0 0 1-4.286 4.286 4.286 4.286 0 0 1 0-8.57A4.284 4.284 0 0 1 51.471 50zm-4.286-6.429a6.43 6.43 0 1 0 .003 12.86 6.43 6.43 0 0 0-.003-12.86zm28.529-6.429a6.428 6.428 0 0 0-6.429-6.428H30.714a6.429 6.429 0 0 0-6.429 6.428v32.143h45a6.428 6.428 0 0 0 6.429-6.428V37.142zm2.143 25.715a8.571 8.571 0 0 1-8.572 8.571H22.143V37.142a8.57 8.57 0 0 1 8.571-8.571h38.571a8.571 8.571 0 0 1 8.572 8.571v25.715z" fill="#fff" fill-rule="nonzero"/></svg>