<?xml version="1.0" encoding="UTF-8" standalone="no"?>
<!DOCTYPE svg PUBLIC "-//W3C//DTD SVG 1.1//EN" "http://www.w3.org/Graphics/SVG/1.1/DTD/svg11.dtd">
<svg width="100%" height="100%" viewBox="0 0 2188 1442" version="1.1" xmlns="http://www.w3.org/2000/svg" xmlns:xlink="http://www.w3.org/1999/xlink" xml:space="preserve" xmlns:serif="http://www.serif.com/" style="fill-rule:evenodd;clip-rule:evenodd;stroke-linejoin:round;stroke-miterlimit:2;">
    <g>
        <rect x="0" y="2.296" width="2185.17" height="1439.37" style="fill:rgb(237,28,36);fill-rule:nonzero;"/>
        <path d="M441.042,281.871C441.042,281.871 406.821,280.667 394.112,280.179C381.404,279.688 361.854,277.733 360.383,297.283C358.738,319.217 372.583,318.029 382.383,325.375C388.25,329.771 392.896,336.121 392.896,344.438C392.896,351.871 392.562,404.067 393.537,428.021C394.512,451.967 395.087,503.296 393.625,534.083C392.158,564.875 392.158,569.767 378.471,576.117C364.192,582.746 362.342,589.146 363.321,604.779C364.021,616.004 371.629,623.667 400.467,621.717C400.467,621.717 423.829,619.537 444.363,619.537C464.892,619.537 485.517,622.292 500.183,622.292C514.846,622.292 526.088,618.646 526.088,600.071C526.088,581.496 514.85,578.075 509.962,574.654C505.071,571.229 496.762,570.742 496.762,553.638C496.762,536.529 495.783,488.629 495.783,488.629C495.783,488.629 496.271,473.963 505.562,472.983C514.846,472.013 518.267,472.238 531.954,472.238C545.638,472.238 557.858,472.496 557.858,472.496C557.858,472.496 567.146,473.475 567.146,486.671C567.146,499.867 568.354,534.083 568.354,549.725C568.35,565.971 569.596,568.783 560.304,574.158C551.313,579.362 542.217,582.958 542.217,599.096C542.217,615.221 549.062,622.067 565.192,622.067C581.321,622.067 590.608,619.537 624.825,619.537C659.038,619.537 676.638,624.733 690.321,619.363C704.004,613.983 701.075,599.096 701.075,591.758C701.075,584.429 697.708,577.908 682.5,573.188C668.329,568.783 667.067,549.233 667.067,531.15C667.067,531.15 666.371,448.058 666.371,413.842C666.371,379.629 666.858,359.238 668.817,343.596C670.767,327.954 676.217,324.975 683.483,321.604C694.142,316.658 693.746,307.283 693.746,298.487C693.746,289.687 689.838,279.912 670.283,279.912C650.729,279.912 638.996,281.379 613.583,281.379C588.167,281.379 570.079,279.912 559.325,279.912C548.571,279.912 539.288,284.312 539.288,296.533C539.288,308.754 538.6,313.108 552.483,320.979C567.146,329.283 564.704,345.408 564.704,367.404L564.704,393.317C564.704,399.179 565.192,412.858 549.062,412.858L507.025,412.858C507.025,412.858 497.738,412.379 495.783,405.042C493.829,397.713 493.829,385 493.829,366.917C493.829,341.996 494.804,329.771 503.604,323.908C512.404,318.038 521.2,319.012 521.2,300.442C521.2,281.867 507.517,279.912 501.65,279.912C495.783,279.912 441.042,281.871 441.042,281.871Z" style="fill:white;fill-rule:nonzero;"/>
        <path d="M803.029,558.038C800.1,558.038 791.3,559.012 790.321,540.442C789.346,521.862 797.163,514.533 807.917,509.646C818.671,504.758 818.671,513.067 818.671,530.662C818.671,548.258 810.362,558.038 803.029,558.038ZM923.275,554.125C913.987,553.146 902.742,549.725 909.587,466.142C916.429,382.558 897.858,373.275 885.633,364.967C874.146,357.146 843.05,347.354 811.279,350.304C784.946,352.742 776.146,356.167 759.529,362.033C759.529,362.033 731.179,374.742 718.471,385.983C705.762,397.225 707.717,415.8 709.183,428.996C710.65,442.196 714.558,456.858 732.154,456.367C749.75,455.875 758.55,442.679 770.283,425.575C782.012,408.467 789.342,399.671 800.588,399.671C816.225,399.671 820.142,415.8 820.142,427.525C820.142,439.258 823.071,456.858 810.362,461.258C797.654,465.654 755.129,472.013 726.779,493.025C698.429,514.042 698.429,551.192 698.429,559.988C698.429,568.783 696.471,595.675 721.404,615.221C746.329,634.767 784.946,620.596 796.679,614.242C808.408,607.892 819.646,599.096 819.646,599.096C819.646,599.096 834.804,624.508 858.263,624.508C881.725,624.508 935.983,603.004 939.404,577.588C942.825,552.171 932.563,555.1 923.275,554.125Z" style="fill:white;fill-rule:nonzero;"/>
        <path d="M1041.77,354.212C1030.82,348.733 1018.31,353.233 997.292,359.587C976.271,365.946 967.475,368.387 950.858,375.721C934.237,383.054 925.929,391.363 925.929,404.558C925.929,417.758 937.658,421.658 947.925,424.6C958.187,427.529 966.008,433.392 966.008,453.433L966.008,556.079C966.008,556.079 966.987,572.208 948.9,580.517C930.817,588.833 933.75,600.558 933.75,604.475C933.75,608.383 937.658,622.554 956.233,622.554C974.808,622.554 986.242,620.829 1012.64,620.829C1039.03,620.829 1060.29,623.217 1080.33,623.217C1100.37,623.217 1103.3,610.508 1103.3,598.779C1103.3,587.046 1096.95,580.2 1079.84,575.804C1062.73,571.404 1058.88,560.967 1058.88,547.775L1058.88,449.525C1058.88,449.525 1062.79,438.771 1072.08,449.037C1081.36,459.3 1089.18,476.896 1098.47,481.783C1107.76,486.671 1126.33,486.183 1136.11,469.075C1145.89,451.967 1153.22,426.55 1136.6,390.379C1119.98,354.212 1101.4,351.763 1086.73,361.054C1072.08,370.342 1061.32,388.429 1057.41,389.404C1053.5,390.379 1049.1,383.542 1049.1,375.233C1049.1,366.925 1049.59,358.121 1041.77,354.212Z" style="fill:white;fill-rule:nonzero;"/>
        <path d="M1215.53,358.046C1189.04,358.046 1179.58,357.217 1166.8,357.217C1154.03,357.217 1138.9,362.35 1138.9,379.35C1138.9,393.067 1143.59,398.354 1155.38,406.337C1165.86,413.438 1170.12,429.037 1174.38,438.971C1178.63,448.904 1245.79,608.296 1245.79,608.296C1245.79,608.296 1255.73,633.358 1275.6,633.358C1295.45,633.358 1302.55,625.325 1309.64,610.658C1316.73,596 1362.15,478.225 1374.45,452.213C1386.74,426.204 1392.42,409.646 1401.4,403.971C1410.39,398.296 1417.01,392.621 1417.01,377.492C1417.01,362.35 1404.25,357.033 1395.25,357.033C1386.27,357.033 1383.43,358.117 1364.99,358.117C1346.53,358.117 1339.91,356.817 1330.46,357.292C1321,357.763 1306.81,361.879 1306.81,375.117C1306.81,388.367 1307.23,392.587 1313.43,398.438C1321.94,406.483 1321.94,415.325 1319.57,424.783C1317.22,434.242 1306.81,464.042 1306.81,464.042C1306.81,464.042 1304.46,472.554 1297.82,472.554C1292.62,472.554 1289.49,463.679 1286.47,455.529C1281.74,442.758 1276.53,427.621 1274.17,419.104C1271.8,410.592 1272.28,403.5 1278.9,399.238C1285.53,394.983 1289.31,392.15 1288.83,377.492C1288.28,359.996 1274.64,356.675 1262.35,356.675C1250.05,356.675 1237.27,358.046 1215.53,358.046Z" style="fill:white;fill-rule:nonzero;"/>
        <path d="M1470.55,435.663C1471.5,429.037 1473.87,415.8 1484.74,413.438C1495.62,411.062 1503.19,420.996 1509.33,432.346C1515.49,443.7 1507.45,445.996 1507.45,445.996L1479.07,453.371C1469.61,455.267 1469.61,442.283 1470.55,435.663ZM1479.07,511.337C1483.32,508.5 1491.83,506.608 1491.83,506.608L1582.17,482.012C1582.17,482.012 1597,477.471 1597.78,463.779C1598.25,455.529 1597.32,443.225 1590.7,427.146C1584.07,411.062 1567.98,385.05 1544.82,369.921C1521.63,354.783 1480.96,350.529 1449.75,368.025C1418.53,385.525 1398.66,414.375 1386.36,464.513C1374.06,514.646 1388.73,580.387 1410.96,603.092C1433.19,625.792 1453.05,630.521 1487.11,632.421C1521.16,634.308 1551.43,621.533 1572.72,602.621C1594,583.7 1598.73,564.779 1594,547.75C1589.27,530.729 1576.97,538.762 1567.98,545.388C1559,552.013 1531.57,569.512 1502.71,553.904C1473.87,538.296 1474.8,514.175 1479.07,511.337Z" style="fill:white;fill-rule:nonzero;"/>
        <path d="M1649.55,360.938C1622.3,360.938 1608.43,359.642 1595.22,359.642C1582,359.642 1572.09,369.554 1572.09,384.421C1572.09,399.287 1583.51,402.071 1589.44,405.896C1599.42,412.337 1606.78,425.713 1612.57,440.587C1618.35,455.454 1660.47,576.867 1660.47,576.867C1660.47,576.867 1670.39,602.475 1664.6,621.471C1658.82,640.471 1642.29,647.075 1629.9,642.121C1617.51,637.163 1596.94,621.012 1577.05,654.508C1561.35,680.938 1580.35,710.683 1619.17,710.683C1643.13,710.683 1674.71,696.217 1691.85,671.029C1709.82,644.642 1732.33,600 1748.02,559.521C1763.71,519.05 1786.02,471.971 1796.76,448.021C1807.49,424.071 1813.27,410.029 1824.01,405.075C1834.75,400.117 1838.88,395.992 1838.88,381.946C1838.88,367.904 1828.97,359.229 1816.17,359.229C1803.36,359.229 1800.88,360.938 1785.19,360.938C1769.5,360.938 1761.24,359.646 1749.67,359.646C1738.12,359.646 1732.85,367.467 1733.15,381.946C1733.33,390.112 1735.63,393.279 1740.59,396.813C1744.9,399.879 1752.98,403.417 1748.85,418.292C1744.72,433.154 1733.98,457.108 1733.98,457.108C1733.98,457.108 1729.85,465.362 1724.9,465.362C1719.94,465.362 1711.68,449.675 1709.2,444.717C1706.72,439.762 1699.76,418.996 1703.42,408.371C1704.65,404.792 1705.85,401.621 1710.03,399.287C1716.48,395.696 1719.09,390.204 1719.09,377.813C1719.09,364.6 1710.85,358.821 1697.64,358.821C1684.42,358.821 1666.9,360.938 1649.55,360.938Z" style="fill:white;fill-rule:nonzero;"/>
        <path d="M1513.93,1027.67C1511,1027.67 1502.2,1028.65 1501.23,1010.09C1500.25,991.517 1508.07,984.183 1518.82,979.3C1529.57,974.413 1529.57,982.725 1529.57,1000.31C1529.57,1017.9 1521.27,1027.67 1513.93,1027.67ZM1634.12,1023.77C1624.85,1022.79 1613.61,1019.36 1620.45,935.813C1627.29,852.267 1608.72,842.979 1596.51,834.679C1585.02,826.867 1553.94,817.071 1522.17,820.017C1495.85,822.458 1487.06,825.887 1470.45,831.746C1470.45,831.746 1442.11,844.446 1429.41,855.688C1416.7,866.929 1418.66,885.487 1420.12,898.687C1421.59,911.883 1425.5,926.529 1443.09,926.046C1460.67,925.554 1469.47,912.367 1481.2,895.263C1492.92,878.163 1500.25,869.367 1511.49,869.367C1527.13,869.367 1531.03,885.487 1531.03,897.221C1531.03,908.946 1533.96,926.538 1521.27,930.933C1508.56,935.333 1466.05,941.683 1437.71,962.692C1409.37,983.7 1409.37,1020.84 1409.37,1029.62C1409.37,1038.42 1407.42,1065.29 1432.34,1084.84C1457.26,1104.38 1495.85,1090.21 1507.58,1083.86C1519.31,1077.51 1530.54,1068.71 1530.54,1068.71C1530.54,1068.71 1545.69,1094.12 1569.15,1094.12C1592.6,1094.12 1646.83,1072.62 1650.25,1047.21C1653.67,1021.81 1643.41,1024.74 1634.12,1023.77Z" style="fill:white;fill-rule:nonzero;"/>
        <path d="M887.4,823.929C876.45,818.45 863.946,822.946 842.937,829.3C821.925,835.654 813.133,838.104 796.521,845.429C779.908,852.754 771.6,861.067 771.6,874.254C771.6,887.442 783.325,891.35 793.587,894.287C803.846,897.221 811.662,903.079 811.662,923.117L811.662,1025.72C811.662,1025.72 812.646,1041.84 794.567,1050.15C776.487,1058.45 779.417,1070.18 779.417,1074.09C779.417,1078 783.329,1092.16 801.896,1092.16C820.458,1092.16 828.275,1090.85 854.663,1090.85C881.05,1090.85 905.913,1092.83 925.946,1092.83C945.979,1092.83 948.912,1080.12 948.912,1068.4C948.912,1056.67 942.554,1049.83 925.458,1045.43C908.35,1041.04 904.5,1030.61 904.5,1017.41L904.5,919.2C904.5,919.2 908.408,908.45 917.692,918.717C926.979,928.975 934.796,946.563 944.079,951.45C953.358,956.342 971.929,955.846 981.7,938.746C991.475,921.65 998.804,896.246 982.192,860.083C965.579,823.929 947.008,821.479 932.35,830.767C917.692,840.05 906.946,858.133 903.033,859.112C899.125,860.083 894.729,853.246 894.729,844.938C894.729,836.637 895.217,827.837 887.4,823.929Z" style="fill:white;fill-rule:nonzero;"/>
        <path d="M338.292,751.679C312.812,751.679 309.463,749.8 301.412,749.8C293.362,749.8 273.917,755.167 273.917,772.596C273.917,790.029 281.967,792.713 291.35,797.408C300.742,802.104 305.588,807.767 309.463,832.279C313.479,857.758 310.662,1015.35 310.662,1022.05C310.662,1028.75 309.463,1037.48 300.071,1044.18C290.683,1050.89 275.929,1050.22 275.929,1072.35C275.929,1094.48 291.354,1091.12 298.058,1091.12C304.762,1091.12 325.55,1090.19 344.996,1090.19C367.8,1090.19 382.55,1091.12 400.654,1091.12C418.767,1091.12 422.117,1083.07 422.117,1069.66C422.117,1056.26 412.729,1051.55 396.638,1046.86C380.542,1042.17 369.808,1034.79 369.808,1005.29L369.808,938.904C369.808,938.904 367.129,925.487 379.871,938.229C392.608,950.975 464.004,1058 464.004,1058C464.004,1058 478.563,1090.78 516.033,1090.78C544.625,1090.78 544.829,1075.7 544.829,1047.54L544.829,821.55C544.829,821.55 543.492,800.092 558.246,795.396C575.692,789.85 578.367,790.7 578.367,769.25C578.367,751.808 565.621,750.2 554.221,750.2C542.825,750.2 531.425,751.679 509.967,751.679C488.504,751.679 473.083,749.525 457.658,749.525C442.233,749.525 438.883,760.529 438.883,771.933C438.883,783.329 444.246,793.387 459.671,796.071C479.112,799.45 482.571,806.254 484.483,820.875C486.492,836.304 486.496,867.142 487.162,877.208C487.838,887.267 489.338,900.008 483.812,900.008C473.079,900.008 449.858,860.871 427.483,822.887C398.646,773.937 392.612,750.462 377.858,750.462C361.046,750.462 354.383,751.679 338.292,751.679Z" style="fill:white;fill-rule:nonzero;"/>
        <path d="M672.721,1042.12C656.5,1042.12 650.517,979.792 649.663,962.708C648.812,945.629 647.958,878.179 663.329,878.179C679.554,878.179 682.967,905.504 686.383,948.192C689.796,990.892 688.946,1042.12 672.721,1042.12ZM663.329,824.379C606.967,824.379 552.321,879.037 549.758,955.879C547.196,1032.73 587.329,1100.2 665.033,1100.2C742.742,1100.2 788.85,1043.83 788.85,961.004C788.85,878.179 738.471,824.379 663.329,824.379Z" style="fill:white;fill-rule:nonzero;"/>
        <path d="M1058.61,838.142C1026.16,850.1 1021.04,851.808 1012.51,855.221C1003.97,858.633 993.712,862.058 993.712,878.275C993.712,896.213 1027.9,892.733 1028.72,911.575C1029.58,931.217 1031.29,975.621 1031.29,1003.8C1031.29,1031.98 1032.36,1044.63 1021.89,1050.76C1013.49,1055.68 1002.25,1058.45 1002.25,1074.67C1002.25,1090.89 1014.21,1094.31 1025.31,1094.31C1036.41,1094.31 1050.93,1092 1070.57,1092C1090.2,1092 1098.34,1092.98 1111.56,1092.61C1131.19,1092.05 1140.59,1090.04 1140.59,1076.38C1140.59,1062.72 1135.47,1060.15 1130.34,1055.88C1125.22,1051.61 1121.8,1040.52 1121.8,1016.6L1121.8,912.429C1121.8,912.429 1120.09,896.663 1138.88,898.767C1158.01,900.908 1167.81,910.233 1167.81,951.708C1167.81,981.7 1169.62,998.671 1168.77,1019.17C1167.91,1039.66 1171.33,1044.78 1164.5,1049.9C1157.66,1055.03 1151.68,1065.28 1151.68,1073.82C1151.68,1082.36 1155.1,1092.61 1177.31,1092.61C1199.51,1092.61 1192.67,1092 1211.46,1092C1230.25,1092 1231.95,1092.61 1248.18,1092.61C1264.4,1092.61 1266.97,1083.22 1266.97,1072.12C1266.97,1061.01 1253.3,1058.45 1253.3,1047.35C1253.3,1036.25 1251.6,934.642 1251.6,923.529C1251.6,912.429 1251.6,899.625 1266.97,899.625C1282.34,899.625 1298.47,903.708 1298.47,949.154C1298.47,986.875 1300.16,999.529 1300.16,1018.31C1300.16,1037.1 1299.41,1039.66 1296,1046.5C1292.59,1053.33 1280.62,1055.03 1280.62,1073.82C1280.62,1092.61 1292.59,1093.46 1305.39,1093.46C1318.2,1093.46 1327.24,1091.55 1349.44,1091.55C1371.64,1091.55 1379.68,1092.14 1391.64,1092.14C1405.3,1092.14 1413.84,1090.89 1413.84,1070.41C1413.84,1052.88 1401.9,1055.62 1394.2,1048.2C1385.51,1039.84 1386.51,1013.19 1386.51,959.396C1386.51,905.596 1393.35,871.446 1365.17,845.829C1336.99,820.217 1312.23,826.183 1291.74,834.729C1271.24,843.275 1246.48,864.613 1246.48,864.613C1246.48,864.613 1231.11,827.892 1196.96,827.892C1162.79,827.892 1147.42,843.275 1137.17,850.1C1126.93,856.925 1125.23,861.2 1119.25,861.2C1113.27,861.2 1112.42,844.121 1112.42,838.992C1112.42,833.871 1112.42,820.217 1093.62,826.183C1074.84,832.167 1058.61,838.142 1058.61,838.142Z" style="fill:white;fill-rule:nonzero;"/>
        <path d="M1886.9,923.529C1886.9,934.642 1888.62,1019.7 1888.62,1030.8C1888.62,1061.17 1908.72,1040.74 1908.33,1072.12C1908.15,1085.55 1895.53,1092.98 1883.49,1092.61C1867.27,1092.1 1865.55,1091.6 1846.77,1091.6C1827.98,1091.6 1834.82,1092.61 1812.61,1092.61C1790.4,1092.61 1786.99,1082.36 1786.99,1073.82C1786.99,1065.28 1789.08,1057.15 1797.8,1050.71C1802.91,1046.94 1803.22,1039.66 1804.08,1019.17C1804.93,998.671 1804.73,981.7 1804.73,951.708C1804.73,915.829 1795.98,904.088 1778.04,898.112C1755.67,890.658 1757.11,917.696 1757.11,917.696L1757.11,1016.6C1757.11,1040.52 1760.53,1051.61 1765.65,1055.88C1770.77,1060.15 1775.89,1062.72 1775.89,1076.38C1775.89,1090.04 1766.5,1092.61 1746.87,1092.61C1727.23,1092.61 1725.92,1091.6 1706.28,1091.6C1686.63,1091.6 1676.33,1094.31 1665.23,1094.31C1654.13,1094.31 1641.79,1090.56 1641.79,1074.33C1641.79,1058.11 1651.25,1055.68 1657.2,1050.76C1666.56,1043.03 1666.6,1031.98 1666.6,1003.8C1666.6,975.621 1664.88,931.217 1664.03,911.575C1663.21,892.733 1629.02,896.213 1629.02,878.275C1629.02,862.058 1639.28,858.633 1647.82,855.221C1656.35,851.808 1661.48,850.1 1693.92,838.142C1693.92,838.142 1710.15,832.167 1728.93,826.183C1747.73,820.217 1747.73,833.871 1747.73,838.992C1747.73,844.121 1748.57,861.2 1754.55,861.2C1760.53,861.2 1762.24,856.925 1772.49,850.1C1782.74,843.275 1798.11,827.892 1832.25,827.892C1871.09,827.892 1881.78,864.613 1881.78,864.613C1886.9,878.275 1886.9,923.529 1886.9,923.529Z" style="fill:white;fill-rule:nonzero;"/>
    </g>
</svg>
