<?xml version="1.0" encoding="UTF-8" standalone="no"?><!DOCTYPE svg PUBLIC "-//W3C//DTD SVG 1.1//EN" "http://www.w3.org/Graphics/SVG/1.1/DTD/svg11.dtd"><svg width="100%" height="100%" viewBox="0 0 100 100" version="1.1" xmlns="http://www.w3.org/2000/svg" xmlns:xlink="http://www.w3.org/1999/xlink" xml:space="preserve" xmlns:serif="http://www.serif.com/" fill-rule="evenodd" clip-rule="evenodd" stroke-linejoin="round" stroke-miterlimit="2"><g transform="translate(0 23.537) scale(.28838)"><path d="M189.88 183.53H0l5.21-42.54h189.88l-5.21 42.54z" fill-rule="nonzero"/><path d="M264.63 27.72h-12.79l-15.53 111.55c-1.81 15.32-8.85 33.39-33 31.22l-1.73 12.61c35.93 2.2 44.8-23.91 46.34-36.2l16.71-119.18zm-31.42 114.15L249.1 27.72h-12.76l-16.32 117.22c-.94 6.13-8.22 11.58-14.59 10l-1.75 12.71c20.44 1.84 27.6-12.77 29.53-25.78zm80.01-116.99c-30.39 0-41.14 24.32-42.67 36.5l-4.79 35.07c-1.47 10.86 3.57 34.79 33.55 34.79 22.44 0 39.51-14.67 42.48-36.5l4.61-33.13c2-13.55-3.53-36.73-33.18-36.73zM106.91 95.12l4.76-34.34c3-17.9 21.39-25.64 34.84-21.35l1.65-11.65c-33.63-4.89-46.93 17.85-48.44 33l-4.73 33.9c-1.43 10.47 3 37.74 39.19 33.5l1.73-12.49c-13.86 4.54-30.93-3.8-29-20.57zm83.08-67.34-9.42 66.85c-1.43 10.47 3 37.74 39.19 33.5l1.73-12.49c-13.86 4.62-30.94-3.72-29-20.49l9.46-67.37h-11.96zm-126.6 100h13.79L53.44 76.47l-8.88 10.94 18.83 40.37zM55.42 74.1l25.07 53.68h13.85L64.36 63.23 55.42 74.1zm-32.44 53.68H35.7l5.75-41.02L112.71 0h-16.6L29.32 81.83l-6.34 45.95zM25.34 0 7.56 127.78h12.7L38.15 0H25.34zm153.83 27.74h-12.84L152.5 127.77h12.62l14.05-100.03zm-15.46 0h-12.83l-13.84 100.03h12.62l14.05-100.03zm165.2 69.41c-.31 2-4.54 22.77-28.59 22.77-19.15 0-22.95-16.89-22.14-24.42.32-2.91 4.83-35.85 5.4-38.58.82-3.93 7.56-20.49 26.76-20.49 25 0 24 22.16 23.57 25.73-.28 2.35-4.71 33.06-5 34.99zm-18.51-57.9c-17.48 0-23.4 15.39-24.14 18.42-.63 2.63-5.12 35.76-5.33 38.68-.45 6.21 2.62 20.75 19.86 20.75 17 0 24.49-13 25.57-20.51.26-1.86 4.68-32.19 4.94-34.58.26-2.39 1.64-22.76-20.9-22.76zM204.85 27.78l-9.55 67.29c-.92 8.94 4.59 18.08 17.31 19 3.18.207 6.366-.32 9.31-1.54l1.75-12.75c-3.23 2.43-7.63 4.36-11.56 2.4a8.696 8.696 0 0 1-4.45-5.56 12.994 12.994 0 0 1 .15-5.2c.32-2.28.653-4.553 1-6.82l3-20.91 3.13-22.11 1.87-13.17.1-.71-12.06.08zm-82.91 66.39c.069-1.156.199-2.308.39-3.45l.92-6.71 2.15-15.23.68-4.9c2.52-11.25 14.52-13.23 18.23-8.33l1.82-13.11a28.356 28.356 0 0 0-8.7-1.16c-9.58 0-21.34 8.1-22.88 19.27l-4.78 34.46c-.93 8.94 4.58 18.08 17.31 19a20.75 20.75 0 0 0 9.3-1.54l1.71-12.69c-2.66 2-6 3.64-9.45 3.06a8.152 8.152 0 0 1-5.53-3.76 8.258 8.258 0 0 1-1.17-4.91zm180.18 10.61c-6.51 0-9.13-5.78-8.58-10.25L298 62.42c1-5.89 6.76-11.07 12.41-11.07l.161-.002c4.712 0 8.59 3.878 8.59 8.59 0 .538-.051 1.074-.151 1.602l-4.48 32.24c-.78 5.73-6.69 11-12.41 11zM92.55 0H76.13L49 33.12 53.63 0H40.82L30.17 76.1 92.55 0z" fill="rgb(21,227,109)" fill-rule="nonzero"/><path d="M28.25 155.62a8.627 8.627 0 0 0-6-2.93c-1.93 0-3.86.83-3.86 2.93 0 3.85 11.19 2.93 11.19 10.73 0 7.8-7.08 10.64-12.11 10.64A12.356 12.356 0 0 1 8 172.55l3.94-4.95a9.286 9.286 0 0 0 6.71 3.69c2.43 0 4.19-1.26 4.19-3.35 0-4-11.15-2.85-11.15-10.48 0-6.87 5.11-10.3 11.57-10.3a11.005 11.005 0 0 1 8.5 3.64l-3.51 4.82zm154.56 0a8.627 8.627 0 0 0-6-2.93c-1.93 0-3.85.83-3.85 2.93 0 3.85 11.18 2.93 11.18 10.73 0 7.8-7.08 10.64-12.11 10.64a12.356 12.356 0 0 1-9.47-4.44l3.94-4.95a9.286 9.286 0 0 0 6.71 3.69c2.43 0 4.19-1.26 4.19-3.35 0-4-11.15-2.85-11.15-10.48 0-6.87 5.11-10.3 11.57-10.3a11.005 11.005 0 0 1 8.5 3.64l-3.51 4.82zM80.66 176.99c-7.33 0-12.61-4.48-12.61-12 0-10.09 7.16-17.85 17.34-17.85 7.38 0 12.62 4.49 12.62 12.07 0 10.03-7.17 17.78-17.35 17.78zm78.51-29.41-.84 5.44h-7.16l-3.77 23.47h-6.58l3.73-23.47h-7.15l.88-5.44h20.89zM49.4 165.78H46l-1.6 10.71h-6.58l4.58-28.91h10c4.73 0 8.88 1.88 8.88 7.24-.08 7.25-4.94 11.02-11.88 10.96zm73.05-1.24 5.19 11.95h-7.66l-4.11-11h-2l-1.72 11h-6.58l4.57-28.91h10c4.74 0 9.22 1.71 9.22 7.16a10.221 10.221 0 0 1-6.91 9.8zm-37.98-11.55c-5.82 0-9.64 5.32-9.64 10.81 0 4.19 2.56 7.12 6.79 7.12 5.87 0 9.68-5.32 9.68-10.81 0-4.24-2.55-7.17-6.83-7.17v.05zm-33.94-.16h-2.52l-1.21 7.67h2.51c2.94 0 5.12-1.46 5.12-4.61.03-2.41-1.82-3.04-3.87-3.04l-.03-.02zm67.87.02h-2.55l-1.13 7.34h2.55c2.85 0 5.32-1.18 5.32-4.4-.02-2.47-2.19-2.94-4.19-2.94z" fill="white" fill-rule="nonzero"/></g></svg>